/* XPM */
static char * close_pressed_xpm[] = {
"24 24 45 1",
" 	c None",
".	c #EEEEEE",
"+	c #D9D9D9",
"@	c #D4CACB",
"#	c #BB8187",
"$	c #AA4E58",
"%	c #A13540",
"&	c #AA4F59",
"*	c #BC8288",
"=	c #C6A1A5",
"-	c #A23742",
";	c #9F2E3A",
">	c #9F2F3B",
",	c #A53A46",
"'	c #A43945",
")	c #A23743",
"!	c #D5CCCD",
"~	c #F6F4F4",
"{	c #D5A9AE",
"]	c #A0303C",
"^	c #D4A6AB",
"/	c #F7F6F6",
"(	c #BB8188",
"_	c #AA4E57",
":	c #CC949A",
"<	c #F8F8F8",
"[	c #D7ACB1",
"}	c #D6ABB0",
"|	c #CF9AA0",
"1	c #A23641",
"2	c #CD989E",
"3	c #D09DA2",
"4	c #D7ADB2",
"5	c #DAB4B8",
"6	c #A1313D",
"7	c #D6AAAF",
"8	c #CB9399",
"9	c #D6ABAF",
"0	c #F1E7E8",
"a	c #CA8E94",
"b	c #BB8288",
"c	c #A33844",
"d	c #D4CCCD",
"e	c #C6A2A6",
"f	c #AB505A",
"........................",
"++++++++++++++++++++++++",
"++++++++++++++++++++++++",
"++++++++++++++++++++++++",
"++++++++++++++++++++++++",
"++++++++@#$%%&*@++++++++",
"+++++++=-;;;;;;-=+++++++",
"++++++=>;;;;;;;;>=++++++",
"+++++@-;;,;;;;';;)!+++++",
"+++++#;;;~{]]^/;;;(+++++",
"+++++_;;;:<[}<|;;;&+++++",
"+++++1;;;;2<<3;;;;-+++++",
"+++++-;;;]4<<56;;;)+++++",
"+++++$;;;7<88<9;;;&+++++",
"+++++*;;;0a;;a0;;;b+++++",
"+++++@-;;;;;;;;;;cd+++++",
"++++++=>;;;;;;;;>e++++++",
"+++++++=);;;;;;ce+++++++",
"++++++++!(f11fbd++++++++",
"++++++++++++++++++++++++",
"++++++++++++++++++++++++",
"++++++++++++++++++++++++",
"++++++++++++++++++++++++",
"++++++++++++++++++++++++"};
