/* XPM */
static char *close_active[] = {
/* columns rows colors chars-per-pixel */
"24 24 42 1",
".	c #EEEEEE",
" 	c #D9D9D9",
"@	c #D7CECE",
"#	c #CD9897",
"$	c #C67370",
"%	c #C2605D",
"&	c #C67471",
"*	c #CD9997",
"=	c #D1B0AF",
"-	c #C2615F",
";	c #C15B58",
">	c #D2B0AF",
",	c #C15C59",
"'	c #C56562",
")	c #C46461",
"!	c #C2625F",
"~	c #D7CFCF",
"{	c #F7F5F5",
"]	c #E3BBBA",
"^	c #E2B8B7",
"/	c #F8F7F7",
"(	c #CC9897",
"_	c #C57270",
":	c #DCAAA8",
"<	c #F8F8F8",
"[	c #E4BDBC",
"}	c #E3BDBB",
"|	c #DEAFAE",
"1	c #C2615E",
"2	c #DEADAC",
"3	c #DFB1B0",
"4	c #C25D5A",
"5	c #E4BEBD",
"6	c #E5C3C2",
"7	c #C25E5B",
"8	c #DCA9A8",
"9	c #E3BCBB",
"0	c #F4EBEB",
"a	c #DBA6A4",
"b	c #CD9998",
"c	c #C36360",
"d	c #C67472",
/* pixels */
"........................",
"                        ",
"                        ",
"                        ",
"                        ",
"        @#$%%&*@        ",
"       =-;;;;;;->       ",
"      =,;;;;;;;;,>      ",
"     @-;;';;;;);;!~     ",
"     #;;;{],,^/;;;(     ",
"     _;;;:<[}<|;;;&     ",
"     1;;;;2<<3;;;;-     ",
"     -;;;45<<67;;;!     ",
"     $;;;]<88<9;;;&     ",
"     *;;;0a;;a0;;;b     ",
"     @-;;;;;;;;;;c~     ",
"      >,;;;;;;;;,=      ",
"       >!;;;;;;c=       ",
"        ~(d11db~        ",
"                        ",
"                        ",
"                        ",
"                        ",
"                        "
};
