/* XPM */
static char * close_active_xpm[] = {
"24 24 44 1",
" 	c None",
".	c #EEEEEE",
"+	c #D9D9D9",
"@	c #D9C9CB",
"#	c #D97E87",
"$	c #D84958",
"%	c #D82F40",
"&	c #D84A59",
"*	c #D97F88",
"=	c #D99FA5",
"-	c #D83142",
";	c #D8283A",
">	c #D8293B",
",	c #DA3546",
"'	c #DA3445",
")	c #D83243",
"!	c #D9CBCD",
"~	c #F7F4F4",
"{	c #ECA7AE",
"]	c #D82A3C",
"^	c #EBA3AB",
"/	c #F8F6F6",
"(	c #D87E88",
"_	c #D84957",
":	c #E8919A",
"<	c #F8F8F8",
"[	c #ECAAB1",
"}	c #ECA9B0",
"|	c #E998A0",
"1	c #D83041",
"2	c #E9959E",
"3	c #E99AA2",
"4	c #D82B3C",
"5	c #ECABB2",
"6	c #EDB1B8",
"7	c #D92B3D",
"8	c #ECA8AF",
"9	c #E89099",
"0	c #F6E6E8",
"a	c #E88B94",
"b	c #D87F88",
"c	c #D83344",
"d	c #D8A0A6",
"e	c #D94B5A",
"........................",
"++++++++++++++++++++++++",
"++++++++++++++++++++++++",
"++++++++++++++++++++++++",
"++++++++++++++++++++++++",
"++++++++@#$%%&*@++++++++",
"+++++++=-;;;;;;-=+++++++",
"++++++=>;;;;;;;;>=++++++",
"+++++@-;;,;;;;';;)!+++++",
"+++++#;;;~{]]^/;;;(+++++",
"+++++_;;;:<[}<|;;;&+++++",
"+++++1;;;;2<<3;;;;-+++++",
"+++++-;;;45<<67;;;)+++++",
"+++++$;;;8<99<8;;;&+++++",
"+++++*;;;0a;;a0;;;b+++++",
"+++++@-;;;;;;;;;;c!+++++",
"++++++=>;;;;;;;;>d++++++",
"+++++++=);;;;;;cd+++++++",
"++++++++!(e11eb!++++++++",
"++++++++++++++++++++++++",
"++++++++++++++++++++++++",
"++++++++++++++++++++++++",
"++++++++++++++++++++++++",
"++++++++++++++++++++++++"};
