/* XPM */
static char * close_active_xpm[] = {
"24 24 27 1",
" 	c None",
".	c #EEEEEE",
"+	c #D9D9D9",
"@	c #D4D6D1",
"#	c #B9C9AA",
"$	c #A6BF8E",
"%	c #9CB97E",
"&	c #9CB980",
"*	c #D3D6D1",
"=	c #C4CEBA",
"-	c #9AB87D",
";	c #9AB87C",
">	c #F33A3A",
",	c #C5CEBB",
"'	c #FBFCFA",
")	c #D7E3CC",
"!	c #FCFCFC",
"~	c #B9C8A9",
"{	c #CCDBBD",
"]	c #FDFDFD",
"^	c #D8E4CD",
"/	c #D8E3CC",
"(	c #D0DEC3",
"_	c #A7BF8F",
":	c #DCE6D2",
"<	c #C9D9B9",
"[	c #A0BC83",
"........................",
"++++++++++++++++++++++++",
"++++++++++++++++++++++++",
"++++++++++++++++++++++++",
"++++++++++++++++++++++++",
"++++++++@#$%&$#*++++++++",
"+++++++=%-;;;;-&=+++++++",
"++++++=---;>>>--%,++++++",
"+++++@%;>>>>;;>;;%@+++++",
"+++++#-;>')%%)!>;;~+++++",
"+++++$;>;{]^/!(>-;_+++++",
"+++++%;>;;{]](;>-%&+++++",
"+++++&->;%/]]:%>;;%+++++",
"+++++$->>/]{{])>;;_+++++",
"+++++#;;>><;;<>;-;~+++++",
"+++++@%;;;>>>>;;-[@+++++",
"++++++=%-;;;;;--;=++++++",
"+++++++=[-;;;;%%=+++++++",
"++++++++@#_&%$#@++++++++",
"++++++++++++++++++++++++",
"++++++++++++++++++++++++",
"++++++++++++++++++++++++",
"++++++++++++++++++++++++",
"++++++++++++++++++++++++"};
