/* XPM */
static char * close_prelight_xpm[] = {
"24 24 41 1",
" 	c None",
".	c #EEEEEE",
"+	c #D9D9D9",
"@	c #DACBCD",
"#	c #E18891",
"$	c #E55A68",
"%	c #E74254",
"&	c #E55A69",
"*	c #E18992",
"=	c #DEA6AB",
"-	c #E74455",
";	c #E83C4E",
">	c #DEA6AC",
",	c #E83D4F",
"'	c #E94758",
")	c #E74556",
"!	c #DACDCE",
"~	c #F8F4F5",
"{	c #F2AFB6",
"]	c #E83E4F",
"^	c #F2ABB3",
"/	c #F8F6F7",
"(	c #E08992",
"_	c #E55968",
":	c #F09BA4",
"<	c #F8F8F8",
"[	c #F2B2B8",
"}	c #F2B1B8",
"|	c #F0A1A9",
"1	c #E74354",
"2	c #F09EA7",
"3	c #F1A3AB",
"4	c #E83E50",
"5	c #F2B2B9",
"6	c #F2B8BE",
"7	c #E83F51",
"8	c #F09AA3",
"9	c #F2B0B7",
"0	c #F7E8EA",
"a	c #F0969F",
"b	c #E65B6A",
"........................",
"++++++++++++++++++++++++",
"++++++++++++++++++++++++",
"++++++++++++++++++++++++",
"++++++++++++++++++++++++",
"++++++++@#$%%&*@++++++++",
"+++++++=-;;;;;;->+++++++",
"++++++=,;;;;;;;;,>++++++",
"+++++@-;;';;;;';;)!+++++",
"+++++#;;;~{]]^/;;;(+++++",
"+++++_;;;:<[}<|;;;&+++++",
"+++++1;;;;2<<3;;;;-+++++",
"+++++-;;;45<<67;;;)+++++",
"+++++$;;;{<88<9;;;&+++++",
"+++++*;;;0a;;a0;;;(+++++",
"+++++@-;;;;;;;;;;)!+++++",
"++++++>,;;;;;;;;,>++++++",
"+++++++>);;;;;;)>+++++++",
"++++++++!(b11b(!++++++++",
"++++++++++++++++++++++++",
"++++++++++++++++++++++++",
"++++++++++++++++++++++++",
"++++++++++++++++++++++++",
"++++++++++++++++++++++++"};
