/* XPM */
static char * close_pressed_xpm[] = {
/* columns rows colors chars-per-pixel */
"24 24 42 1",
".	c #EEEEEE",
" 	c #D9D9D9",
"@	c #D3CCCC",
"#	c #B98F8E",
"$	c #A66563",
"%	c #9C504D",
"&	c #A66663",
"*	c #B9908E",
"=	c #C4AAA9",
"-	c #9D514E",
";	c #9A4A47",
">	c #C5AAA9",
",	c #9A4B48",
"'	c #A05552",
")	c #A05451",
"!	c #9E524F",
"~	c #D4CECE",
"{	c #F6F4F4",
"]	c #D3B4B3",
"^	c #9B4B48",
"/	c #D2B1B0",
"(	c #F7F7F7",
"_	c #A66462",
":	c #C9A2A0",
"<	c #F8F8F8",
"[	c #D5B7B6",
"}	c #D5B6B5",
"|	c #CCA7A6",
"1	c #CBA5A4",
"2	c #CDA9A8",
"3	c #9B4C49",
"4	c #D5B8B6",
"5	c #D8BDBC",
"6	c #9C4D4A",
"7	c #D4B5B4",
"8	c #C9A19F",
"9	c #F0E9E9",
"0	c #C79D9B",
"a	c #B9908F",
"b	c #9E5350",
"c	c #C5ABAA",
"d	c #A76664",
/* pixels */
"........................",
"                        ",
"                        ",
"                        ",
"                        ",
"        @#$%%&*@        ",
"       =-;;;;;;->       ",
"      =,;;;;;;;;,>      ",
"     @-;;';;;;);;!~     ",
"     #;;;{]^^/(;;;*     ",
"     _;;;:<[}<|;;;&     ",
"     -;;;;1<<2;;;;-     ",
"     -;;;34<<56;;;!     ",
"     $;;;7<88<7;;;&     ",
"     *;;;90;;09;;;a     ",
"     @-;;;;;;;;;;b~     ",
"      >,;;;;;;;;,c      ",
"       >!;;;;;;bc       ",
"        ~*d--da~        ",
"                        ",
"                        ",
"                        ",
"                        ",
"                        "
};
