/* XPM */
static char * close_prelight_xpm[] = {
/* columns rows colors chars-per-pixel */
"24 24 37 1",
".	c #EEEEEE",
" 	c #D9D9D9",
"@	c #D8D0D0",
"#	c #D5A3A2",
"$	c #D38583",
"%	c #D17573",
"&	c #D38584",
"*	c #D5A4A3",
"=	c #D7B7B6",
"-	c #D17674",
";	c #D1716F",
">	c #D7B7B7",
",	c #D17270",
"'	c #D47977",
")	c #D27775",
"!	c #D8D1D1",
"~	c #F7F5F5",
"{	c #E9C3C3",
"]	c #E8C1C0",
"^	c #F8F7F7",
"/	c #D28483",
"(	c #E4B5B4",
"_	c #F8F8F8",
":	c #EAC6C5",
"<	c #EAC5C4",
"[	c #E6B9B8",
"}	c #E5B8B7",
"|	c #E6BBBA",
"1	c #D27371",
"2	c #EACAC9",
"3	c #E9C4C3",
"4	c #E4B4B3",
"5	c #E9C4C4",
"6	c #F5EDED",
"7	c #E4B1B0",
"8	c #D6B7B7",
"9	c #D38684",
/* pixels */
"........................",
"                        ",
"                        ",
"                        ",
"                        ",
"        @#$%%&*@        ",
"       =-;;;;;;->       ",
"      =,;;;;;;;;,>      ",
"     @-;;';;;;';;)!     ",
"     #;;;~{,,]^;;;*     ",
"     /;;;(_:<_[;;;&     ",
"     -;;;;}__|;;;;-     ",
"     -;;;1:__21;;;)     ",
"     $;;;3_44_5;;;&     ",
"     *;;;67;;76;;;*     ",
"     @-;;;;;;;;;;)!     ",
"      >,;;;;;;;;,8      ",
"       >);;;;;;)8       ",
"        !*9--9*!        ",
"                        ",
"                        ",
"                        ",
"                        ",
"                        "
};
