/* XPM */
static char * close_prelight_xpm[] = {
/* columns rows colors chars-per-pixel */
"24 24 37 1",
".	c #373737",
" 	c #2F2F2F",
"@	c #34363C",
"#	c #505A7D",
"$	c #6273AA",
"%	c #6B7EBF",
"&	c #6272A9",
"*	c #444B61",
"=	c #6A7DBE",
"-	c #6E82C6",
";	c #6E81C5",
">	c #6C7EBE",
",	c #6B7EBE",
"'	c #35363B",
")	c #303132",
"!	c #48506B",
"~	c #6D81C4",
"{	c #49516D",
"]	c #303031",
"^	c #4F597C",
"/	c #6373AB",
"(	c #4E587A",
"_	c #464E68",
":	c #474E68",
"<	c #4C5575",
"[	c #4D5777",
"}	c #4C5573",
"|	c #464D67",
"1	c #444B62",
"2	c #484F6A",
"3	c #4F597B",
"4	c #474F69",
"5	c #515B7F",
"6	c #6B7DBD",
"7	c #34353B",
"8	c #434A60",
"9	c #6172A8",
/* pixels */
"........................",
"                        ",
"                        ",
"                        ",
"                        ",
"        @#$%%&#@        ",
"       *=------=*       ",
"      *;--------;*      ",
"     @=-->----,--,'     ",
"     #---)!~~{]---^     ",
"     /---( _: <---&     ",
"     %----[  }----=     ",
"     =---;|  1~---,     ",
"     $---2 33 4---&     ",
"     #---@5--5@---3     ",
"     @=----------67     ",
"      *;--------;8      ",
"       *,------68       ",
"        '^9%%937        ",
"                        ",
"                        ",
"                        ",
"                        ",
"                        "
};
