/* XPM */
static char *close_active[] = {
/* columns rows colors chars-per-pixel */
"24 24 39 1",
".	c #373737",
" 	c #2F2F2F",
"@	c #33343B",
"#	c #455075",
"$	c #51629C",
"%	c #576BAF",
"&	c #51629B",
"*	c #455074",
"=	c #3D445B",
"-	c #566AAE",
";	c #596EB5",
">	c #3D445C",
",	c #596EB4",
"'	c #586CAE",
")	c #576BAE",
"!	c #33353A",
"~	c #303032",
"{	c #404864",
"]	c #586DB4",
"^	c #404966",
"/	c #303030",
"(	c #444F73",
"_	c #52639D",
":	c #444E71",
"<	c #3F4661",
"[	c #3F4762",
"}	c #424C6D",
"|	c #434D6F",
"1	c #424C6C",
"2	c #3E4660",
"3	c #596DB3",
"4	c #404863",
"5	c #444F72",
"6	c #3F4763",
"7	c #465176",
"8	c #576BAD",
"9	c #323439",
"0	c #3D435A",
"a	c #51619B",
/* pixels */
"........................",
"                        ",
"                        ",
"                        ",
"                        ",
"        @#$%%&*@        ",
"       =-;;;;;;->       ",
"      =,;;;;;;;;,>      ",
"     @-;;';;;;);;)!     ",
"     #;;;~{]]^/;;;(     ",
"     _;;;: <[ };;;&     ",
"     );;;;|  1;;;;-     ",
"     -;;;,2  >3;;;)     ",
"     $;;;4 55 6;;;&     ",
"     *;;;@7;;7@;;;(     ",
"     @-;;;;;;;;;;89     ",
"      >,;;;;;;;;,0      ",
"       >);;;;;;80       ",
"        !(a))a(9        ",
"                        ",
"                        ",
"                        ",
"                        ",
"                        "
};
