/* XPM */
static char * close_active_xpm[] = {
"24 24 39 1",
" 	c None",
".	c #373737",
"+	c #2F2F2F",
"@	c #2F343C",
"#	c #314B7D",
"$	c #325BAA",
"%	c #3263BF",
"&	c #315BA9",
"*	c #304161",
"=	c #3162BE",
"-	c #3265C6",
";	c #3265C5",
">	c #3363BE",
",	c #3262BE",
"'	c #30343B",
")	c #2F3032",
"!	c #31456B",
"~	c #3264C4",
"{	c #30456D",
"]	c #2F3031",
"^	c #304A7C",
"/	c #325BAB",
"(	c #314A7A",
"_	c #304368",
":	c #304875",
"<	c #3262BF",
"[	c #314977",
"}	c #314873",
"|	c #304367",
"1	c #304162",
"2	c #30446A",
"3	c #314A7B",
"4	c #304469",
"5	c #314C7F",
"6	c #304A7B",
"7	c #3262BD",
"8	c #2F333B",
"9	c #304060",
"0	c #315AA8",
"........................",
"++++++++++++++++++++++++",
"++++++++++++++++++++++++",
"++++++++++++++++++++++++",
"++++++++++++++++++++++++",
"++++++++@#$%%&#@++++++++",
"+++++++*=------=*+++++++",
"++++++*;--------;*++++++",
"+++++@=-->----,--,'+++++",
"+++++#---)!~~{]---^+++++",
"+++++/---(+__+:---&+++++",
"+++++<----[++}----=+++++",
"+++++=---;|++1~---,+++++",
"+++++$---2+33+4---&+++++",
"+++++#---@5--5@---6+++++",
"+++++@=----------78+++++",
"++++++*;--------;9++++++",
"+++++++*,------79+++++++",
"++++++++'^0<<068++++++++",
"++++++++++++++++++++++++",
"++++++++++++++++++++++++",
"++++++++++++++++++++++++",
"++++++++++++++++++++++++",
"++++++++++++++++++++++++"};
