/* XPM */
static char * close_pressed_xpm[] = {
"24 24 36 1",
" 	c None",
".	c #373737",
"+	c #2F2F2F",
"@	c #2F3238",
"#	c #324363",
"$	c #334E80",
"%	c #34538E",
"&	c #334E7F",
"*	c #324362",
"=	c #313C50",
"-	c #33538D",
";	c #345592",
">	c #345591",
",	c #35548D",
"'	c #34538D",
")	c #303338",
"!	c #2F3031",
"~	c #313E56",
"{	c #345491",
"]	c #313F58",
"^	c #2F3030",
"/	c #324261",
"(	c #324260",
"_	c #313D54",
":	c #313D55",
"<	c #31405D",
"[	c #32415E",
"}	c #31405C",
"|	c #303D53",
"1	c #313E55",
"2	c #324464",
"3	c #314261",
"4	c #34538C",
"5	c #2F3236",
"6	c #313B4F",
"7	c #334D7E",
"........................",
"++++++++++++++++++++++++",
"++++++++++++++++++++++++",
"++++++++++++++++++++++++",
"++++++++++++++++++++++++",
"++++++++@#$%%&*@++++++++",
"+++++++=-;;;;;;-=+++++++",
"++++++=>;;;;;;;;>=++++++",
"+++++@-;;,;;;;';;')+++++",
"+++++#;;;!~{{]^;;;/+++++",
"+++++$;;;(+_:+<;;;&+++++",
"+++++';;;;[++};;;;-+++++",
"+++++-;;;>|++=>;;;'+++++",
"+++++$;;;~+//+1;;;&+++++",
"+++++*;;;@2;;2@;;;3+++++",
"+++++@-;;;;;;;;;;45+++++",
"++++++=>;;;;;;;;>6++++++",
"+++++++=';;;;;;46+++++++",
"++++++++)/7''735++++++++",
"++++++++++++++++++++++++",
"++++++++++++++++++++++++",
"++++++++++++++++++++++++",
"++++++++++++++++++++++++",
"++++++++++++++++++++++++"};
