/* XPM */
static char * close_pressed_xpm[] = {
"22 22 163 2",
"  	c None",
". 	c #FFFFFF",
"+ 	c #EEEEEE",
"@ 	c #EEEEED",
"# 	c #EDEEEE",
"$ 	c #EDEDED",
"% 	c #EDEDEE",
"& 	c #EDEEED",
"* 	c #EEEDED",
"= 	c #EEEDEE",
"- 	c #ECEDED",
"; 	c #ECECED",
"> 	c #EDEDEC",
", 	c #EDECED",
"' 	c #E5BDBD",
") 	c #DF9494",
"! 	c #DB7777",
"~ 	c #D86666",
"{ 	c #DF9394",
"] 	c #ECECEC",
"^ 	c #EDECEC",
"/ 	c #E9D5D5",
"( 	c #DE9393",
"_ 	c #D66464",
": 	c #D45D5D",
"< 	c #D25C5C",
"[ 	c #D15A5A",
"} 	c #E8D5D6",
"| 	c #EBEBEB",
"1 	c #ECEBEB",
"2 	c #E7D4D4",
"3 	c #DC8787",
"4 	c #D45E5E",
"5 	c #CF6363",
"6 	c #C87B7B",
"7 	c #C59B9B",
"8 	c #C8BABA",
"9 	c #CF6262",
"0 	c #E8D5D4",
"a 	c #EBEBEC",
"b 	c #EAEAEB",
"c 	c #EAEBEA",
"d 	c #EBEAEA",
"e 	c #DE9292",
"f 	c #CE6B6B",
"g 	c #C59797",
"h 	c #CFCFCF",
"i 	c #DD9292",
"j 	c #EBEAEB",
"k 	c #E9EAEA",
"l 	c #EAEAE9",
"m 	c #E9E9EA",
"n 	c #E2BABB",
"o 	c #D56363",
"p 	c #D06262",
"q 	c #C79898",
"r 	c #D2D2D2",
"s 	c #D66363",
"t 	c #E2BABA",
"u 	c #E9E9E9",
"v 	c #E9E8E8",
"w 	c #E9E8E9",
"x 	c #E8E8E8",
"y 	c #DC9191",
"z 	c #D35C5C",
"A 	c #C97C7C",
"B 	c #D6D6D6",
"C 	c #C97D7C",
"D 	c #D35D5C",
"E 	c #E8E9E9",
"F 	c #E7E8E7",
"G 	c #E8E7E7",
"H 	c #E7E7E8",
"I 	c #D97575",
"J 	c #D15B5B",
"K 	c #CCA3A3",
"L 	c #DBDBDB",
"M 	c #E7E7E7",
"N 	c #E6E7E6",
"O 	c #E6E6E6",
"P 	c #D05858",
"Q 	c #DACCCC",
"R 	c #E0E0E0",
"S 	c #E5E5E5",
"T 	c #CF5858",
"U 	c #DED0D0",
"V 	c #E4E3E4",
"W 	c #E3E4E4",
"X 	c #E4E4E3",
"Y 	c #D87474",
"Z 	c #D05A5A",
"` 	c #D4AAAA",
" .	c #D87374",
"..	c #E4E4E4",
"+.	c #E3E3E3",
"@.	c #DA8E8E",
"#.	c #D25B5B",
"$.	c #CE8081",
"%.	c #F0F0F0",
"&.	c #CE8181",
"*.	c #E2E2E2",
"=.	c #E1E1E2",
"-.	c #E1E2E2",
";.	c #E1E2E1",
">.	c #DDB4B5",
",.	c #D46161",
"'.	c #CF6261",
").	c #D6A9A9",
"!.	c #F5F5F5",
"~.	c #CF6162",
"{.	c #E2E2E1",
"].	c #E2E1E2",
"^.	c #E1E1E1",
"/.	c #E0E0E1",
"(.	c #E0E1E1",
"_.	c #D88D8D",
":.	c #CE6C6C",
"<.	c #D9ABAB",
"[.	c #F9F9F9",
"}.	c #E0E1E0",
"|.	c #E0E0DF",
"1.	c #DFDFE0",
"2.	c #DECACA",
"3.	c #D78282",
"4.	c #CF6161",
"5.	c #D08383",
"6.	c #DCB3B3",
"7.	c #F0E2E2",
"8.	c #DDCACA",
"9.	c #E0DFDF",
"0.	c #DFE0E0",
"a.	c #DFDFDF",
"b.	c #DFDEDE",
"c.	c #DEDFDF",
"d.	c #DFDEDF",
"e.	c #DDC9C9",
"f.	c #D78C8C",
"g.	c #D36060",
"h.	c #CF5959",
"i.	c #CE5756",
"j.	c #CE5657",
"k.	c #DDCAC9",
"l.	c #DEDEDF",
"m.	c #DEDEDE",
"n.	c #DEDEDD",
"o.	c #DDDEDE",
"p.	c #DEDDDE",
"q.	c #DAB2B1",
"r.	c #D57272",
"s.	c #D46262",
"t.	c #DAB2B2",
"u.	c #DDDEDD",
"v.	c #DDDDDD",
"w.	c #DEDDDD",
"x.	c #DDDDDE",
"y.	c #DCDCDD",
"z.	c #DCDDDD",
"A.	c #DDDCDD",
"B.	c #DCDDDC",
"C.	c #DDDCDC",
"D.	c #DDDDDC",
"E.	c #DCDCDC",
"F.	c #DCDBDC",
". . . . . . . . . . . . . . . . . . . . . . ",
"+ + + + + + + + + + + + + + + + + + + + + + ",
"@ # $ + % % % & & & * % = @ @ % & $ $ # $ # ",
"- $ ; $ > , $ ' ) ! ~ ~ ! { ' $ $ $ $ > , $ ",
"] ] ^ ] ] / ( _ : < [ [ < : _ ( } ] ] ] ] ; ",
"| | | 1 2 3 4 5 6 7 8 8 7 6 9 4 3 0 | a | | ",
"b c b d e 4 f g h h h h h h g f 4 i b j d b ",
"k l m n o p q r r r r r r r r q 9 s t u u m ",
"v w x y z A B B B B B B B B B B C D y x w E ",
"F G H I J K L L L L L L L L L L K J I G M M ",
"N O N _ P Q R R R R R R R R R R Q P _ O O O ",
"S S S _ T U O O O O O O O O O O U T _ S S S ",
"V W X Y Z ` | | | | | | | | | | ` Z  .W ....",
"+.+.+.@.#.$.%.%.%.%.%.%.%.%.%.%.&.#.@.+.+.*.",
"=.-.;.>.,.'.).!.!.!.!.!.!.!.!.).~.,.>.{.].{.",
"^./.(./._.#.:.<.[.[.[.[.[.[.<.:.#._.^./.}.^.",
"R |.1.R 2.3.#.4.5.6.7.7.6.5.4.#.3.8.R R 9.0.",
"a.b.c.a.d.e.f.g.[ h.i.j.h.[ g.f.k.a.c.l.a.c.",
"m.m.n.o.m.m.p.q.f.r.s.s.r.f.t.m.m.u.p.m.m.m.",
"u.v.v.v.w.v.v.v.w.v.u.v.v.o.v.v.v.x.w.w.v.u.",
"y.z.A.B.C.v.A.z.y.y.v.C.C.z.D.D.A.D.D.A.E.E.",
"E.E.F.E.E.E.E.E.E.E.E.E.E.E.E.E.E.E.E.E.E.E."};
