/* XPM */
static char * close_prelight_xpm[] = {
"22 22 185 2",
"  	c None",
". 	c #FFFFFF",
"+ 	c #EEEEEE",
"@ 	c #EEEEED",
"# 	c #EDEEEE",
"$ 	c #EDEDED",
"% 	c #EDEDEE",
"& 	c #EDEEED",
"* 	c #EEEDED",
"= 	c #EEEDEE",
"- 	c #ECEDED",
"; 	c #ECECED",
"> 	c #EDEDEC",
", 	c #EDECED",
"' 	c #E9D3D3",
") 	c #E5B9B9",
"! 	c #E2A4A4",
"~ 	c #DF9495",
"{ 	c #DF9595",
"] 	c #E2A4A3",
"^ 	c #E5B8B9",
"/ 	c #ECECEC",
"( 	c #EDECEC",
"_ 	c #EBE0E0",
": 	c #E3B8B8",
"< 	c #DC9091",
"[ 	c #D78888",
"} 	c #D48484",
"| 	c #D18282",
"1 	c #D48485",
"2 	c #EAE0E1",
"3 	c #EBEBEB",
"4 	c #ECEBEB",
"5 	c #E9DFDF",
"6 	c #E2AEAE",
"7 	c #D98989",
"8 	c #D28C8C",
"9 	c #D5A7A7",
"0 	c #E2CCCC",
"a 	c #F5EEEE",
"b 	c #D5A7A8",
"c 	c #D98A89",
"d 	c #E1AEAE",
"e 	c #EAE0DF",
"f 	c #EBEBEC",
"g 	c #EAEAEB",
"h 	c #EAEBEA",
"i 	c #EBEAEA",
"j 	c #E2B6B7",
"k 	c #D29494",
"l 	c #DEC6C5",
"m 	c #FEFEFE",
"n 	c #DEC5C5",
"o 	c #D29595",
"p 	c #D88989",
"q 	c #E2B7B6",
"r 	c #EBEAEB",
"s 	c #E9EAEA",
"t 	c #EAEAE9",
"u 	c #E9E9EA",
"v 	c #E5D0D0",
"w 	c #DA8F8F",
"x 	c #D18B8B",
"y 	c #DEC4C4",
"z 	c #FDFDFD",
"A 	c #DEC4C5",
"B 	c #DB8F8F",
"C 	c #E9E9E9",
"D 	c #E9E8E8",
"E 	c #E9E8E9",
"F 	c #E8E8E8",
"G 	c #E1B6B5",
"H 	c #D68686",
"I 	c #D2A6A6",
"J 	c #FBFBFB",
"K 	c #D68786",
"L 	c #E8E9E9",
"M 	c #E7E8E7",
"N 	c #E8E7E7",
"O 	c #E7E7E8",
"P 	c #DEA0A0",
"Q 	c #D28282",
"R 	c #DEC8C8",
"S 	c #F9F9F9",
"T 	c #D28283",
"U 	c #DEA1A0",
"V 	c #E7E7E7",
"W 	c #E6E7E6",
"X 	c #E6E6E6",
"Y 	c #DC9191",
"Z 	c #CF7F7F",
"` 	c #EEE6E7",
" .	c #F7F7F7",
"..	c #EEE6E6",
"+.	c #E5E5E5",
"@.	c #DB9191",
"#.	c #CE7F7F",
"$.	c #ECE5E5",
"%.	c #F5F5F5",
"&.	c #E4E3E4",
"*.	c #E3E4E4",
"=.	c #E4E4E3",
"-.	c #DC9E9E",
";.	c #D08181",
">.	c #DAC3C3",
",.	c #F3F3F3",
"'.	c #D9C3C3",
").	c #DC9D9E",
"!.	c #E4E4E4",
"~.	c #E3E3E3",
"{.	c #DDB1B1",
"].	c #D38383",
"^.	c #CDA0A1",
"/.	c #F1F1F1",
"(.	c #CDA1A1",
"_.	c #D38484",
":.	c #E2E2E2",
"<.	c #E1E1E2",
"[.	c #E1E2E2",
"}.	c #E1E2E1",
"|.	c #DFC9C9",
"1.	c #D78B8B",
"2.	c #CD8787",
"3.	c #D4BBBB",
"4.	c #EFEFEF",
"5.	c #E2E2E1",
"6.	c #E2E1E2",
"7.	c #E1E1E1",
"8.	c #E0E0E1",
"9.	c #E0E1E1",
"0.	c #DBB0B0",
"a.	c #CC8E8E",
"b.	c #D3BABA",
"c.	c #D48584",
"d.	c #DBAFB0",
"e.	c #E0E1E0",
"f.	c #E0E0E0",
"g.	c #E0E0DF",
"h.	c #DFDFE0",
"i.	c #DFD5D5",
"j.	c #DAA7A7",
"k.	c #CB8585",
"l.	c #CB9E9E",
"m.	c #D5BEBE",
"n.	c #E4DEDE",
"o.	c #CB8686",
"p.	c #DED5D4",
"q.	c #E0DFDF",
"r.	c #DFE0E0",
"s.	c #DFDFDF",
"t.	c #DFDEDE",
"u.	c #DEDFDF",
"v.	c #DFDEDF",
"w.	c #DED3D3",
"x.	c #D9AEAE",
"y.	c #D58A89",
"z.	c #D18182",
"A.	c #CE7E7F",
"B.	c #CC7C7B",
"C.	c #CB7B7C",
"D.	c #CE7F7E",
"E.	c #D58A8A",
"F.	c #DAAEAE",
"G.	c #DED4D3",
"H.	c #DEDEDF",
"I.	c #DEDEDE",
"J.	c #DEDEDD",
"K.	c #DDDEDE",
"L.	c #DEDDDE",
"M.	c #DCC6C5",
"N.	c #D89A9A",
"O.	c #D78D8D",
"P.	c #DCC6C6",
"Q.	c #DDDEDD",
"R.	c #DDDDDD",
"S.	c #DEDDDD",
"T.	c #DDDDDE",
"U.	c #DCDCDD",
"V.	c #DCDDDD",
"W.	c #DDDCDD",
"X.	c #DCDDDC",
"Y.	c #DDDCDC",
"Z.	c #DDDDDC",
"`.	c #DCDCDC",
" +	c #DCDBDC",
". . . . . . . . . . . . . . . . . . . . . . ",
"+ + + + + + + + + + + + + + + + + + + + + + ",
"@ # $ + % % % & & & * % = @ @ % & $ $ # $ # ",
"- $ ; $ > , $ ' ) ! ~ { ] ^ ' $ $ $ $ > , $ ",
"/ / ( / / _ : < [ } | | 1 [ < : 2 / / / / ; ",
"3 3 3 4 5 6 7 8 9 0 a a 0 b 8 c d e 3 f 3 3 ",
"g h g i j 7 k l m m m m m m n o p q g r i g ",
"s t u v w x y z z z z z z z z A x B v C C u ",
"D E F G H I J J J J J J J J J J I K G F E L ",
"M N O P Q R S S S S S S S S S S R T U N V V ",
"W X W Y Z `  . . . . . . . . . ...Z Y X X X ",
"+.+.+.@.#.$.%.%.%.%.%.%.%.%.%.%.$.#.@.+.+.+.",
"&.*.=.-.;.>.,.,.,.,.,.,.,.,.,.,.'.;.).*.!.!.",
"~.~.~.{.].^././././././././././.(._.{.~.~.:.",
"<.[.}.|.1.2.3.4.4.4.4.4.4.4.4.3.2.1.|.5.6.5.",
"7.8.9.8.0.1 a.b.$ $ $ $ $ $ b.a.c.d.7.8.e.7.",
"f.g.h.f.i.j.} k.l.m.n.n.m.l.o.} j.p.f.f.q.r.",
"s.t.u.s.v.w.x.y.z.A.B.C.D.| E.F.G.s.u.H.s.u.",
"I.I.J.K.I.I.L.M.F.N.O.O.N.F.P.I.I.Q.L.I.I.I.",
"Q.R.R.R.S.R.R.R.S.R.Q.R.R.K.R.R.R.T.S.S.R.Q.",
"U.V.W.X.Y.R.W.V.U.U.R.Y.Y.V.Z.Z.W.Z.Z.W.`.`.",
"`.`. +`.`.`.`.`.`.`.`.`.`.`.`.`.`.`.`.`.`.`."};
