/* XPM */
static char * hide_pressed_xpm[] = {
"22 22 165 2",
"  	c None",
". 	c #FFFFFF",
"+ 	c #EEEEEE",
"@ 	c #EEEEED",
"# 	c #EDEEEE",
"$ 	c #EDEDED",
"% 	c #EDEDEE",
"& 	c #EDEEED",
"* 	c #EEEDED",
"= 	c #EEEDEE",
"- 	c #ECEDED",
"; 	c #ECECED",
"> 	c #EDEDEC",
", 	c #EDECED",
"' 	c #E5DCBD",
") 	c #DFCE94",
"! 	c #DBC577",
"~ 	c #D8BF66",
"{ 	c #ECECEC",
"] 	c #EDECEC",
"^ 	c #E9E4D5",
"/ 	c #DECD93",
"( 	c #D6BD64",
"_ 	c #D4BA5D",
": 	c #D2B85C",
"< 	c #D1B65A",
"[ 	c #E8E4D6",
"} 	c #EBEBEB",
"| 	c #ECEBEB",
"1 	c #E7E3D4",
"2 	c #DCC987",
"3 	c #D4BB5E",
"4 	c #CFB863",
"5 	c #C8B67B",
"6 	c #C5BC9B",
"7 	c #C8C5BA",
"8 	c #C5BB9B",
"9 	c #CFB862",
"0 	c #E8E4D4",
"a 	c #EBEBEC",
"b 	c #EAEAEB",
"c 	c #EAEBEA",
"d 	c #EBEAEA",
"e 	c #DECC92",
"f 	c #CEB86B",
"g 	c #C5BB97",
"h 	c #CFCFCF",
"i 	c #DDCD92",
"j 	c #EBEAEB",
"k 	c #E9EAEA",
"l 	c #EAEAE9",
"m 	c #E9E9EA",
"n 	c #E2D9BB",
"o 	c #D5BD63",
"p 	c #D0B762",
"q 	c #C7BC98",
"r 	c #D2D2D2",
"s 	c #CFB762",
"t 	c #D6BD63",
"u 	c #E2D9BA",
"v 	c #E9E9E9",
"w 	c #E9E8E8",
"x 	c #E9E8E9",
"y 	c #E8E8E8",
"z 	c #DCCC91",
"A 	c #D3B95C",
"B 	c #C9B87C",
"C 	c #D6D6D6",
"D 	c #E8E9E9",
"E 	c #E7E8E7",
"F 	c #E8E7E7",
"G 	c #E7E7E8",
"H 	c #D9C375",
"I 	c #D1B75B",
"J 	c #CCC3A3",
"K 	c #DBDBDB",
"L 	c #E7E7E7",
"M 	c #E6E7E6",
"N 	c #E6E6E6",
"O 	c #D0B558",
"P 	c #DAD6CC",
"Q 	c #E0E0E0",
"R 	c #E5E5E5",
"S 	c #CFB558",
"T 	c #DEDCD0",
"U 	c #E4E3E4",
"V 	c #E3E4E4",
"W 	c #E4E4E3",
"X 	c #D8C174",
"Y 	c #D0B65A",
"Z 	c #D4CBAA",
"` 	c #E4E4E4",
" .	c #E3E3E3",
"..	c #DAC98E",
"+.	c #D2B75B",
"@.	c #CEBC81",
"#.	c #F0F0F0",
"$.	c #D2B85B",
"%.	c #E2E2E2",
"&.	c #E1E1E2",
"*.	c #E1E2E2",
"=.	c #E1E2E1",
"-.	c #DDD4B5",
";.	c #D4BB61",
">.	c #CFB661",
",.	c #D6CCA9",
"'.	c #F5F5F5",
").	c #CFB662",
"!.	c #D4BA61",
"~.	c #E2E2E1",
"{.	c #E2E1E2",
"].	c #E1E1E1",
"^.	c #E0E0E1",
"/.	c #E0E1E1",
"(.	c #D8C88D",
"_.	c #CEB96C",
":.	c #D9CEAB",
"<.	c #F9F9F9",
"[.	c #CEB86C",
"}.	c #D8C78D",
"|.	c #E0E1E0",
"1.	c #E0E0DF",
"2.	c #DFDFE0",
"3.	c #DED9CA",
"4.	c #D7C482",
"5.	c #D0BF83",
"6.	c #DCD3B3",
"7.	c #F0EEE2",
"8.	c #DDD9CA",
"9.	c #E0DFDF",
"0.	c #DFE0E0",
"a.	c #DFDFDF",
"b.	c #DFDEDE",
"c.	c #DEDFDF",
"d.	c #DFDEDF",
"e.	c #DDD8C9",
"f.	c #D7C68C",
"g.	c #D3BA60",
"h.	c #D1B75A",
"i.	c #CFB559",
"j.	c #CEB456",
"k.	c #CEB357",
"l.	c #D7C78C",
"m.	c #DDD9C9",
"n.	c #DEDEDF",
"o.	c #DEDEDE",
"p.	c #DEDEDD",
"q.	c #DDDEDE",
"r.	c #DEDDDE",
"s.	c #DAD1B1",
"t.	c #D5BF72",
"u.	c #D4BB62",
"v.	c #DAD1B2",
"w.	c #DDDEDD",
"x.	c #DDDDDD",
"y.	c #DEDDDD",
"z.	c #DDDDDE",
"A.	c #DCDCDD",
"B.	c #DCDDDD",
"C.	c #DDDCDD",
"D.	c #DCDDDC",
"E.	c #DDDCDC",
"F.	c #DDDDDC",
"G.	c #DCDCDC",
"H.	c #DCDBDC",
". . . . . . . . . . . . . . . . . . . . . . ",
"+ + + + + + + + + + + + + + + + + + + + + + ",
"@ # $ + % % % & & & * % = @ @ % & $ $ # $ # ",
"- $ ; $ > , $ ' ) ! ~ ~ ! ) ' $ $ $ $ > , $ ",
"{ { ] { { ^ / ( _ : < < : _ ( / [ { { { { ; ",
"} } } | 1 2 3 4 5 6 7 7 8 5 9 3 2 0 } a } } ",
"b c b d e 3 f g h h h h h h g f 3 i b j d b ",
"k l m n o p q r r r r r r r r q s t u v v m ",
"w x y z A B C C C C C C C C C C B A z y x D ",
"E F G H I J K K K K K K K K K K J I H F L L ",
"M N M ( O P Q Q Q Q Q Q Q Q Q Q P O ( N N N ",
"R R R ( S T N N N N N N N N N N T S ( R R R ",
"U V W X Y Z } } } } } } } } } } Z Y X V ` ` ",
" . . ...+.@.#.#.#.#.#.#.#.#.#.#.@.$... . .%.",
"&.*.=.-.;.>.,.'.'.'.'.'.'.'.'.,.).!.-.~.{.~.",
"].^./.^.(.$._.:.<.<.<.<.<.<.:.[.$.}.].^.|.].",
"Q 1.2.Q 3.4.$.>.5.6.7.7.6.5.>.$.4.8.Q Q 9.0.",
"a.b.c.a.d.e.f.g.h.i.j.k.i.h.g.l.m.a.c.n.a.c.",
"o.o.p.q.o.o.r.s.l.t.u.u.t.l.v.o.o.w.r.o.o.o.",
"w.x.x.x.y.x.x.x.y.x.w.x.x.q.x.x.x.z.y.y.x.w.",
"A.B.C.D.E.x.C.B.A.A.x.E.E.B.F.F.C.F.F.C.G.G.",
"G.G.H.G.G.G.G.G.G.G.G.G.G.G.G.G.G.G.G.G.G.G."};
