/* XPM */
static char * hide_prelight_xpm[] = {
"22 22 184 2",
"  	c None",
". 	c #FFFFFF",
"+ 	c #EEEEEE",
"@ 	c #EEEEED",
"# 	c #EDEEEE",
"$ 	c #EDEDED",
"% 	c #EDEDEE",
"& 	c #EDEEED",
"* 	c #EEEDED",
"= 	c #EEEDEE",
"- 	c #ECEDED",
"; 	c #ECECED",
"> 	c #EDEDEC",
", 	c #EDECED",
"' 	c #E9E4D3",
") 	c #E5DBB9",
"! 	c #E2D4A4",
"~ 	c #DFCE95",
"{ 	c #DFCF95",
"] 	c #E2D4A3",
"^ 	c #E5DAB9",
"/ 	c #ECECEC",
"( 	c #EDECEC",
"_ 	c #EBE8E0",
": 	c #E3D9B8",
"< 	c #DCCB91",
"[ 	c #D7C688",
"} 	c #D4C284",
"| 	c #D1C082",
"1 	c #D4C285",
"2 	c #EAE8E1",
"3 	c #EBEBEB",
"4 	c #ECEBEB",
"5 	c #E9E7DF",
"6 	c #E2D6AE",
"7 	c #D9C789",
"8 	c #D2C38C",
"9 	c #D5CAA7",
"0 	c #E2DDCC",
"a 	c #F5F4EE",
"b 	c #D5CAA8",
"c 	c #D2C28C",
"d 	c #D9C889",
"e 	c #E1D6AE",
"f 	c #EAE8DF",
"g 	c #EBEBEC",
"h 	c #EAEAEB",
"i 	c #EAEBEA",
"j 	c #EBEAEA",
"k 	c #E2D8B7",
"l 	c #D2C494",
"m 	c #DED9C5",
"n 	c #FEFEFE",
"o 	c #D2C495",
"p 	c #D8C789",
"q 	c #E2D9B6",
"r 	c #EBEAEB",
"s 	c #E9EAEA",
"t 	c #EAEAE9",
"u 	c #E9E9EA",
"v 	c #E5E0D0",
"w 	c #DACA8F",
"x 	c #D1C28B",
"y 	c #DED8C4",
"z 	c #FDFDFD",
"A 	c #DED8C5",
"B 	c #D1C18B",
"C 	c #DBCA8F",
"D 	c #E9E9E9",
"E 	c #E9E8E8",
"F 	c #E9E8E9",
"G 	c #E8E8E8",
"H 	c #E1D8B5",
"I 	c #D6C486",
"J 	c #D2C8A6",
"K 	c #FBFBFB",
"L 	c #D6C586",
"M 	c #E8E9E9",
"N 	c #E7E8E7",
"O 	c #E8E7E7",
"P 	c #E7E7E8",
"Q 	c #DED0A0",
"R 	c #D2C082",
"S 	c #DED9C8",
"T 	c #F9F9F9",
"U 	c #D2C083",
"V 	c #DED1A0",
"W 	c #E7E7E7",
"X 	c #E6E7E6",
"Y 	c #E6E6E6",
"Z 	c #CFBD7F",
"` 	c #EEECE7",
" .	c #F7F7F7",
"..	c #EEECE6",
"+.	c #E5E5E5",
"@.	c #DBCB91",
"#.	c #CEBC7F",
"$.	c #ECEAE5",
"%.	c #F5F5F5",
"&.	c #E4E3E4",
"*.	c #E3E4E4",
"=.	c #E4E4E3",
"-.	c #DCCE9E",
";.	c #D0BE81",
">.	c #DAD5C3",
",.	c #F3F3F3",
"'.	c #D9D5C3",
").	c #E4E4E4",
"!.	c #E3E3E3",
"~.	c #DDD4B1",
"{.	c #D3C183",
"].	c #CDC3A1",
"^.	c #F1F1F1",
"/.	c #CDC4A1",
"(.	c #D3C284",
"_.	c #DDD3B1",
":.	c #E2E2E2",
"<.	c #E1E1E2",
"[.	c #E1E2E2",
"}.	c #E1E2E1",
"|.	c #DFDAC9",
"1.	c #D7C68B",
"2.	c #CDBE87",
"3.	c #D4CFBB",
"4.	c #EFEFEF",
"5.	c #CDBD87",
"6.	c #E2E2E1",
"7.	c #E2E1E2",
"8.	c #E1E1E1",
"9.	c #E0E0E1",
"0.	c #E0E1E1",
"a.	c #DBD1B0",
"b.	c #CCBE8E",
"c.	c #D3CDBA",
"d.	c #E0E1E0",
"e.	c #E0E0E0",
"f.	c #E0E0DF",
"g.	c #DFDFE0",
"h.	c #DFDCD5",
"i.	c #DACFA7",
"j.	c #CBBC85",
"k.	c #CBC09E",
"l.	c #D5D0BE",
"m.	c #E4E2DE",
"n.	c #CBBC86",
"o.	c #D4C184",
"p.	c #DEDCD4",
"q.	c #E0DFDF",
"r.	c #DFE0E0",
"s.	c #DFDFDF",
"t.	c #DFDEDE",
"u.	c #DEDFDF",
"v.	c #DFDEDF",
"w.	c #DEDAD3",
"x.	c #D9CFAE",
"y.	c #D5C589",
"z.	c #D1BF82",
"A.	c #CCBA7B",
"B.	c #CBB97C",
"C.	c #CEBC7E",
"D.	c #D5C58A",
"E.	c #DAD0AE",
"F.	c #DEDBD3",
"G.	c #DEDEDF",
"H.	c #DEDEDE",
"I.	c #DEDEDD",
"J.	c #DDDEDE",
"K.	c #DEDDDE",
"L.	c #DCD7C5",
"M.	c #D8CB9A",
"N.	c #D7C78D",
"O.	c #DCD7C6",
"P.	c #DDDEDD",
"Q.	c #DDDDDD",
"R.	c #DEDDDD",
"S.	c #DDDDDE",
"T.	c #DCDCDD",
"U.	c #DCDDDD",
"V.	c #DDDCDD",
"W.	c #DCDDDC",
"X.	c #DDDCDC",
"Y.	c #DDDDDC",
"Z.	c #DCDCDC",
"`.	c #DCDBDC",
". . . . . . . . . . . . . . . . . . . . . . ",
"+ + + + + + + + + + + + + + + + + + + + + + ",
"@ # $ + % % % & & & * % = @ @ % & $ $ # $ # ",
"- $ ; $ > , $ ' ) ! ~ { ] ^ ' $ $ $ $ > , $ ",
"/ / ( / / _ : < [ } | | 1 [ < : 2 / / / / ; ",
"3 3 3 4 5 6 7 8 9 0 a a 0 b c d e f 3 g 3 3 ",
"h i h j k 7 l m n n n n n n m o p q h r j h ",
"s t u v w x y z z z z z z z z A B C v D D u ",
"E F G H I J K K K K K K K K K K J L H G F M ",
"N O P Q R S T T T T T T T T T T S U V O W W ",
"X Y X < Z `  . . . . . . . . . ...Z < Y Y Y ",
"+.+.+.@.#.$.%.%.%.%.%.%.%.%.%.%.$.#.@.+.+.+.",
"&.*.=.-.;.>.,.,.,.,.,.,.,.,.,.,.'.;.-.*.).).",
"!.!.!.~.{.].^.^.^.^.^.^.^.^.^.^./.(._.!.!.:.",
"<.[.}.|.1.2.3.4.4.4.4.4.4.4.4.3.5.1.|.6.7.6.",
"8.9.0.9.a.1 b.c.$ $ $ $ $ $ c.b.} a.8.9.d.8.",
"e.f.g.e.h.i.} j.k.l.m.m.l.k.n.o.i.p.e.e.q.r.",
"s.t.u.s.v.w.x.y.z.#.A.B.C.| D.E.F.s.u.G.s.u.",
"H.H.I.J.H.H.K.L.E.M.N.N.M.E.O.H.H.P.K.H.H.H.",
"P.Q.Q.Q.R.Q.Q.Q.R.Q.P.Q.Q.J.Q.Q.Q.S.R.R.Q.P.",
"T.U.V.W.X.Q.V.U.T.T.Q.X.X.U.Y.Y.V.Y.Y.V.Z.Z.",
"Z.Z.`.Z.Z.Z.Z.Z.Z.Z.Z.Z.Z.Z.Z.Z.Z.Z.Z.Z.Z.Z."};
