/* XPM */
static char * hide_active_xpm[] = {
"22 22 137 2",
"  	c None",
". 	c #FFFFFF",
"+ 	c #EEEEEE",
"@ 	c #EEEEED",
"# 	c #EDEEEE",
"$ 	c #EDEDED",
"% 	c #EDEDEE",
"& 	c #EDEEED",
"* 	c #EEEDED",
"= 	c #EEEDEE",
"- 	c #ECEDED",
"; 	c #ECECED",
"> 	c #EDEDEC",
", 	c #EDECED",
"' 	c #ECECEC",
") 	c #EDECEC",
"! 	c #EBEBEB",
"~ 	c #E6E6E7",
"{ 	c #DFDFDF",
"] 	c #D6D6D6",
"^ 	c #D2D2D2",
"/ 	c #D6D6D7",
"( 	c #ECEBEB",
"_ 	c #EAE9E9",
": 	c #E0E0E0",
"< 	c #D3D4D4",
"[ 	c #E5E5E5",
"} 	c #F7F7F7",
"| 	c #D4D3D3",
"1 	c #E0E1E0",
"2 	c #E9E9E9",
"3 	c #ECECEB",
"4 	c #EBEBEC",
"5 	c #EAEAEB",
"6 	c #EAEBEA",
"7 	c #EBEAEA",
"8 	c #EAE9EA",
"9 	c #D3D2D2",
"0 	c #E1E1E1",
"a 	c #FEFEFE",
"b 	c #D3D3D3",
"c 	c #DFE0E0",
"d 	c #E9EAE9",
"e 	c #EBEAEB",
"f 	c #E9EAEA",
"g 	c #EAEAE9",
"h 	c #E9E9EA",
"i 	c #E3E3E4",
"j 	c #D2D2D1",
"k 	c #FDFDFD",
"l 	c #D1D1D1",
"m 	c #E4E3E4",
"n 	c #E9E8E8",
"o 	c #E9E8E9",
"p 	c #E8E8E8",
"q 	c #E8E9E8",
"r 	c #DBDBDB",
"s 	c #FBFBFB",
"t 	c #DBDCDB",
"u 	c #E8E9E9",
"v 	c #E7E8E7",
"w 	c #E8E7E7",
"x 	c #E7E7E8",
"y 	c #E7E7E7",
"z 	c #F9F9F9",
"A 	c #D2D2D3",
"B 	c #E8E8E7",
"C 	c #E6E7E6",
"D 	c #E6E6E6",
"E 	c #CDCCCC",
"F 	c #EFEFEF",
"G 	c #CCCCCC",
"H 	c #CBCBCB",
"I 	c #F5F5F5",
"J 	c #E3E4E4",
"K 	c #E4E4E3",
"L 	c #E4E4E4",
"M 	c #CFCFCF",
"N 	c #F3F3F3",
"O 	c #DADBDA",
"P 	c #E3E3E3",
"Q 	c #D6D5D5",
"R 	c #CCCBCC",
"S 	c #F1F1F1",
"T 	c #E3E2E3",
"U 	c #E2E2E2",
"V 	c #E1E1E2",
"W 	c #E1E2E2",
"X 	c #E1E2E1",
"Y 	c #E2E1E2",
"Z 	c #DCDCDC",
"` 	c #CACAC9",
" .	c #D5D5D5",
"..	c #C9C9CA",
"+.	c #DCDBDB",
"@.	c #E2E2E1",
"#.	c #E0E0E1",
"$.	c #E0E1E1",
"%.	c #C9C9C9",
"&.	c #C9C8C8",
"*.	c #D6D7D6",
"=.	c #E0DFE0",
"-.	c #E0E0DF",
";.	c #DFDFE0",
">.	c #DEDEDE",
",.	c #D6D6D5",
"'.	c #C7C7C7",
").	c #C8C8C8",
"!.	c #C7C8C8",
"~.	c #D6D5D6",
"{.	c #DFE0DF",
"].	c #E0DFDF",
"^.	c #DFDEDE",
"/.	c #DEDFDF",
"(.	c #DFDEDF",
"_.	c #DDDDDE",
":.	c #D9D9D8",
"<.	c #D2D1D2",
"[.	c #CAC9CA",
"}.	c #C6C6C5",
"|.	c #C5C5C6",
"1.	c #D9D9D9",
"2.	c #DFDFDE",
"3.	c #DEDEDF",
"4.	c #DEDEDD",
"5.	c #DDDEDE",
"6.	c #DEDDDE",
"7.	c #DDDEDD",
"8.	c #DDDDDD",
"9.	c #DEDDDD",
"0.	c #DCDCDD",
"a.	c #DCDDDD",
"b.	c #DDDCDD",
"c.	c #DCDDDC",
"d.	c #DDDCDC",
"e.	c #DDDDDC",
"f.	c #DCDBDC",
". . . . . . . . . . . . . . . . . . . . . . ",
"+ + + + + + + + + + + + + + + + + + + + + + ",
"@ # $ + % % % & & & * % = @ @ % & $ $ # $ # ",
"- $ ; $ > , $ $ $ $ ; - > , $ $ $ $ $ > , $ ",
"' ' ) ' ' ) ! ~ { ] ^ ^ / { ~ ! ; ' ' ' ' ; ",
"! ! ! ( ! _ : < ] [ } } [ ] | 1 2 3 ! 4 ! ! ",
"5 6 5 7 8 : 9 0 a a a a a a 0 b c d 5 e 7 5 ",
"f g h h i j : k k k k k k k k : l m 2 2 2 h ",
"n o p q r b s s s s s s s s s s b t q p o u ",
"v w x y 9 : z z z z z z z z z z : A B w y y ",
"C D C D E F } } } } } } } } } } F G D D D D ",
"[ [ [ [ H $ I I I I I I I I I I $ H [ [ [ [ ",
"m J K L M r N N N N N N N N N N O M m J L L ",
"P P P P Q R S S S S S S S S S S G ] T P P U ",
"V W X Y Z `  .F F F F F F F F  ...+.Y @.Y @.",
"0 #.$.#.: / %.b $ $ $ $ $ $ b &.*.=.0 #.1 0 ",
": -.;.: : >.,.'.). .[ [  .).!.~.>.{.: : ].c ",
"{ ^./.{ (.^._.:.<.[.}.|.` ^ 1.>.2.{ /.3.{ /.",
">.>.4.5.>.>.6.4.>.>.>.>.5.>.>.>.>.7.6.>.>.>.",
"7.8.8.8.9.8.8.8.9.8.7.8.8.5.8.8.8._.9.9.8.7.",
"0.a.b.c.d.8.b.a.0.0.8.d.d.a.e.e.b.e.e.b.Z Z ",
"Z Z f.Z Z Z Z Z Z Z Z Z Z Z Z Z Z Z Z Z Z Z "};
