/* XPM */
static char * maximize_prelight_xpm[] = {
"22 22 178 2",
"  	c None",
". 	c #FFFFFF",
"+ 	c #EEEEEE",
"@ 	c #EEEEED",
"# 	c #EDEEEE",
"$ 	c #EDEDED",
"% 	c #EDEDEE",
"& 	c #EDEEED",
"* 	c #EEEDED",
"= 	c #EEEDEE",
"- 	c #ECEDED",
"; 	c #ECECED",
"> 	c #EDEDEC",
", 	c #EDECED",
"' 	c #D7E9D3",
") 	c #C1E5B9",
"! 	c #AFE2A4",
"~ 	c #A2DF95",
"{ 	c #AFE2A3",
"] 	c #C1E4B9",
"^ 	c #ECECEC",
"/ 	c #EDECEC",
"( 	c #E3EAE0",
"_ 	c #C0E3B8",
": 	c #9EDC91",
"< 	c #97D788",
"[ 	c #93D484",
"} 	c #90D182",
"| 	c #93D485",
"1 	c #E2EAE1",
"2 	c #EBEBEB",
"3 	c #ECEBEB",
"4 	c #E1E9DF",
"5 	c #B8E1AE",
"6 	c #98D989",
"7 	c #99D28C",
"8 	c #B0D5A7",
"9 	c #D0E2CC",
"0 	c #EFF5EE",
"a 	c #AFD5A8",
"b 	c #E2EADF",
"c 	c #EBEBEC",
"d 	c #EAEAEB",
"e 	c #EAEBEA",
"f 	c #EBEAEA",
"g 	c #BFE2B7",
"h 	c #A0D294",
"i 	c #CADEC5",
"j 	c #FEFEFE",
"k 	c #A0D295",
"l 	c #BEE2B6",
"m 	c #EBEAEB",
"n 	c #E9EAEA",
"o 	c #EAEAE9",
"p 	c #E9E9EA",
"q 	c #D4E5D0",
"r 	c #9DDA8F",
"s 	c #98D18B",
"t 	c #C9DEC4",
"u 	c #FDFDFD",
"v 	c #E9E9E9",
"w 	c #E9E8E8",
"x 	c #E9E8E9",
"y 	c #E8E8E8",
"z 	c #BDE2B5",
"A 	c #95D686",
"B 	c #AED2A6",
"C 	c #FBFBFB",
"D 	c #AED3A6",
"E 	c #E8E9E9",
"F 	c #E7E8E7",
"G 	c #E8E7E7",
"H 	c #E7E7E8",
"I 	c #ABDEA0",
"J 	c #91D282",
"K 	c #CCDEC8",
"L 	c #F9F9F9",
"M 	c #91D283",
"N 	c #ACDEA0",
"O 	c #E7E7E7",
"P 	c #E6E7E6",
"Q 	c #E6E6E6",
"R 	c #9FDC91",
"S 	c #8ECF7F",
"T 	c #E7EEE7",
"U 	c #F7F7F7",
"V 	c #E7EEE6",
"W 	c #E5E5E5",
"X 	c #9EDB91",
"Y 	c #8DCE7F",
"Z 	c #E6ECE5",
"` 	c #F5F5F5",
" .	c #E4E3E4",
"..	c #E3E4E4",
"+.	c #E4E4E3",
"@.	c #A9DC9E",
"#.	c #90D081",
"$.	c #C7DAC3",
"%.	c #F3F3F3",
"&.	c #A9DB9E",
"*.	c #E4E4E4",
"=.	c #E3E3E3",
"-.	c #BADDB1",
";.	c #93D383",
">.	c #A9CDA1",
",.	c #F1F1F1",
"'.	c #93D384",
").	c #E2E2E2",
"!.	c #E1E1E2",
"~.	c #E1E2E2",
"{.	c #E1E2E1",
"].	c #CDDEC9",
"^.	c #99D78B",
"/.	c #94CD87",
"(.	c #C0D4BB",
"_.	c #EFEFEF",
":.	c #93CD87",
"<.	c #99D68B",
"[.	c #E2E2E1",
"}.	c #E2E1E2",
"|.	c #E1E1E1",
"1.	c #E0E0E1",
"2.	c #E0E1E1",
"3.	c #B8DBB0",
"4.	c #9ACC8E",
"5.	c #BED3BA",
"6.	c #9ACB8E",
"7.	c #B8DAB0",
"8.	c #E0E1E0",
"9.	c #E0E0E0",
"0.	c #E0E0DF",
"a.	c #DFDFE0",
"b.	c #D6DFD5",
"c.	c #B0DAA7",
"d.	c #92CB85",
"e.	c #A7CB9E",
"f.	c #C2D5BE",
"g.	c #DFE4DE",
"h.	c #92CC86",
"i.	c #D6DFD4",
"j.	c #E0DFDF",
"k.	c #DFE0E0",
"l.	c #DFDFDF",
"m.	c #DFDEDE",
"n.	c #DEDFDF",
"o.	c #DFDEDF",
"p.	c #D6DDD3",
"q.	c #B6D9AE",
"r.	c #97D589",
"s.	c #91D182",
"t.	c #8ACC7B",
"u.	c #8ACB7C",
"v.	c #8DCE7E",
"w.	c #97D58A",
"x.	c #B6DAAE",
"y.	c #D6DED3",
"z.	c #DEDEDF",
"A.	c #DEDEDE",
"B.	c #DEDEDD",
"C.	c #DDDEDE",
"D.	c #DEDDDE",
"E.	c #CADCC5",
"F.	c #A6D89A",
"G.	c #9BD78D",
"H.	c #A5D89A",
"I.	c #CADCC6",
"J.	c #DDDEDD",
"K.	c #DDDDDD",
"L.	c #DEDDDD",
"M.	c #DDDDDE",
"N.	c #DCDCDD",
"O.	c #DCDDDD",
"P.	c #DDDCDD",
"Q.	c #DCDDDC",
"R.	c #DDDCDC",
"S.	c #DDDDDC",
"T.	c #DCDCDC",
"U.	c #DCDBDC",
". . . . . . . . . . . . . . . . . . . . . . ",
"+ + + + + + + + + + + + + + + + + + + + + + ",
"@ # $ + % % % & & & * % = @ @ % & $ $ # $ # ",
"- $ ; $ > , $ ' ) ! ~ ~ { ] ' $ $ $ $ > , $ ",
"^ ^ / ^ ^ ( _ : < [ } } | < : _ 1 ^ ^ ^ ^ ; ",
"2 2 2 3 4 5 6 7 8 9 0 0 9 a 7 6 5 b 2 c 2 2 ",
"d e d f g 6 h i j j j j j j i k 6 l d m f d ",
"n o p q r s t u u u u u u u u i s r q v v p ",
"w x y z A B C C C C C C C C C C D A z y x E ",
"F G H I J K L L L L L L L L L L K M N G O O ",
"P Q P R S T U U U U U U U U U U V S R Q Q Q ",
"W W W X Y Z ` ` ` ` ` ` ` ` ` ` Z Y X W W W ",
" ...+.@.#.$.%.%.%.%.%.%.%.%.%.%.$.#.&...*.*.",
"=.=.=.-.;.>.,.,.,.,.,.,.,.,.,.,.>.'.-.=.=.).",
"!.~.{.].^./.(._._._._._._._._.(.:.<.].[.}.[.",
"|.1.2.1.3.| 4.5.$ $ $ $ $ $ 5.6.[ 7.|.1.8.|.",
"9.0.a.9.b.c.[ d.e.f.g.g.f.e.h.'.c.i.9.9.j.k.",
"l.m.n.l.o.p.q.r.s.Y t.u.v.s.w.x.y.l.n.z.l.n.",
"A.A.B.C.A.A.D.E.x.F.G.G.H.x.I.A.A.J.D.A.A.A.",
"J.K.K.K.L.K.K.K.L.K.J.K.K.C.K.K.K.M.L.L.K.J.",
"N.O.P.Q.R.K.P.O.N.N.K.R.R.O.S.S.P.S.S.P.T.T.",
"T.T.U.T.T.T.T.T.T.T.T.T.T.T.T.T.T.T.T.T.T.T."};
