/* XPM */
static char * maximize_pressed_xpm[] = {
"22 22 168 2",
"  	c None",
". 	c #FFFFFF",
"+ 	c #EEEEEE",
"@ 	c #EEEEED",
"# 	c #EDEEEE",
"$ 	c #EDEDED",
"% 	c #EDEDEE",
"& 	c #EDEEED",
"* 	c #EEEDED",
"= 	c #EEEDEE",
"- 	c #ECEDED",
"; 	c #ECECED",
"> 	c #EDEDEC",
", 	c #EDECED",
"' 	c #C4E5BD",
") 	c #A1DF94",
"! 	c #89DB77",
"~ 	c #7BD866",
"{ 	c #ECECEC",
"] 	c #EDECEC",
"^ 	c #D9E8D5",
"/ 	c #A1DE93",
"( 	c #78D664",
"_ 	c #73D45D",
": 	c #71D25C",
"< 	c #6FD15A",
"[ 	c #D9E8D6",
"} 	c #EBEBEB",
"| 	c #ECEBEB",
"1 	c #D8E7D4",
"2 	c #97DC87",
"3 	c #74D45E",
"4 	c #76CF63",
"5 	c #89C87B",
"6 	c #A3C59B",
"7 	c #BDC8BA",
"8 	c #76CF62",
"9 	c #74D55E",
"0 	c #D9E8D4",
"a 	c #EBEBEC",
"b 	c #EAEAEB",
"c 	c #EAEBEA",
"d 	c #EBEAEA",
"e 	c #A0DD92",
"f 	c #7DCE6B",
"g 	c #A0C597",
"h 	c #CFCFCF",
"i 	c #A0DE92",
"j 	c #EBEAEB",
"k 	c #E9EAEA",
"l 	c #EAEAE9",
"m 	c #E9E9EA",
"n 	c #C2E2BB",
"o 	c #78D563",
"p 	c #76D062",
"q 	c #A1C798",
"r 	c #D2D2D2",
"s 	c #A2C798",
"t 	c #C2E2BA",
"u 	c #E9E9E9",
"v 	c #E9E8E8",
"w 	c #E9E8E9",
"x 	c #E8E8E8",
"y 	c #9FDD91",
"z 	c #73D35C",
"A 	c #8AC97C",
"B 	c #D6D6D6",
"C 	c #E8E9E9",
"D 	c #E7E8E7",
"E 	c #E8E7E7",
"F 	c #E7E7E8",
"G 	c #87D975",
"H 	c #71D15B",
"I 	c #AACCA3",
"J 	c #DBDBDB",
"K 	c #70D15B",
"L 	c #88D975",
"M 	c #E7E7E7",
"N 	c #E6E7E6",
"O 	c #E6E6E6",
"P 	c #79D664",
"Q 	c #6ED058",
"R 	c #CFDACC",
"S 	c #E0E0E0",
"T 	c #E5E5E5",
"U 	c #6ECF58",
"V 	c #D3DED0",
"W 	c #E4E3E4",
"X 	c #E3E4E4",
"Y 	c #E4E4E3",
"Z 	c #86D874",
"` 	c #70D05A",
" .	c #B2D4AA",
"..	c #86D774",
"+.	c #E4E4E4",
"@.	c #E3E3E3",
"#.	c #9CDA8E",
"$.	c #8FCD81",
"%.	c #F0F0F0",
"&.	c #8FCE81",
"*.	c #71D25B",
"=.	c #9CD98E",
"-.	c #E2E2E2",
";.	c #E1E1E2",
">.	c #E1E2E2",
",.	c #E1E2E1",
"'.	c #BCDCB5",
").	c #76D461",
"!.	c #75CF61",
"~.	c #B1D6A9",
"{.	c #F5F5F5",
"].	c #75CF62",
"^.	c #76D361",
"/.	c #E2E2E1",
"(.	c #E2E1E2",
"_.	c #E1E1E1",
":.	c #E0E0E1",
"<.	c #E0E1E1",
"[.	c #9BD88D",
"}.	c #7ECE6C",
"|.	c #B3D9AB",
"1.	c #F9F9F9",
"2.	c #E0E1E0",
"3.	c #E0E0DF",
"4.	c #DFDFE0",
"5.	c #CEDECA",
"6.	c #92D782",
"7.	c #76CF61",
"8.	c #91D083",
"9.	c #BBDCB3",
"0.	c #E5F0E2",
"a.	c #CDDECA",
"b.	c #E0DFDF",
"c.	c #DFE0E0",
"d.	c #DFDFDF",
"e.	c #DFDEDE",
"f.	c #DEDFDF",
"g.	c #DFDEDF",
"h.	c #CDDCC9",
"i.	c #9AD78C",
"j.	c #75D360",
"k.	c #70D15A",
"l.	c #6ECF59",
"m.	c #6DCE56",
"n.	c #6CCE57",
"o.	c #CDDDC9",
"p.	c #DEDEDF",
"q.	c #DEDEDE",
"r.	c #DEDEDD",
"s.	c #DDDEDE",
"t.	c #DEDDDE",
"u.	c #B9DAB1",
"v.	c #84D572",
"w.	c #77D462",
"x.	c #83D572",
"y.	c #B9DAB2",
"z.	c #DDDEDD",
"A.	c #DDDDDD",
"B.	c #DEDDDD",
"C.	c #DDDDDE",
"D.	c #DCDCDD",
"E.	c #DCDDDD",
"F.	c #DDDCDD",
"G.	c #DCDDDC",
"H.	c #DDDCDC",
"I.	c #DDDDDC",
"J.	c #DCDCDC",
"K.	c #DCDBDC",
". . . . . . . . . . . . . . . . . . . . . . ",
"+ + + + + + + + + + + + + + + + + + + + + + ",
"@ # $ + % % % & & & * % = @ @ % & $ $ # $ # ",
"- $ ; $ > , $ ' ) ! ~ ~ ! ) ' $ $ $ $ > , $ ",
"{ { ] { { ^ / ( _ : < < : _ ( / [ { { { { ; ",
"} } } | 1 2 3 4 5 6 7 7 6 5 8 9 2 0 } a } } ",
"b c b d e 3 f g h h h h h h g f 3 i b j d b ",
"k l m n o p q r r r r r r r r s 8 o t u u m ",
"v w x y z A B B B B B B B B B B A z y x w C ",
"D E F G H I J J J J J J J J J J I K L E M M ",
"N O N P Q R S S S S S S S S S S R Q P O O O ",
"T T T P U V O O O O O O O O O O V U P T T T ",
"W X Y Z `  .} } } } } } } } } }  .` ..X +.+.",
"@.@.@.#.H $.%.%.%.%.%.%.%.%.%.%.&.*.=.@.@.-.",
";.>.,.'.).!.~.{.{.{.{.{.{.{.{.~.].^.'./.(./.",
"_.:.<.:.[.*.}.|.1.1.1.1.1.1.|.}.*.[._.:.2._.",
"S 3.4.S 5.6.*.7.8.9.0.0.9.8.7.*.6.a.S S b.c.",
"d.e.f.d.g.h.i.j.k.l.m.n.l.k.j.i.o.d.f.p.d.f.",
"q.q.r.s.q.q.t.u.i.v.w.w.x.i.y.q.q.z.t.q.q.q.",
"z.A.A.A.B.A.A.A.B.A.z.A.A.s.A.A.A.C.B.B.A.z.",
"D.E.F.G.H.A.F.E.D.D.A.H.H.E.I.I.F.I.I.F.J.J.",
"J.J.K.J.J.J.J.J.J.J.J.J.J.J.J.J.J.J.J.J.J.J."};
