/* XPM */
static char * maximize_inactive_xpm[] = {
"22 22 131 2",
"  	c None",
". 	c #FFFFFF",
"+ 	c #EEEEEE",
"@ 	c #EEEEED",
"# 	c #EDEEEE",
"$ 	c #EDEDED",
"% 	c #EDEDEE",
"& 	c #EDEEED",
"* 	c #EEEDED",
"= 	c #EEEDEE",
"- 	c #ECEDED",
"; 	c #ECECED",
"> 	c #EDEDEC",
", 	c #EDECED",
"' 	c #ECECEC",
") 	c #EDECEC",
"! 	c #EBEBEB",
"~ 	c #E9E9EA",
"{ 	c #E5E5E5",
"] 	c #E0E0E0",
"^ 	c #DFDFDF",
"/ 	c #E0E0E1",
"( 	c #ECEBEB",
"_ 	c #EBEAEA",
": 	c #E1E0E0",
"< 	c #E8E8E8",
"[ 	c #F1F1F1",
"} 	c #E5E6E5",
"| 	c #EAEAEA",
"1 	c #ECECEB",
"2 	c #EBEBEC",
"3 	c #EAEAEB",
"4 	c #EAEBEA",
"5 	c #EAE9EA",
"6 	c #DFDEDE",
"7 	c #F4F4F4",
"8 	c #E4E5E5",
"9 	c #E9EAE9",
"0 	c #EBEAEB",
"a 	c #E9EAEA",
"b 	c #EAEAE9",
"c 	c #E6E6E7",
"d 	c #DEDEDD",
"e 	c #E4E4E4",
"f 	c #F3F3F3",
"g 	c #E5E4E5",
"h 	c #DDDDDD",
"i 	c #E7E6E7",
"j 	c #E9E9E9",
"k 	c #E9E8E8",
"l 	c #E9E8E9",
"m 	c #E8E9E8",
"n 	c #E1E1E1",
"o 	c #F2F1F1",
"p 	c #F1F2F1",
"q 	c #F1F1F2",
"r 	c #F1F2F2",
"s 	c #DDDEDD",
"t 	c #E1E2E1",
"u 	c #E8E9E9",
"v 	c #E7E8E7",
"w 	c #E8E7E7",
"x 	c #E7E7E8",
"y 	c #E7E7E7",
"z 	c #DDDCDC",
"A 	c #E3E3E3",
"B 	c #F0F0F0",
"C 	c #DCDCDD",
"D 	c #E8E8E7",
"E 	c #E6E7E6",
"F 	c #E6E6E6",
"G 	c #DAD9D9",
"H 	c #EEEFEE",
"I 	c #EEEEEF",
"J 	c #D9D9D9",
"K 	c #D8D8D8",
"L 	c #E4E3E4",
"M 	c #E3E4E4",
"N 	c #E4E4E3",
"O 	c #DEDFDE",
"P 	c #DCDBDB",
"Q 	c #D7D6D7",
"R 	c #D7D7D7",
"S 	c #DCDCDC",
"T 	c #E3E2E3",
"U 	c #E2E2E2",
"V 	c #E1E1E2",
"W 	c #E1E2E2",
"X 	c #E2E1E2",
"Y 	c #D6D6D5",
"Z 	c #DBDBDB",
"` 	c #D5D5D6",
" .	c #E2E2E1",
"..	c #E0E1E1",
"+.	c #DADADB",
"@.	c #D4D4D4",
"#.	c #DADADA",
"$.	c #E6E7E7",
"%.	c #DADAD9",
"&.	c #DADBDA",
"*.	c #E0DFE0",
"=.	c #E0E1E0",
"-.	c #E0E0DF",
";.	c #DFDFE0",
">.	c #D3D3D3",
",.	c #D4D3D4",
"'.	c #D4D3D3",
").	c #D3D4D4",
"!.	c #DAD9DA",
"~.	c #DFE0DF",
"{.	c #E0DFDF",
"].	c #DFE0E0",
"^.	c #DEDFDF",
"/.	c #DFDEDF",
"(.	c #DDDDDE",
"_.	c #DCDCDB",
":.	c #D8D7D8",
"<.	c #D2D2D1",
"[.	c #D1D1D2",
"}.	c #D4D4D3",
"|.	c #DEDEDE",
"1.	c #DFDFDE",
"2.	c #DEDEDF",
"3.	c #DDDEDE",
"4.	c #DEDDDE",
"5.	c #DEDDDD",
"6.	c #DCDDDD",
"7.	c #DDDCDD",
"8.	c #DCDDDC",
"9.	c #DDDDDC",
"0.	c #DCDBDC",
". . . . . . . . . . . . . . . . . . . . . . ",
"+ + + + + + + + + + + + + + + + + + + + + + ",
"@ # $ + % % % & & & * % = @ @ % & $ $ # $ # ",
"- $ ; $ > , $ $ $ $ ; - > , $ $ $ $ $ > , $ ",
"' ' ) ' ' ) ! ~ { ] ^ ^ / { ~ ! ; ' ' ' ' ; ",
"! ! ! ( ! _ { ^ : < [ [ < / ^ } | 1 ! 2 ! ! ",
"3 4 3 _ 5 { 6 } 7 7 7 7 7 7 { ^ 8 9 3 0 _ 3 ",
"a b ~ ~ c d e f f f f f f f f g h i j j j ~ ",
"k l < m n h [ o p q [ [ q r q [ s t m < l u ",
"v w x y z A B B B B B B B B B B A C D w y y ",
"E F E F G 3 + + H I + H + + H + | J F F F F ",
"{ { { { K j $ $ $ $ $ $ $ $ $ $ j K { { { { ",
"L M N e J ^ ! ! ! ! ! ! ! ! ! ! O J L M e e ",
"A A A A P Q | b a | | | 9 a ~ b R S T A A U ",
"V W t X ^ Y Z < < < < < < < < Z ` 6 X  .X  .",
"n / ../ ] +.@.#.c i c $.E $.%.@.&.*.n / =.n ",
"] -.;.] ] ^ %.>.,.#.U U #.'.).!.^ ~.] ] {.].",
"^ 6 ^.^ /.6 (._.:.,.<.[.}.K S |.1.^ ^.2.^ ^.",
"|.|.d 3.|.|.4.d |.|.|.|.3.|.|.|.|.s 4.|.|.|.",
"s h h h 5.h h h 5.h s h h 3.h h h (.5.5.h s ",
"C 6.7.8.z h 7.6.C C h z z 6.9.9.7.9.9.7.S S ",
"S S 0.S S S S S S S S S S S S S S S S S S S "};
