/* XPM */
static char * menu_inactive_xpm[] = {
"22 22 126 2",
"  	c None",
". 	c #FFFFFF",
"+ 	c #EEEEEE",
"@ 	c #EEEEED",
"# 	c #EDEEEE",
"$ 	c #EDEDED",
"% 	c #EDEDEE",
"& 	c #EDEEED",
"* 	c #EEEDED",
"= 	c #EEEDEE",
"- 	c #ECEDED",
"; 	c #ECECED",
"> 	c #EDEDEC",
", 	c #EDECED",
"' 	c #ECECEC",
") 	c #EDECEC",
"! 	c #EBEBEB",
"~ 	c #ECEBEB",
"{ 	c #EBECEC",
"] 	c #EBECEB",
"^ 	c #ECEBEC",
"/ 	c #EBEBEC",
"( 	c #ECECEB",
"_ 	c #EAEAEB",
": 	c #EAEBEA",
"< 	c #EBEAEA",
"[ 	c #EBEAEB",
"} 	c #EAEBEB",
"| 	c #EAEAEA",
"1 	c #E9EAEA",
"2 	c #EAEAE9",
"3 	c #E9E9EA",
"4 	c #E9E9E9",
"5 	c #E8E8E8",
"6 	c #E3E3E3",
"7 	c #DADADB",
"8 	c #D3D3D3",
"9 	c #DADADA",
"0 	c #E4E4E3",
"a 	c #E8E8E9",
"b 	c #EAE9EA",
"c 	c #E9E8E8",
"d 	c #E9E8E9",
"e 	c #E8E9E8",
"f 	c #E3E2E2",
"g 	c #D4D5D4",
"h 	c #D9D9D9",
"i 	c #EFEFEF",
"j 	c #D4D5D5",
"k 	c #E2E2E3",
"l 	c #E8E9E9",
"m 	c #E7E8E7",
"n 	c #E8E7E7",
"o 	c #E7E7E8",
"p 	c #E7E7E7",
"q 	c #D8D9D8",
"r 	c #D7D7D7",
"s 	c #FDFDFD",
"t 	c #E8E8E7",
"u 	c #E6E7E6",
"v 	c #E6E6E6",
"w 	c #E7E6E6",
"x 	c #E6E6E7",
"y 	c #D0D0D0",
"z 	c #F9F9F9",
"A 	c #D0D1D0",
"B 	c #E5E5E5",
"C 	c #CFCFCF",
"D 	c #F5F5F5",
"E 	c #E4E3E4",
"F 	c #E3E4E4",
"G 	c #E4E4E4",
"H 	c #D5D5D5",
"I 	c #F1F1F1",
"J 	c #E3E4E3",
"K 	c #E3E2E3",
"L 	c #DDDDDC",
"M 	c #CECECE",
"N 	c #DFDFDF",
"O 	c #CDCECD",
"P 	c #DCDCDD",
"Q 	c #E3E3E2",
"R 	c #E2E2E2",
"S 	c #E1E1E2",
"T 	c #E1E2E2",
"U 	c #E1E2E1",
"V 	c #E2E1E2",
"W 	c #E2E2E1",
"X 	c #E0E1E1",
"Y 	c #DBDBDC",
"Z 	c #D2D3D3",
"` 	c #CBCCCC",
" .	c #DBDBDB",
"..	c #E1E1E0",
"+.	c #E2E1E1",
"@.	c #E1E1E1",
"#.	c #E0E0E1",
"$.	c #E1E0E1",
"%.	c #E0E1E0",
"&.	c #E1E0E0",
"*.	c #E0E0E0",
"=.	c #E0E0DF",
"-.	c #DFDFE0",
";.	c #E0DFE0",
">.	c #DFE0E0",
",.	c #E0DFDF",
"'.	c #DFE0DF",
").	c #DFDEDE",
"!.	c #DEDFDF",
"~.	c #DFDEDF",
"{.	c #DEDEDF",
"].	c #DFDFDE",
"^.	c #DEDEDE",
"/.	c #DEDEDD",
"(.	c #DDDEDE",
"_.	c #DEDDDE",
":.	c #DDDEDD",
"<.	c #DDDDDD",
"[.	c #DEDDDD",
"}.	c #DDDDDE",
"|.	c #DCDDDD",
"1.	c #DDDCDD",
"2.	c #DCDDDC",
"3.	c #DDDCDC",
"4.	c #DCDCDC",
"5.	c #DCDBDC",
". . . . . . . . . . . . . . . . . . . . . . ",
"+ + + + + + + + + + + + + + + + + + + + + + ",
"@ # $ + % % % & & & * % = @ @ % & $ $ # $ # ",
"- $ ; $ > , $ $ $ $ ; - > , $ $ $ $ $ > , $ ",
"' ' ) ' ' ) ' ; ' ' ' ' ; ' ; ' ; ' ' ' ' ; ",
"! ! ! ~ ! ~ ! { ~ ] ! ^ ~ / ~ ] ! ( ! / ! ! ",
"_ : _ < [ ! < : : < } < : < | ! } : _ [ < _ ",
"1 2 3 3 3 2 4 5 6 7 8 8 9 0 a b 4 b 4 4 4 3 ",
"c d 5 e 5 5 5 f g h i i h j k 5 e e e 5 d l ",
"m n o p n p p q r s s s s r q p p o t n p p ",
"u v u v w x v y 4 z z z z 4 A v v v v v v v ",
"B B B B B B B C v D D D D v C B B B B B B B ",
"E F 0 G G G G H y I I I I y H G J G E F G G ",
"6 6 6 6 f K 6 L M M N N O M P Q 6 6 K 6 6 R ",
"S T U V R W T X Y Z ` ` Z  ...W S +.V W V W ",
"@.#.X #.@.#.@.@.#.$.#.X %.X ..&.%.$.@.#.%.@.",
"*.=.-.*.*.*.=.N ;.;.>.=.>.,.>.;.*.'.*.*.,.>.",
"N ).!.N ~.).{.].~.~.].{.].N N N ].N !.{.N !.",
"^.^./.(.^.^._./.^.^.^.^.(.^.^.^.^.:._.^.^.^.",
":.<.<.<.[.<.<.<.[.<.:.<.<.(.<.<.<.}.[.[.<.:.",
"P |.1.2.3.<.1.|.P P <.3.3.|.L L 1.L L 1.4.4.",
"4.4.5.4.4.4.4.4.4.4.4.4.4.4.4.4.4.4.4.4.4.4."};
