/* XPM */
static char * menu_prelight_xpm[] = {
"22 22 123 2",
"  	c None",
". 	c #FFFFFF",
"+ 	c #EEEEEE",
"@ 	c #EEEEED",
"# 	c #EDEEEE",
"$ 	c #EDEDED",
"% 	c #EDEDEE",
"& 	c #EDEEED",
"* 	c #EEEDED",
"= 	c #EEEDEE",
"- 	c #ECEDED",
"; 	c #ECECED",
"> 	c #EDEDEC",
", 	c #EDECED",
"' 	c #ECECEC",
") 	c #EDECEC",
"! 	c #EBEBEB",
"~ 	c #ECEBEB",
"{ 	c #EBECEC",
"] 	c #EBECEB",
"^ 	c #ECEBEC",
"/ 	c #EBEBEC",
"( 	c #ECECEB",
"_ 	c #EAEAEB",
": 	c #EAEBEA",
"< 	c #EBEAEA",
"[ 	c #EBEAEB",
"} 	c #EAEBEB",
"| 	c #EAEAEA",
"1 	c #E9EAEA",
"2 	c #EAEAE9",
"3 	c #E9E9EA",
"4 	c #E9E9E9",
"5 	c #E8E8E8",
"6 	c #E3E3E3",
"7 	c #DADADB",
"8 	c #D3D3D3",
"9 	c #DADADA",
"0 	c #E4E4E3",
"a 	c #E8E8E9",
"b 	c #EAE9EA",
"c 	c #E9E8E8",
"d 	c #E9E8E9",
"e 	c #E8E9E8",
"f 	c #E3E2E2",
"g 	c #D4D5D4",
"h 	c #D9D9D9",
"i 	c #EFEFEF",
"j 	c #D4D5D5",
"k 	c #E2E2E3",
"l 	c #E8E9E9",
"m 	c #E7E8E7",
"n 	c #E8E7E7",
"o 	c #E7E7E8",
"p 	c #E7E7E7",
"q 	c #D8D9D8",
"r 	c #D8D8D9",
"s 	c #E8E8E7",
"t 	c #E6E7E6",
"u 	c #E6E6E6",
"v 	c #E7E6E6",
"w 	c #E6E6E7",
"x 	c #D0D0D0",
"y 	c #D0D1D0",
"z 	c #E5E5E5",
"A 	c #CFCFCF",
"B 	c #E4E3E4",
"C 	c #E3E4E4",
"D 	c #E4E4E4",
"E 	c #D5D5D5",
"F 	c #D7D7D7",
"G 	c #E3E4E3",
"H 	c #E3E2E3",
"I 	c #DDDDDC",
"J 	c #CFD0D0",
"K 	c #D6D7D6",
"L 	c #DCDCDD",
"M 	c #E3E3E2",
"N 	c #E2E2E2",
"O 	c #E1E1E2",
"P 	c #E1E2E2",
"Q 	c #E1E2E1",
"R 	c #E2E1E2",
"S 	c #E2E2E1",
"T 	c #E0E1E1",
"U 	c #DBDBDC",
"V 	c #D2D3D3",
"W 	c #CBCCCC",
"X 	c #DBDBDB",
"Y 	c #E1E1E0",
"Z 	c #E2E1E1",
"` 	c #E1E1E1",
" .	c #E0E0E1",
"..	c #E1E0E1",
"+.	c #E0E1E0",
"@.	c #E1E0E0",
"#.	c #E0E0E0",
"$.	c #E0E0DF",
"%.	c #DFDFE0",
"&.	c #DFDFDF",
"*.	c #E0DFE0",
"=.	c #DFE0E0",
"-.	c #E0DFDF",
";.	c #DFE0DF",
">.	c #DFDEDE",
",.	c #DEDFDF",
"'.	c #DFDEDF",
").	c #DEDEDF",
"!.	c #DFDFDE",
"~.	c #DEDEDE",
"{.	c #DEDEDD",
"].	c #DDDEDE",
"^.	c #DEDDDE",
"/.	c #DDDEDD",
"(.	c #DDDDDD",
"_.	c #DEDDDD",
":.	c #DDDDDE",
"<.	c #DCDDDD",
"[.	c #DDDCDD",
"}.	c #DCDDDC",
"|.	c #DDDCDC",
"1.	c #DCDCDC",
"2.	c #DCDBDC",
". . . . . . . . . . . . . . . . . . . . . . ",
"+ + + + + + + + + + + + + + + + + + + + + + ",
"@ # $ + % % % & & & * % = @ @ % & $ $ # $ # ",
"- $ ; $ > , $ $ $ $ ; - > , $ $ $ $ $ > , $ ",
"' ' ) ' ' ) ' ; ' ' ' ' ; ' ; ' ; ' ' ' ' ; ",
"! ! ! ~ ! ~ ! { ~ ] ! ^ ~ / ~ ] ! ( ! / ! ! ",
"_ : _ < [ ! < : : < } < : < | ! } : _ [ < _ ",
"1 2 3 3 3 2 4 5 6 7 8 8 9 0 a b 4 b 4 4 4 3 ",
"c d 5 e 5 5 5 f g h i i h j k 5 e e e 5 d l ",
"m n o p n p p q h . . . . r q p p o s n p p ",
"t u t u v w u x + . . . . + y u u u u u u u ",
"z z z z z z z A + . . . . + A z z z z z z z ",
"B C 0 D D D D E F . . . . F E D G D B C D D ",
"6 6 6 6 f H 6 I J F + + K J L M 6 6 H 6 6 N ",
"O P Q R N S P T U V W W V X Y S O Z R S R S ",
"`  .T  .`  .` `  ... .T +.T Y @.+...`  .+.` ",
"#.$.%.#.#.#.$.&.*.*.=.$.=.-.=.*.#.;.#.#.-.=.",
"&.>.,.&.'.>.).!.'.'.!.).!.&.&.&.!.&.,.).&.,.",
"~.~.{.].~.~.^.{.~.~.~.~.].~.~.~.~./.^.~.~.~.",
"/.(.(.(._.(.(.(._.(./.(.(.].(.(.(.:._._.(./.",
"L <.[.}.|.(.[.<.L L (.|.|.<.I I [.I I [.1.1.",
"1.1.2.1.1.1.1.1.1.1.1.1.1.1.1.1.1.1.1.1.1.1."};
