/* XPM */
static char * title_1_inactive_xpm[] = {
"10 22 84 1",
" 	c None",
".	c #FEFEFD",
"+	c #EEEEEE",
"@	c #EEEEED",
"#	c #EDEEEE",
"$	c #EDEDED",
"%	c #EDEDEE",
"&	c #EDEEED",
"*	c #ECEDED",
"=	c #ECECED",
"-	c #EDEDEC",
";	c #EDECED",
">	c #ECECEC",
",	c #EDECEC",
"'	c #EBEBEB",
")	c #ECEBEB",
"!	c #EBECEC",
"~	c #EBECEB",
"{	c #EAEAEB",
"]	c #EAEBEA",
"^	c #EBEAEA",
"/	c #EBEAEB",
"(	c #E9EAEA",
"_	c #EAEAE9",
":	c #E9E9EA",
"<	c #E9E9E9",
"[	c #E9E8E8",
"}	c #E9E8E9",
"|	c #E8E8E8",
"1	c #E8E9E8",
"2	c #E8E8E9",
"3	c #E7E8E7",
"4	c #E8E7E7",
"5	c #E7E7E8",
"6	c #E7E7E7",
"7	c #E7E8E8",
"8	c #E6E7E6",
"9	c #E6E6E6",
"0	c #E7E6E6",
"a	c #E6E6E7",
"b	c #E5E5E5",
"c	c #E4E3E4",
"d	c #E3E4E4",
"e	c #E4E4E3",
"f	c #E4E4E4",
"g	c #E3E3E3",
"h	c #E3E2E2",
"i	c #E3E2E3",
"j	c #E3E3E2",
"k	c #E2E3E3",
"l	c #E1E1E2",
"m	c #E1E2E2",
"n	c #E1E2E1",
"o	c #E2E1E2",
"p	c #E2E2E2",
"q	c #E2E2E1",
"r	c #E1E1E1",
"s	c #E0E0E1",
"t	c #E0E1E1",
"u	c #E1E0E1",
"v	c #E0E0E0",
"w	c #E0E0DF",
"x	c #DFDFE0",
"y	c #DFDFDF",
"z	c #E0DFE0",
"A	c #DFDEDE",
"B	c #DEDFDF",
"C	c #DFDEDF",
"D	c #DEDEDF",
"E	c #DFDFDE",
"F	c #DEDEDE",
"G	c #DEDEDD",
"H	c #DDDEDE",
"I	c #DEDDDE",
"J	c #DDDEDD",
"K	c #DDDDDD",
"L	c #DEDDDD",
"M	c #DCDCDD",
"N	c #DCDDDD",
"O	c #DDDCDD",
"P	c #DCDDDC",
"Q	c #DDDCDC",
"R	c #DCDCDC",
"S	c #DCDBDC",
"..........",
"++++++++++",
"@#$+%%%&&&",
"*$=$-;$$$$",
">>,>>,>=>>",
"''')')'!)~",
"{]{^/'^]]^",
"(_:::_<<<:",
"[}|1|||[12",
"34564663|7",
"89890a998a",
"bbbbbbbbbb",
"cdefffffff",
"gggghigjkg",
"lmnopqmmlm",
"rstsrsrrsu",
"vwxvvvwyzz",
"yAByCADECC",
"FFGHFFIGFF",
"JKKKLKKKLK",
"MNOPQKONMM",
"RRSRRRRRRR"};
