/* XPM */
static char * top_right_active_xpm[] = {
"5 22 54 1",
" 	c None",
".	c #FFFFFF",
"+	c #EEEEEE",
"@	c #EDEDED",
"#	c #EEEEED",
"$	c #ECECEC",
"%	c #ECECED",
"&	c #FCFDFD",
"*	c #EBEBEC",
"=	c #ECEBEC",
"-	c #EBEBEB",
";	c #FBFCFC",
">	c #EAEBEB",
",	c #EAEBEA",
"'	c #EAEAEB",
")	c #FBFBFB",
"!	c #E9E9E9",
"~	c #EAE9E9",
"{	c #FAFAFA",
"]	c #E8E8E8",
"^	c #E8E9E8",
"/	c #F8F9F9",
"(	c #E7E7E7",
"_	c #E7E7E8",
":	c #F7F7F7",
"<	c #E6E6E6",
"[	c #F5F6F6",
"}	c #E5E5E5",
"|	c #F3F4F4",
"1	c #E4E3E4",
"2	c #E4E4E4",
"3	c #E4E4E3",
"4	c #F1F1F1",
"5	c #E3E3E3",
"6	c #E3E2E3",
"7	c #EFEFEF",
"8	c #E1E2E2",
"9	c #E2E2E2",
"0	c #E2E1E2",
"a	c #E0E1E1",
"b	c #E0E0E1",
"c	c #EAEAEA",
"d	c #E0E0E0",
"e	c #DFE0E0",
"f	c #DEDFDF",
"g	c #DFDFDE",
"h	c #DEDEDF",
"i	c #E4E5E5",
"j	c #DEDEDE",
"k	c #DEDDDE",
"l	c #DDDDDD",
"m	c #DDDCDD",
"n	c #DDDDDC",
"o	c #DCDCDC",
".    ",
"+..  ",
"@#@. ",
"@@@. ",
"$%$$&",
"*=--;",
">,'')",
"!~!!{",
"]^]]/",
"(_((:",
"<<<<[",
"}}}}|",
"12334",
"56557",
"8900$",
"aabbc",
"ddee(",
"fghhi",
"jjkk9",
"lllle",
"lmnnj",
"ooooo"};
