/* XPM */
static char * top_left_inactive_xpm[] = {
"5 22 54 1",
" 	c None",
".	c #FFFFFF",
"+	c #EEEEEE",
"@	c #EDEDED",
"#	c #EEEEED",
"$	c #FCFDFD",
"%	c #ECECEC",
"&	c #ECECED",
"*	c #FBFCFC",
"=	c #EBEBEB",
"-	c #ECEBEC",
";	c #EBEBEC",
">	c #FBFBFB",
",	c #EAEAEB",
"'	c #EAEBEA",
")	c #EAEBEB",
"!	c #FAFAFA",
"~	c #E9E9E9",
"{	c #EAE9E9",
"]	c #F8F9F9",
"^	c #E8E8E8",
"/	c #E8E9E8",
"(	c #F7F7F7",
"_	c #E7E7E7",
":	c #E7E7E8",
"<	c #F5F6F6",
"[	c #E6E6E6",
"}	c #F3F4F4",
"|	c #E5E5E5",
"1	c #F1F1F1",
"2	c #E4E4E3",
"3	c #E4E4E4",
"4	c #E4E3E4",
"5	c #EFEFEF",
"6	c #E3E3E3",
"7	c #E3E2E3",
"8	c #E2E1E2",
"9	c #E2E2E2",
"0	c #E1E2E2",
"a	c #EAEAEA",
"b	c #E0E0E1",
"c	c #E0E1E1",
"d	c #DFE0E0",
"e	c #E0E0E0",
"f	c #E4E5E5",
"g	c #DEDEDF",
"h	c #DFDFDE",
"i	c #DEDFDF",
"j	c #DEDDDE",
"k	c #DEDEDE",
"l	c #DDDDDD",
"m	c #DDDDDC",
"n	c #DDDCDD",
"o	c #DCDCDC",
"    .",
"  ..+",
" .@#@",
" .@@@",
"$%%&%",
"*==-;",
">,,')",
"!~~{~",
"]^^/^",
"(__:_",
"<[[[[",
"}||||",
"12234",
"56676",
"%8890",
"abbcc",
"_ddee",
"fgghi",
"9jjkk",
"dllll",
"kmmnl",
"ooooo"};
