/* XPM */
static char *close_prelight[] = {
/* columns rows colors chars-per-pixel */
"24 24 28 1 ",
"  c #9ABC78",
". c #9ABC79",
"X c #9BBD79",
"o c #9CBD7A",
"O c #9CBD7C",
"+ c #9EBE7E",
"@ c #A0C07F",
"# c #A6C28B",
"$ c #A7C28B",
"% c #B9CAA7",
"& c #B9CBA8",
"* c #C5CFBA",
"= c #C9DBB7",
"- c #C4D0B9",
"; c #CCDDBB",
": c #CEDEBE",
"> c #D3D6D0",
", c #D4D6D1",
"< c gray85",
"1 c #D0E0C1",
"2 c #D5E3C7",
"3 c #D6E4C9",
"4 c #D8E5CB",
"5 c #D8E5CC",
"6 c #EEEEEE",
"7 c #F4F7F1",
"8 c #FBFCFA",
"9 c #FDFDFD",
/* pixels */
"666666666666666666666666",
"<<<<<<<<<<<<<<<<<<<<<<<<",
"<<<<<<<<<<<<<<<<<<<<<<<<",
"<<<<<<<<<<<<<<<<<<<<<<<<",
"<<<<<<<<<<<<<<<<<<<<<<<<",
"<<<<<<<<,%#oO#&><<<<<<<<",
"<<<<<<<-o.    .O*<<<<<<<",
"<<<<<<-...    ..o*<<<<<<",
"<<<<<,o  @    @  O,<<<<<",
"<<<<<&o .83o.28   &<<<<<",
"<<<<<#   ;94491 . $<<<<<",
"<<<<<o    :991  ..O<<<<<",
"<<<<<O. .o4894Oo  O<<<<<",
"<<<<<#.  49;;94.  $<<<<<",
"<<<<<&   7=  =7.  &<<<<<",
"<<<<<,o         oO,<<<<<",
"<<<<<<* .        *<<<<<<",
"<<<<<<<*Oo    oO*<<<<<<<",
"<<<<<<<<,&$oo$&,<<<<<<<<",
"<<<<<<<<<<<<<<<<<<<<<<<<",
"<<<<<<<<<<<<<<<<<<<<<<<<",
"<<<<<<<<<<<<<<<<<<<<<<<<",
"<<<<<<<<<<<<<<<<<<<<<<<<",
"<<<<<<<<<<<<<<<<<<<<<<<<"
};
