/* XPM */
static char *hide_inactive[] = {
/* columns rows colors chars-per-pixel */
"24 24 3 1 ",
"  c #B6B6B6",
". c gray85",
"X c #EEEEEE",
/* pixels */
"XXXXXXXXXXXXXXXXXXXXXXXX",
"........................",
"........................",
"........................",
"........................",
"........................",
"........................",
"........................",
"........................",
"........................",
"........................",
".........      .........",
".........      .........",
"........................",
"........................",
"........................",
"........................",
"........................",
"........................",
"........................",
"........................",
"........................",
"........................",
"........................"
};
