/* XPM */
static char * close_active_xpm[] = {
"24 24 40 1",
" 	c None",
".	c #373737",
"+	c #2F2F2F",
"@	c #2C363B",
"#	c #1D5A79",
"$	c #1373A2",
"%	c #0D7EB7",
"&	c #1372A2",
"*	c #1D5A78",
"=	c #244B5E",
"-	c #0D7DB5",
";	c #0C82BD",
">	c #0C81BC",
",	c #0F7EB6",
"'	c #0E7EB6",
")	c #2D363B",
"!	c #2E3132",
"~	c #225067",
"{	c #215169",
"]	c #2F3030",
"^	c #1D5977",
"/	c #1373A3",
"(	c #1E5875",
"_	c #224E64",
":	c #224E65",
"<	c #1F5570",
"[	c #0D7EB6",
"}	c #1F5773",
"|	c #1F556F",
"1	c #0D81BC",
"2	c #214D63",
"3	c #234B5F",
"4	c #0D81BB",
"5	c #224F66",
"6	c #1E5976",
"7	c #1D5B7A",
"8	c #0E7DB5",
"9	c #2C353A",
"0	c #244A5D",
"a	c #1372A1",
"........................",
"++++++++++++++++++++++++",
"++++++++++++++++++++++++",
"++++++++++++++++++++++++",
"++++++++++++++++++++++++",
"++++++++@#$%%&*@++++++++",
"+++++++=-;;;;;;-=+++++++",
"++++++=>;;;;;;;;>=++++++",
"+++++@-;;,;;;;';;')+++++",
"+++++#;;;!~>>{];;;^+++++",
"+++++/;;;(+_:+<;;;&+++++",
"+++++[;;;;}++|;;;;-+++++",
"+++++-;;;12++34;;;'+++++",
"+++++$;;;5+66+5;;;&+++++",
"+++++*;;;@7;;7@;;;^+++++",
"+++++@-;;;;;;;;;;89+++++",
"++++++=>;;;;;;;;>0++++++",
"+++++++=';;;;;;80+++++++",
"++++++++)^a[[a^9++++++++",
"++++++++++++++++++++++++",
"++++++++++++++++++++++++",
"++++++++++++++++++++++++",
"++++++++++++++++++++++++",
"++++++++++++++++++++++++"};
