/* XPM */
static char * close_pressed_xpm[] = {
/* columns rows colors chars-per-pixel */
"24 24 34 1",
".	c #373737",
" 	c #2F2F2F",
"@	c #323638",
"#	c #415A67",
"$	c #4C7286",
"%	c #507D95",
"&	c #4B7185",
"*	c #415966",
"=	c #3B4A53",
"-	c #507C94",
";	c #52819A",
">	c #528099",
",	c #517D95",
"'	c #303131",
")	c #3D5059",
"!	c #518099",
"~	c #3D515B",
"{	c #303030",
"]	c #4C7287",
"^	c #415864",
"/	c #3C4E57",
"(	c #3C4E58",
"_	c #3F5560",
":	c #405662",
"<	c #3F545F",
"[	c #3C4D56",
"}	c #3B4B53",
"|	c #3D4F59",
"1	c #415865",
"2	c #3D4F58",
"3	c #425B68",
"4	c #405865",
"5	c #313537",
"6	c #3A4952",
/* pixels */
"........................",
"                        ",
"                        ",
"                        ",
"                        ",
"        @#$%%&*@        ",
"       =-;;;;;;-=       ",
"      =>;;;;;;;;>=      ",
"     @-;;,;;;;%;;%@     ",
"     #;;;')!!~{;;;*     ",
"     ];;;^ /( _;;;&     ",
"     %;;;;:  <;;;;-     ",
"     -;;;>[  }>;;;%     ",
"     $;;;| 11 2;;;&     ",
"     *;;;@3;;3@;;;4     ",
"     @-;;;;;;;;;;-5     ",
"      =>;;;;;;;;>6      ",
"       =%;;;;;;-6       ",
"        @*&%%&45        ",
"                        ",
"                        ",
"                        ",
"                        ",
"                        "
};
