/* XPM */
static char * close_pressed_xpm[] = {
"24 24 40 1",
" 	c None",
".	c #373737",
"+	c #2F2F2F",
"@	c #2D3437",
"#	c #234A5E",
"$	c #1C5978",
"%	c #196185",
"&	c #234A5D",
"*	c #28414D",
"=	c #196084",
"-	c #186389",
";	c #186388",
">	c #1B6185",
",	c #1A6184",
"'	c #2E3437",
")	c #2E3031",
"!	c #264453",
"~	c #186288",
"{	c #264454",
"]	c #2F3030",
"^	c #23495D",
"/	c #1D5A79",
"(	c #24495C",
"_	c #264251",
":	c #264351",
"<	c #244758",
"[	c #196085",
"}	c #24485A",
"|	c #254758",
"1	c #196388",
"2	c #264250",
"3	c #27404D",
"4	c #196288",
"5	c #264352",
"6	c #244B5F",
"7	c #23495C",
"8	c #1A6084",
"9	c #2D3336",
"0	c #28404C",
"a	c #1C5977",
"........................",
"++++++++++++++++++++++++",
"++++++++++++++++++++++++",
"++++++++++++++++++++++++",
"++++++++++++++++++++++++",
"++++++++@#$%%$&@++++++++",
"+++++++*=------=*+++++++",
"++++++*;--------;*++++++",
"+++++@=-->----,--,'+++++",
"+++++#---)!~~{]---^+++++",
"+++++/---(+_:+<---$+++++",
"+++++[----}++|----=+++++",
"+++++=---12++34---,+++++",
"+++++$---5+((+5---$+++++",
"+++++&---@6--6@---7+++++",
"+++++@=----------89+++++",
"++++++*;--------;0++++++",
"+++++++*,------80+++++++",
"++++++++'^a[[a79++++++++",
"++++++++++++++++++++++++",
"++++++++++++++++++++++++",
"++++++++++++++++++++++++",
"++++++++++++++++++++++++",
"++++++++++++++++++++++++"};
