/* XPM */
static char * close_prelight_xpm[] = {
/* columns rows colors chars-per-pixel */
"24 24 39 1",
".	c #373737",
" 	c #2F2F2F",
"@	c #363A3D",
"#	c #5A7482",
"$	c #739AB0",
"%	c #7EADC7",
"&	c #729AAF",
"*	c #5A7381",
"=	c #4B5B64",
"-	c #7DACC5",
";	c #82B3CE",
">	c #81B2CD",
",	c #7EACC6",
"'	c #363A3C",
")	c #313232",
"!	c #50636E",
"~	c #81B2CC",
"{	c #516570",
"]	c #303031",
"^	c #597280",
"/	c #739BB1",
"(	c #58707E",
"_	c #4E606B",
":	c #4E616B",
"<	c #556C78",
"[	c #7EADC6",
"}	c #576E7B",
"|	c #556B77",
"1	c #4D606A",
"2	c #81B1CC",
"3	c #4F626D",
"4	c #59717F",
"5	c #4F626C",
"6	c #5B7583",
"7	c #59727F",
"8	c #7DABC5",
"9	c #35393B",
"0	c #4A5A62",
"a	c #7299AF",
/* pixels */
"........................",
"                        ",
"                        ",
"                        ",
"                        ",
"        @#$%%&*@        ",
"       =-;;;;;;-=       ",
"      =>;;;;;;;;>=      ",
"     @-;;,;;;;,;;,'     ",
"     #;;;)!~~{];;;^     ",
"     /;;;( _: <;;;&     ",
"     [;;;;}  |;;;;-     ",
"     -;;;>1  =2;;;,     ",
"     $;;;3 44 5;;;&     ",
"     *;;;@6;;6@;;;7     ",
"     @-;;;;;;;;;;89     ",
"      =>;;;;;;;;>0      ",
"       =,;;;;;;80       ",
"        '^a[[a79        ",
"                        ",
"                        ",
"                        ",
"                        ",
"                        "
};
