/* XPM */
static char * close_prelight_xpm[] = {
"24 24 27 1",
" 	c None",
".	c #EEEEEE",
"+	c #D9D9D9",
"@	c #D4D6D1",
"#	c #B9CAA7",
"$	c #A6C28B",
"%	c #9CBD7A",
"&	c #9CBD7C",
"*	c #B9CBA8",
"=	c #D3D6D0",
"-	c #C4D0B9",
";	c #9ABC79",
">	c #9ABC78",
",	c #C5CFBA",
"'	c #F33A3A",
")	c #A0C07F",
"!	c #FBFCFA",
"~	c #D6E4C9",
"{	c #D5E3C7",
"]	c #CCDDBB",
"^	c #FDFDFD",
"/	c #D8E5CB",
"(	c #D0E0C1",
"_	c #A7C28B",
":	c #CEDEBE",
"<	c #F4F7F1",
"[	c #C9DBB7",
"........................",
"++++++++++++++++++++++++",
"++++++++++++++++++++++++",
"++++++++++++++++++++++++",
"++++++++++++++++++++++++",
"++++++++@#$%&$*=++++++++",
"+++++++-%;>>>>;&,+++++++",
"++++++-;;''''>;;%,++++++",
"+++++@%'')>>>')>>&@+++++",
"+++++*%';!~%;{'>>>*+++++",
"+++++$'>>]^//^(';>_+++++",
"+++++%'>>>:^^(>';;&+++++",
"+++++';>;%/!^/&'>>&+++++",
"+++++';>>/^]]^/'>>_+++++",
"+++++*'>><[>>[';>>*+++++",
"+++++@'>>>>>>'>>%&@+++++",
"++++++,'''>>'>>>>,++++++",
"+++++++,&%''>>%&,+++++++",
"++++++++@*_%%_*@++++++++",
"++++++++++++++++++++++++",
"++++++++++++++++++++++++",
"++++++++++++++++++++++++",
"++++++++++++++++++++++++",
"++++++++++++++++++++++++"};
