/* XPM */
static char * close_prelight_xpm[] = {
/* columns rows colors chars-per-pixel */
"24 24 41 1",
".	c #EEEEEE",
" 	c #D9D9D9",
"@	c #D6D3D1",
"#	c #CAB9AB",
"$	c #C2A690",
"%	c #BD9C83",
"&	c #C2A691",
"*	c #CBB9AB",
"=	c #D0C5BC",
"-	c #BD9D84",
";	c #BC9A7F",
">	c #BC9A80",
",	c #C0A087",
"'	c #C0A086",
")	c #BE9E84",
"!	c #D7D4D2",
"~	c #F7F6F5",
"{	c #E1D3C9",
"]	c #BD9B80",
"^	c #E0D2C7",
"/	c #F7F7F7",
"(	c #C1A690",
"_	c #DAC9BC",
":	c #F8F8F8",
"<	c #E2D5CB",
"[	c #E2D5CA",
"}	c #DCCCC0",
"|	c #BD9D83",
"1	c #DBCBBE",
"2	c #DDCDC1",
"3	c #BD9B81",
"4	c #E3D8CF",
"5	c #BD9C81",
"6	c #E1D4C9",
"7	c #DAC9BB",
"8	c #E1D4CA",
"9	c #F3F0EE",
"0	c #D9C7B9",
"a	c #BE9E85",
"b	c #CFC5BC",
"c	c #C2A791",
/* pixels */
"........................",
"                        ",
"                        ",
"                        ",
"                        ",
"        @#$%%&*@        ",
"       =-;;;;;;-=       ",
"      =>;;;;;;;;>=      ",
"     @-;;,;;;;';;)!     ",
"     #;;;~{]]^/;;;#     ",
"     (;;;_:<[:};;;&     ",
"     |;;;;1::2;;;;-     ",
"     -;;;3<::45;;;)     ",
"     $;;;6:77:8;;;&     ",
"     *;;;90;;09;;;#     ",
"     @-;;;;;;;;;;a!     ",
"      =>;;;;;;;;>b      ",
"       =);;;;;;ab       ",
"        !#c||c#!        ",
"                        ",
"                        ",
"                        ",
"                        ",
"                        "
};
