/* XPM */
static char * close_pressed_xpm[] = {
/* columns rows colors chars-per-pixel */
"24 24 42 1",
".	c #EEEEEE",
" 	c #D9D9D9",
"@	c #D2CFCD",
"#	c #AFA196",
"$	c #97816F",
"%	c #8A705B",
"&	c #BEB5AE",
"*	c #8B715D",
"=	c #876C56",
"-	c #BEB6AE",
";	c #876D57",
">	c #8E7560",
",	c #8E745F",
"'	c #8C725D",
")	c #D3D0CF",
"!	c #F6F5F5",
"~	c #CCC1B9",
"{	c #886D57",
"]	c #CABFB6",
"^	c #F7F7F7",
"/	c #96806E",
"(	c #C0B2A7",
"_	c #F8F8F8",
":	c #CEC4BB",
"<	c #CDC3BB",
"[	c #C3B7AD",
"}	c #8B715C",
"|	c #C2B5AB",
"1	c #C5B9AF",
"2	c #886E58",
"3	c #CEC4BC",
"4	c #D2C8C1",
"5	c #896E59",
"6	c #CCC2B9",
"7	c #BFB2A7",
"8	c #CDC3BA",
"9	c #EFECEA",
"0	c #BDAFA3",
"a	c #AFA297",
"b	c #8C735E",
"c	c #BEB6AF",
"d	c #988270",
/* pixels */
"........................",
"                        ",
"                        ",
"                        ",
"                        ",
"        @#$%%$#@        ",
"       &*======*-       ",
"      &;========;-      ",
"     @*==>====,==')     ",
"     #===!~{{]^===#     ",
"     /===(_:<_[===$     ",
"     }====|__1====*     ",
"     *===23__45==='     ",
"     $===6_77_8===$     ",
"     #===90==09===a     ",
"     @*==========b)     ",
"      -;========;c      ",
"       -'======bc       ",
"        )#d}}da)        ",
"                        ",
"                        ",
"                        ",
"                        ",
"                        "
};
