/* XPM */
static char * close_prelight_xpm[] = {
"24 24 35 1",
" 	c None",
".	c #EEEEEE",
"+	c #D9D9D9",
"@	c #D5D1DB",
"#	c #C2ACE5",
"$	c #B592EC",
"%	c #AE84EF",
"&	c #CBBCE1",
"*	c #AE85EF",
"=	c #AC81F0",
"-	c #B188F1",
";	c #AF86EF",
">	c #D5D2DB",
",	c #F6F6F8",
"'	c #DACAF5",
")	c #AD82F0",
"!	c #D9C8F5",
"~	c #F7F7F8",
"{	c #C2ACE4",
"]	c #B491EC",
"^	c #D2BDF4",
"/	c #F8F8F8",
"(	c #DCCCF5",
"_	c #DBCBF5",
":	c #D5C1F4",
"<	c #D4BFF4",
"[	c #D6C2F4",
"}	c #DED0F5",
"|	c #AD83F0",
"1	c #DBCAF5",
"2	c #D2BCF4",
"3	c #F2EEF8",
"4	c #D0BAF4",
"5	c #CABCE0",
"6	c #B593EC",
"........................",
"++++++++++++++++++++++++",
"++++++++++++++++++++++++",
"++++++++++++++++++++++++",
"++++++++++++++++++++++++",
"++++++++@#$%%$#@++++++++",
"+++++++&*======*&+++++++",
"++++++&==========&++++++",
"+++++@*==-====-==;>+++++",
"+++++#===,'))!~==={+++++",
"+++++]===^/(_/:===$+++++",
"+++++*====<//[====*+++++",
"+++++*===)(//}|===;+++++",
"+++++$===1/22/_===$+++++",
"+++++#===34==43==={+++++",
"+++++@*==========;>+++++",
"++++++&==========5++++++",
"+++++++&;======;5+++++++",
"++++++++>{6**6{>++++++++",
"++++++++++++++++++++++++",
"++++++++++++++++++++++++",
"++++++++++++++++++++++++",
"++++++++++++++++++++++++",
"++++++++++++++++++++++++"};
