/* XPM */
static char * close_pressed_xpm[] = {
"24 24 43 1",
" 	c None",
".	c #EEEEEE",
"+	c #D9D9D9",
"@	c #D0CBD7",
"#	c #A588D0",
"$	c #865ACB",
"%	c #7742C7",
"&	c #875ACB",
"*	c #A589D0",
"=	c #B8A5D4",
"-	c #7844C8",
";	c #733CC7",
">	c #B8A6D4",
",	c #743DC7",
"'	c #7B47CA",
")	c #7945C8",
"!	c #D1CDD8",
"~	c #F5F4F7",
"{	c #C4AFE5",
"]	c #743EC7",
"^	c #C2ABE4",
"/	c #F7F6F8",
"(	c #A589CF",
"_	c #8659CA",
":	c #B69BDF",
"<	c #F8F8F8",
"[	c #C6B2E6",
"}	c #C6B1E6",
"|	c #BAA1E1",
"1	c #7843C8",
"2	c #B99EE0",
"3	c #BCA3E2",
"4	c #753EC8",
"5	c #C7B2E6",
"6	c #CBB8E7",
"7	c #753FC8",
"8	c #C5AFE5",
"9	c #B59ADF",
"0	c #C5B0E5",
"a	c #EDE8F4",
"b	c #B296DF",
"c	c #B8A6D3",
"d	c #875BCB",
"........................",
"++++++++++++++++++++++++",
"++++++++++++++++++++++++",
"++++++++++++++++++++++++",
"++++++++++++++++++++++++",
"++++++++@#$%%&*@++++++++",
"+++++++=-;;;;;;->+++++++",
"++++++=,;;;;;;;;,>++++++",
"+++++@-;;';;;;';;)!+++++",
"+++++#;;;~{]]^/;;;(+++++",
"+++++_;;;:<[}<|;;;&+++++",
"+++++1;;;;2<<3;;;;-+++++",
"+++++-;;;45<<67;;;)+++++",
"+++++$;;;8<99<0;;;&+++++",
"+++++*;;;ab;;ba;;;*+++++",
"+++++@-;;;;;;;;;;)!+++++",
"++++++>,;;;;;;;;,c++++++",
"+++++++>);;;;;;)c+++++++",
"++++++++!(d11d*!++++++++",
"++++++++++++++++++++++++",
"++++++++++++++++++++++++",
"++++++++++++++++++++++++",
"++++++++++++++++++++++++",
"++++++++++++++++++++++++"};
