/* XPM */
static char * close_active_xpm[] = {
"24 24 42 1",
" 	c None",
".	c #EEEEEE",
"+	c #D9D9D9",
"@	c #D3CEDA",
"#	c #B69BDF",
"$	c #A178E1",
"%	c #9766E2",
"&	c #A278E1",
"*	c #B69CDF",
"=	c #C3B2DD",
"-	c #9767E2",
";	c #9461E3",
">	c #9462E3",
",	c #9A6AE5",
"'	c #9868E3",
")	c #D4D0DA",
"!	c #F6F5F7",
"~	c #D1BDF0",
"{	c #9562E3",
"]	c #CFBBF0",
"^	c #F7F7F8",
"/	c #B59BDE",
"(	c #A177E1",
"_	c #C6ADED",
":	c #F8F8F8",
"<	c #D3C0F0",
"[	c #D2BFF0",
"}	c #C9B2EE",
"|	c #C8B0EE",
"1	c #CBB4EE",
"2	c #9563E3",
"3	c #D3C0F1",
"4	c #D6C5F1",
"5	c #9663E3",
"6	c #D1BEF0",
"7	c #C6ACED",
"8	c #D2BEF0",
"9	c #F0EBF7",
"0	c #C4A9ED",
"a	c #B69CDE",
"b	c #C3B2DC",
"c	c #A279E1",
"........................",
"++++++++++++++++++++++++",
"++++++++++++++++++++++++",
"++++++++++++++++++++++++",
"++++++++++++++++++++++++",
"++++++++@#$%%&*@++++++++",
"+++++++=-;;;;;;-=+++++++",
"++++++=>;;;;;;;;>=++++++",
"+++++@-;;,;;;;,;;')+++++",
"+++++#;;;!~{{]^;;;/+++++",
"+++++(;;;_:<[:};;;&+++++",
"+++++%;;;;|::1;;;;-+++++",
"+++++-;;;23::45;;;'+++++",
"+++++$;;;6:77:8;;;&+++++",
"+++++*;;;90;;09;;;a+++++",
"+++++@-;;;;;;;;;;')+++++",
"++++++=>;;;;;;;;>b++++++",
"+++++++=';;;;;;'b+++++++",
"++++++++)/c%%ca)++++++++",
"++++++++++++++++++++++++",
"++++++++++++++++++++++++",
"++++++++++++++++++++++++",
"++++++++++++++++++++++++",
"++++++++++++++++++++++++"};
