/* XPM */
static char * close_prelight_xpm[] = {
/* columns rows colors chars-per-pixel */
"24 24 37 1",
".	c #EEEEEE",
" 	c #D9D9D9",
"@	c #D4D2D9",
"#	c #BDB0D9",
"$	c #AD98D9",
"%	c #A58CD9",
"&	c #AE99D9",
"*	c #BEB0D9",
"=	c #C8BFDA",
"-	c #A68DD9",
";	c #A389D9",
">	c #C8BFD9",
",	c #A890DB",
"'	c #A88FDB",
")	c #D5D3D9",
"!	c #F6F6F7",
"~	c #D7CDEC",
"{	c #A48AD9",
"]	c #D5CBEC",
"^	c #F7F7F8",
"/	c #CEC1E8",
"(	c #F8F8F8",
"_	c #D8CFED",
":	c #D8CEED",
"<	c #D0C4E9",
"[	c #A58DD9",
"}	c #CFC3E9",
"|	c #D2C6EA",
"1	c #D9CFED",
"2	c #DBD2ED",
"3	c #A48BDA",
"4	c #CDC0E8",
"5	c #D8CEEC",
"6	c #F1EFF6",
"7	c #CCBEE8",
"8	c #A68ED9",
"9	c #C7BFD9",
/* pixels */
"........................",
"                        ",
"                        ",
"                        ",
"                        ",
"        @#$%%&*@        ",
"       =-;;;;;;->       ",
"      =;;;;;;;;;;>      ",
"     @-;;,;;;;';;-)     ",
"     #;;;!~{{]^;;;#     ",
"     $;;;/(_:(<;;;&     ",
"     [;;;;}((|;;;;-     ",
"     -;;;{1((23;;;-     ",
"     $;;;~(44(5;;;&     ",
"     *;;;67;;76;;;#     ",
"     @-;;;;;;;;;;8)     ",
"      >;;;;;;;;;;9      ",
"       >-;;;;;;89       ",
"        )#&[[&#)        ",
"                        ",
"                        ",
"                        ",
"                        ",
"                        "
};
