/* XPM */
static char * close_pressed_xpm[] = {
/* columns rows colors chars-per-pixel */
"24 24 42 1",
".	c #EEEEEE",
" 	c #D9D9D9",
"@	c #CCCED4",
"#	c #8E98BB",
"$	c #6373A9",
"%	c #4E60A0",
"&	c #6474AA",
"*	c #8F99BB",
"=	c #A9B0C6",
"-	c #4F61A1",
";	c #485B9E",
">	c #AAB0C6",
",	c #495C9E",
"'	c #5365A4",
")	c #5264A3",
"!	c #5062A1",
"~	c #CECFD4",
"{	c #F4F5F6",
"]	c #B3BBD5",
"^	c #495C9F",
"/	c #B0B8D3",
"(	c #F7F7F7",
"_	c #8F98BB",
":	c #6372A9",
"<	c #A1AACB",
"[	c #F8F8F8",
"}	c #B6BDD6",
"|	c #B5BDD6",
"1	c #A6AFCE",
"2	c #A4ADCD",
"3	c #A8B1CF",
"4	c #4A5D9F",
"5	c #B7BED7",
"6	c #BCC3D9",
"7	c #4B5EA0",
"8	c #B4BBD5",
"9	c #A0A9CB",
"0	c #B5BCD6",
"a	c #E9EBF1",
"b	c #9CA6C9",
"c	c #5163A2",
"d	c #6574AA",
/* pixels */
"........................",
"                        ",
"                        ",
"                        ",
"                        ",
"        @#$%%&*@        ",
"       =-;;;;;;->       ",
"      =,;;;;;;;;,>      ",
"     @-;;';;;;);;!~     ",
"     #;;;{]^^/(;;;_     ",
"     :;;;<[}|[1;;;&     ",
"     -;;;;2[[3;;;;-     ",
"     -;;;45[[67;;;!     ",
"     $;;;8[99[0;;;&     ",
"     *;;;ab;;ba;;;*     ",
"     @-;;;;;;;;;;c~     ",
"      >,;;;;;;;;,>      ",
"       >!;;;;;;c>       ",
"        ~_d--d*~        ",
"                        ",
"                        ",
"                        ",
"                        ",
"                        "
};
