/* XPM */
static char * close_prelight_xpm[] = {
/* columns rows colors chars-per-pixel */
"24 24 39 1",
".	c #EEEEEE",
" 	c #D9D9D9",
"@	c #D0D2D8",
"#	c #A5B0D7",
"$	c #8698D5",
"%	c #778CD4",
"&	c #8799D5",
"*	c #B8BFD8",
"=	c #788DD4",
"-	c #7389D4",
";	c #7489D4",
">	c #7B90D7",
",	c #7B8FD6",
"'	c #798DD4",
")	c #D1D3D9",
"!	c #F5F6F7",
"~	c #C4CDEA",
"{	c #748AD4",
"]	c #C2CBE9",
"^	c #F7F7F8",
"/	c #A5B0D6",
"(	c #B6C1E6",
"_	c #F8F8F8",
":	c #C6CFEB",
"<	c #C6CEEB",
"[	c #BAC4E7",
"}	c #B9C3E7",
"|	c #BCC6E8",
"1	c #758AD5",
"2	c #C7CFEB",
"3	c #CBD2EB",
"4	c #758BD5",
"5	c #C5CDEA",
"6	c #B5C0E6",
"7	c #C5CEEA",
"8	c #EDEFF5",
"9	c #B2BEE5",
"0	c #798ED5",
"a	c #B8BFD7",
/* pixels */
"........................",
"                        ",
"                        ",
"                        ",
"                        ",
"        @#$%%&#@        ",
"       *=------=*       ",
"      *;--------;*      ",
"     @=-->----,--')     ",
"     #---!~{{]^---/     ",
"     $---(_:<_[---&     ",
"     =----}__|----=     ",
"     =---12__34---'     ",
"     $---5_66_7---&     ",
"     #---89--98---/     ",
"     @=----------0)     ",
"      *;--------;a      ",
"       *'------0a       ",
"        )/&==&/)        ",
"                        ",
"                        ",
"                        ",
"                        ",
"                        "
};
