/* XPM */
static char * close_prelight_xpm[] = {
"24 24 42 1",
" 	c None",
".	c #EEEEEE",
"+	c #D9D9D9",
"@	c #CDD2DA",
"#	c #92AEE3",
"$	c #6996E8",
"%	c #5589EA",
"&	c #6A96E8",
"*	c #93AFE3",
"=	c #ACBEDF",
"-	c #568AEA",
";	c #4F86EB",
">	c #5086EB",
",	c #598DEC",
"'	c #578BEA",
")	c #CED2DA",
"!	c #F5F6F8",
"~	c #B6CCF3",
"{	c #5087EB",
"]	c #B3CAF3",
"^	c #F7F7F8",
"/	c #92AEE2",
"(	c #6895E8",
"_	c #A4BFF1",
":	c #F8F8F8",
"<	c #B9CDF3",
"[	c #B8CDF3",
"}	c #AAC3F2",
"|	c #558AEA",
"1	c #A7C2F2",
"2	c #ACC4F2",
"3	c #5187EB",
"4	c #B9CEF4",
"5	c #BFD1F3",
"6	c #5288EB",
"7	c #B7CCF3",
"8	c #A3BFF1",
"9	c #EAEFF7",
"0	c #A0BCF1",
"a	c #93AFE2",
"b	c #CED3DA",
"c	c #6B97E8",
"........................",
"++++++++++++++++++++++++",
"++++++++++++++++++++++++",
"++++++++++++++++++++++++",
"++++++++++++++++++++++++",
"++++++++@#$%%&*@++++++++",
"+++++++=-;;;;;;-=+++++++",
"++++++=>;;;;;;;;>=++++++",
"+++++@-;;,;;;;,;;')+++++",
"+++++#;;;!~{{]^;;;/+++++",
"+++++(;;;_:<[:};;;&+++++",
"+++++|;;;;1::2;;;;-+++++",
"+++++-;;;34::56;;;'+++++",
"+++++$;;;7:88:7;;;&+++++",
"+++++*;;;90;;09;;;a+++++",
"+++++@-;;;;;;;;;;'b+++++",
"++++++=>;;;;;;;;>=++++++",
"+++++++=';;;;;;'=+++++++",
"++++++++)/c||cab++++++++",
"++++++++++++++++++++++++",
"++++++++++++++++++++++++",
"++++++++++++++++++++++++",
"++++++++++++++++++++++++",
"++++++++++++++++++++++++"};
