/* XPM */
static char *close_active[] = {
/* columns rows colors chars-per-pixel */
"24 24 40 1",
".	c #EEEEEE",
" 	c #D9D9D9",
"@	c #CED0D7",
"#	c #98A5CE",
"$	c #7386C8",
"%	c #6077C5",
"&	c #7487C8",
"*	c #99A5CF",
"=	c #B0B8D2",
"-	c #6178C5",
";	c #5B73C4",
">	c #B0B8D3",
",	c #5C74C4",
"'	c #657BC7",
")	c #647BC7",
"!	c #6279C5",
"~	c #CFD1D7",
"{	c #F5F5F7",
"]	c #BBC4E4",
"^	c #B8C2E3",
"/	c #F7F7F8",
"(	c #7286C8",
"_	c #AAB6DE",
":	c #F8F8F8",
"<	c #BDC6E5",
"[	c #AFBAE0",
"}	c #ADB9DF",
"|	c #B1BCE0",
"1	c #5D75C5",
"2	c #BEC7E5",
"3	c #C3CBE6",
"4	c #5E75C5",
"5	c #BBC5E4",
"6	c #A9B5DE",
"7	c #BCC5E4",
"8	c #EBEDF4",
"9	c #A6B2DD",
"0	c #99A5CE",
"a	c #6379C5",
"b	c #7487C9",
/* pixels */
"........................",
"                        ",
"                        ",
"                        ",
"                        ",
"        @#$%%&*@        ",
"       =-;;;;;;->       ",
"      =,;;;;;;;;,>      ",
"     @-;;';;;;);;!~     ",
"     #;;;{],,^/;;;#     ",
"     (;;;_:<<:[;;;&     ",
"     -;;;;}::|;;;;-     ",
"     -;;;12::34;;;!     ",
"     $;;;5:66:7;;;&     ",
"     *;;;89;;98;;;0     ",
"     @-;;;;;;;;;;a~     ",
"      >,;;;;;;;;,=      ",
"       >!;;;;;;a=       ",
"        ~#b--b0~        ",
"                        ",
"                        ",
"                        ",
"                        ",
"                        "
};
