/* XPM */
static char * close_pressed_xpm[] = {
"24 24 44 1",
" 	c None",
".	c #EEEEEE",
"+	c #D9D9D9",
"@	c #D5CEC9",
"#	c #C3997B",
"$	c #B67445",
"%	c #AF622A",
"&	c #B77546",
"*	c #C39A7C",
"=	c #CBB19D",
"-	c #B0632C",
";	c #AE5D23",
">	c #CBB19E",
",	c #AE5E24",
"'	c #B36730",
")	c #B2662F",
"!	c #B0642D",
"~	c #D6CFCB",
"{	c #F6F5F4",
"]	c #DBBBA5",
"^	c #AF5E25",
"/	c #DAB9A1",
"(	c #F7F7F6",
"_	c #C3997C",
":	c #D3AB8E",
"<	c #F8F8F8",
"[	c #DDBEA8",
"}	c #DCBDA7",
"|	c #D6B095",
"1	c #B0632B",
"2	c #D5AE93",
"3	c #D6B298",
"4	c #AF5F26",
"5	c #DDBFA9",
"6	c #DFC3B0",
"7	c #AF6026",
"8	c #DCBCA6",
"9	c #D3AA8D",
"0	c #DCBDA6",
"a	c #F2EBE6",
"b	c #D1A788",
"c	c #C39A7D",
"d	c #B1652E",
"e	c #B77647",
"........................",
"++++++++++++++++++++++++",
"++++++++++++++++++++++++",
"++++++++++++++++++++++++",
"++++++++++++++++++++++++",
"++++++++@#$%%&*@++++++++",
"+++++++=-;;;;;;->+++++++",
"++++++=,;;;;;;;;,>++++++",
"+++++@-;;';;;;);;!~+++++",
"+++++#;;;{]^^/(;;;_+++++",
"+++++$;;;:<[}<|;;;&+++++",
"+++++1;;;;2<<3;;;;-+++++",
"+++++-;;;45<<67;;;!+++++",
"+++++$;;;8<99<0;;;&+++++",
"+++++*;;;ab;;ba;;;c+++++",
"+++++@-;;;;;;;;;;d~+++++",
"++++++>,;;;;;;;;,>++++++",
"+++++++>!;;;;;;d>+++++++",
"++++++++~_e11ec~++++++++",
"++++++++++++++++++++++++",
"++++++++++++++++++++++++",
"++++++++++++++++++++++++",
"++++++++++++++++++++++++",
"++++++++++++++++++++++++"};
