/* XPM */
static char * close_prelight_xpm[] = {
/* columns rows colors chars-per-pixel */
"24 24 39 1",
".	c #EEEEEE",
" 	c #D9D9D9",
"@	c #DAD5D1",
"#	c #E2C6AA",
"$	c #E6BA8F",
"%	c #E8B482",
"&	c #E6BB90",
"*	c #E2C6AB",
"=	c #DFCDBB",
"-	c #E8B583",
";	c #E9B37E",
">	c #DFCDBC",
",	c #E9B37F",
"'	c #EAB786",
")	c #EAB785",
"!	c #DAD6D2",
"~	c #F8F7F5",
"{	c #F2DDC8",
"]	c #E9B47F",
"^	c #F2DCC6",
"/	c #F8F7F7",
"(	c #E1C5AA",
"_	c #F0D5BB",
":	c #F8F8F8",
"<	c #F3DECA",
"[	c #F1D8BF",
"}	c #E8B582",
"|	c #F1D7BE",
"1	c #F1D9C1",
"2	c #E9B480",
"3	c #F3DFCB",
"4	c #F3E0CE",
"5	c #F2DDC9",
"6	c #F3DEC9",
"7	c #F7F2EE",
"8	c #F0D4B8",
"9	c #E1C6AB",
"0	c #E8B584",
"a	c #DECDBC",
/* pixels */
"........................",
"                        ",
"                        ",
"                        ",
"                        ",
"        @#$%%&*@        ",
"       =-;;;;;;->       ",
"      =,;;;;;;;;,>      ",
"     @-;;';;;;);;-!     ",
"     #;;;~{]]^/;;;(     ",
"     $;;;_:<<:[;;;&     ",
"     };;;;|::1;;;;-     ",
"     -;;;23::42;;;-     ",
"     $;;;5:__:6;;;&     ",
"     *;;;78;;87;;;9     ",
"     @-;;;;;;;;;;0!     ",
"      >,;;;;;;;;,a      ",
"       >-;;;;;;0a       ",
"        !(&}}&9!        ",
"                        ",
"                        ",
"                        ",
"                        ",
"                        "
};
