/* XPM */
static char *close_active[] = {
/* columns rows colors chars-per-pixel */
"24 24 42 1",
".	c #EEEEEE",
" 	c #D9D9D9",
"@	c #D9D4CE",
"#	c #DABA9B",
"$	c #DBA878",
"%	c #DB9F66",
"&	c #DBA978",
"*	c #DBBB9C",
"=	c #DAC6B2",
"-	c #DBA067",
";	c #DB9D61",
">	c #DB9D62",
",	c #DDA36A",
"'	c #DDA26A",
")	c #DBA068",
"!	c #D9D4D0",
"~	c #F7F6F5",
"{	c #EDD5BD",
"]	c #DB9E62",
"^	c #ECD3BB",
"/	c #F8F7F7",
"(	c #DBA877",
"_	c #E9CBAD",
":	c #F8F8F8",
"<	c #EDD6C0",
"[	c #EDD6BF",
"}	c #EACEB2",
"|	c #DBA066",
"1	c #EACCB0",
"2	c #EBCFB4",
"3	c #DB9E63",
"4	c #EED6C0",
"5	c #EED9C5",
"6	c #DC9F63",
"7	c #EDD5BE",
"8	c #E9CAAC",
"9	c #F6F1EB",
"0	c #E9C9A9",
"a	c #DABA9C",
"b	c #DBA168",
"c	c #D9C5B2",
"d	c #DBA979",
/* pixels */
"........................",
"                        ",
"                        ",
"                        ",
"                        ",
"        @#$%%&*@        ",
"       =-;;;;;;-=       ",
"      =>;;;;;;;;>=      ",
"     @-;;,;;;;';;)!     ",
"     #;;;~{]]^/;;;#     ",
"     (;;;_:<[:};;;&     ",
"     |;;;;1::2;;;;-     ",
"     -;;;34::56;;;)     ",
"     $;;;7:88:7;;;&     ",
"     *;;;90;;09;;;a     ",
"     @-;;;;;;;;;;b!     ",
"      =>;;;;;;;;>c      ",
"       =);;;;;;bc       ",
"        !#d||da!        ",
"                        ",
"                        ",
"                        ",
"                        ",
"                        "
};
