/* XPM */
static char *maximize_inactive[] = {
/* columns rows colors chars-per-pixel */
"24 24 7 1 ",
"  c #B6B6B6",
". c #BCBCBC",
"X c gray74",
"o c gray76",
"O c #D8D8D8",
"+ c gray85",
"@ c #EEEEEE",
/* pixels */
"@@@@@@@@@@@@@@@@@@@@@@@@",
"++++++++++++++++++++++++",
"++++++++++++++++++++++++",
"++++++++++++++++++++++++",
"++++++++++++++++++++++++",
"++++++++++++++++++++++++",
"++++++++++++++++++++++++",
"++++++++++++++++++++++++",
"++++++++++++++++++++++++",
"+++++++++++o  X+++++++++",
"++++++++++++o  +++++++++",
"+++++++++X+++o +++++++++",
"+++++++++ XO+Oo+++++++++",
"++++++++O  o++++++++++++",
"+++++++++.  o+++++++++++",
"++++++++++++++++++++++++",
"++++++++++++++++++++++++",
"++++++++++++++++++++++++",
"++++++++++++++++++++++++",
"++++++++++++++++++++++++",
"++++++++++++++++++++++++",
"++++++++++++++++++++++++",
"++++++++++++++++++++++++",
"++++++++++++++++++++++++"
};
