/* XPM */
static char * close_active_xpm[] = {
"24 24 41 1",
" 	c None",
".	c #EEEEEE",
"+	c #D9D9D9",
"@	c #D0D0D1",
"#	c #A6A5AB",
"$	c #888791",
"%	c #797883",
"&	c #898891",
"*	c #A6A6AC",
"=	c #B8B8BC",
"-	c #7A7984",
";	c #757480",
">	c #B9B8BC",
",	c #767580",
"'	c #7D7C87",
")	c #7B7A85",
"!	c #D1D1D2",
"~	c #F5F5F6",
"{	c #C5C4C9",
"]	c #767581",
"^	c #C3C2C7",
"/	c #F7F7F7",
"(	c #878790",
"_	c #B7B6BC",
":	c #F8F8F8",
"<	c #C7C7CB",
"[	c #C7C6CB",
"}	c #BBBBC0",
"|	c #797984",
"1	c #BAB9BF",
"2	c #BDBCC2",
"3	c #777681",
"4	c #C8C7CC",
"5	c #CBCBCF",
"6	c #777682",
"7	c #C5C5CA",
"8	c #B6B6BC",
"9	c #C6C6CA",
"0	c #EDEDEE",
"a	c #B3B3B9",
"b	c #898892",
"........................",
"++++++++++++++++++++++++",
"++++++++++++++++++++++++",
"++++++++++++++++++++++++",
"++++++++++++++++++++++++",
"++++++++@#$%%&*@++++++++",
"+++++++=-;;;;;;->+++++++",
"++++++=,;;;;;;;;,>++++++",
"+++++@-;;';;;;';;)!+++++",
"+++++#;;;~{]]^/;;;#+++++",
"+++++(;;;_:<[:};;;&+++++",
"+++++|;;;;1::2;;;;-+++++",
"+++++-;;;34::56;;;)+++++",
"+++++$;;;7:88:9;;;&+++++",
"+++++*;;;0a;;a0;;;*+++++",
"+++++@-;;;;;;;;;;)!+++++",
"++++++>,;;;;;;;;,>++++++",
"+++++++>);;;;;;)>+++++++",
"++++++++!#b||b*!++++++++",
"++++++++++++++++++++++++",
"++++++++++++++++++++++++",
"++++++++++++++++++++++++",
"++++++++++++++++++++++++",
"++++++++++++++++++++++++"};
