/* XPM */
static char *close_active[] = {
/* columns rows colors chars-per-pixel */
"24 24 29 1",
".	c #EEEEEE",
" 	c #D9D9D9",
"@	c #D4D4D4",
"#	c #BABABA",
"$	c #A8A8A8",
"%	c #9F9F9F",
"&	c #A9A9A9",
"*	c #BBBBBB",
"=	c #C6C6C6",
"-	c #A0A0A0",
";	c #9D9D9D",
">	c #A3A3A3",
",	c #A2A2A2",
"'	c #F6F6F6",
")	c #D5D5D5",
"!	c #9E9E9E",
"~	c #D3D3D3",
"{	c #F7F7F7",
"]	c #CBCBCB",
"^	c #F8F8F8",
"/	c #D6D6D6",
"(	c #CECECE",
"_	c #CCCCCC",
":	c #CFCFCF",
"<	c #CACACA",
"[	c #F1F1F1",
"}	c #C9C9C9",
"|	c #A1A1A1",
"1	c #C5C5C5",
/* pixels */
"........................",
"                        ",
"                        ",
"                        ",
"                        ",
"        @#$%%&*@        ",
"       =-;;;;;;-=       ",
"      =;;;;;;;;;;=      ",
"     @-;;>;;;;,;;-@     ",
"     #;;;')!!~{;;;#     ",
"     $;;;]^//^(;;;&     ",
"     -;;;;_^^:;;;;-     ",
"     -;;;!/^^ %;;;-     ",
"     $;;;)^<<^);;;&     ",
"     *;;;[};;}[;;;#     ",
"     @-;;;;;;;;;;|@     ",
"      =;;;;;;;;;;1      ",
"       =-;;;;;;|1       ",
"        @#&--&#@        ",
"                        ",
"                        ",
"                        ",
"                        ",
"                        "
};
