/* XPM */
static char * close_pressed_xpm[] = {
"24 24 44 1",
" 	c None",
".	c #EEEEEE",
"+	c #D9D9D9",
"@	c #CECECF",
"#	c #9A9A9E",
"$	c #76757C",
"%	c #64636B",
"&	c #77767C",
"*	c #9B9A9E",
"=	c #B1B1B3",
"-	c #65646C",
";	c #5F5E66",
">	c #B1B1B4",
",	c #605F67",
"'	c #68676F",
")	c #68676E",
"!	c #66656C",
"~	c #CFCFD0",
"{	c #F5F5F5",
"]	c #BCBCBF",
"^	c #BAB9BD",
"/	c #F7F7F7",
"(	c #75757B",
"_	c #ACABAF",
":	c #F8F8F8",
"<	c #BFBEC1",
"[	c #BEBEC1",
"}	c #B1B0B4",
"|	c #65646B",
"1	c #AFAFB2",
"2	c #B3B2B6",
"3	c #616068",
"4	c #BFBFC2",
"5	c #C4C4C6",
"6	c #626168",
"7	c #BDBCC0",
"8	c #ABABAF",
"9	c #BDBDC0",
"0	c #EBEBEC",
"a	c #A8A7AC",
"b	c #9B9B9F",
"c	c #66656D",
"d	c #B2B1B4",
"e	c #77777D",
"........................",
"++++++++++++++++++++++++",
"++++++++++++++++++++++++",
"++++++++++++++++++++++++",
"++++++++++++++++++++++++",
"++++++++@#$%%&*@++++++++",
"+++++++=-;;;;;;->+++++++",
"++++++=,;;;;;;;;,>++++++",
"+++++@-;;';;;;);;!~+++++",
"+++++#;;;{],,^/;;;#+++++",
"+++++(;;;_:<[:};;;&+++++",
"+++++|;;;;1::2;;;;-+++++",
"+++++-;;;34::56;;;!+++++",
"+++++$;;;7:88:9;;;&+++++",
"+++++*;;;0a;;a0;;;b+++++",
"+++++@-;;;;;;;;;;c~+++++",
"++++++>,;;;;;;;;,d++++++",
"+++++++>!;;;;;;cd+++++++",
"++++++++~#e||eb~++++++++",
"++++++++++++++++++++++++",
"++++++++++++++++++++++++",
"++++++++++++++++++++++++",
"++++++++++++++++++++++++",
"++++++++++++++++++++++++"};
