/* XPM */
static char * close_active_xpm[] = {
"24 24 41 1",
" 	c None",
".	c #373737",
"+	c #2F2F2F",
"@	c #3D342D",
"#	c #844C23",
"$	c #B45C1C",
"%	c #CC6418",
"&	c #B35B1C",
"*	c #834B23",
"=	c #654127",
"-	c #CA6318",
";	c #D36617",
">	c #664228",
",	c #D26617",
"'	c #CB641A",
")	c #CA6319",
"!	c #3D342E",
"~	c #32302E",
"{	c #704526",
"]	c #D16517",
"^	c #724625",
"/	c #31302F",
"(	c #B55C1C",
"_	c #804A23",
":	c #6C4326",
"<	c #6D4426",
"[	c #7B4824",
"}	c #CB6318",
"|	c #7D4924",
"1	c #794824",
"2	c #D26618",
"3	c #664127",
"4	c #D16518",
"5	c #6F4526",
"6	c #814B23",
"7	c #6E4426",
"8	c #864D23",
"9	c #824B23",
"0	c #3C332D",
"a	c #644127",
"b	c #B35B1B",
"........................",
"++++++++++++++++++++++++",
"++++++++++++++++++++++++",
"++++++++++++++++++++++++",
"++++++++++++++++++++++++",
"++++++++@#$%%&*@++++++++",
"+++++++=-;;;;;;->+++++++",
"++++++=,;;;;;;;;,>++++++",
"+++++@-;;';;;;);;)!+++++",
"+++++#;;;~{]]^/;;;*+++++",
"+++++(;;;_+:<+[;;;&+++++",
"+++++};;;;|++1;;;;-+++++",
"+++++-;;;2:++34;;;)+++++",
"+++++$;;;5+66+7;;;&+++++",
"+++++*;;;@8;;8@;;;9+++++",
"+++++@-;;;;;;;;;;)0+++++",
"++++++>,;;;;;;;;,a++++++",
"+++++++>);;;;;;)a+++++++",
"++++++++!*b}}b90++++++++",
"++++++++++++++++++++++++",
"++++++++++++++++++++++++",
"++++++++++++++++++++++++",
"++++++++++++++++++++++++",
"++++++++++++++++++++++++"};
