/* XPM */
static char * close_prelight_xpm[] = {
"24 24 42 1",
" 	c None",
".	c #373737",
"+	c #2F2F2F",
"@	c #40352D",
"#	c #955322",
"$	c #CF671B",
"%	c #EB7117",
"&	c #CE671B",
"*	c #945322",
"=	c #704627",
"-	c #EA7017",
";	c #F47416",
">	c #F37416",
",	c #EA7119",
"'	c #EA7118",
")	c #3F352E",
"!	c #33302E",
"~	c #7D4A26",
"{	c #F27316",
"]	c #804B25",
"^	c #31302F",
"/	c #935222",
"(	c #D0681B",
"_	c #915123",
":	c #794925",
"<	c #7A4925",
"[	c #8A4F23",
"}	c #8D5023",
"|	c #884E24",
"1	c #F27417",
"2	c #784825",
"3	c #714626",
"4	c #F17317",
"5	c #7C4A26",
"6	c #925223",
"7	c #7B4A25",
"8	c #975423",
"9	c #925222",
"0	c #E97018",
"a	c #3E342D",
"b	c #6E4527",
"c	c #CD661B",
"........................",
"++++++++++++++++++++++++",
"++++++++++++++++++++++++",
"++++++++++++++++++++++++",
"++++++++++++++++++++++++",
"++++++++@#$%%&*@++++++++",
"+++++++=-;;;;;;-=+++++++",
"++++++=>;;;;;;;;>=++++++",
"+++++@-;;,;;;;';;')+++++",
"+++++#;;;!~{{]^;;;/+++++",
"+++++(;;;_+:<+[;;;&+++++",
"+++++%;;;;}++|;;;;-+++++",
"+++++-;;;12++34;;;'+++++",
"+++++$;;;5+66+7;;;&+++++",
"+++++*;;;@8;;8@;;;9+++++",
"+++++@-;;;;;;;;;;0a+++++",
"++++++=>;;;;;;;;>b++++++",
"+++++++=';;;;;;0b+++++++",
"++++++++)/c%%c9a++++++++",
"++++++++++++++++++++++++",
"++++++++++++++++++++++++",
"++++++++++++++++++++++++",
"++++++++++++++++++++++++",
"++++++++++++++++++++++++"};
