/* XPM */
static char * close_pressed_xpm[] = {
"24 24 38 1",
" 	c None",
".	c #373737",
"+	c #2F2F2F",
"@	c #38322E",
"#	c #674229",
"$	c #864D25",
"%	c #955223",
"&	c #854D24",
"*	c #664228",
"=	c #523C2B",
"-	c #945222",
";	c #9A5422",
">	c #533C2B",
",	c #995422",
"'	c #955324",
")	c #38332F",
"!	c #31302F",
"~	c #593E2A",
"{	c #995322",
"]	c #5B3E2A",
"^	c #30302F",
"/	c #874E25",
"(	c #644229",
"_	c #573D2A",
":	c #583D2A",
"<	c #604029",
"[	c #955222",
"}	c #624129",
"|	c #5F4029",
"1	c #995423",
"2	c #563C2A",
"3	c #533B2A",
"4	c #654229",
"5	c #684329",
"6	c #654128",
"7	c #945223",
"8	c #37322E",
"9	c #523B2B",
"........................",
"++++++++++++++++++++++++",
"++++++++++++++++++++++++",
"++++++++++++++++++++++++",
"++++++++++++++++++++++++",
"++++++++@#$%%&*@++++++++",
"+++++++=-;;;;;;->+++++++",
"++++++=,;;;;;;;;,>++++++",
"+++++@-;;';;;;%;;%)+++++",
"+++++#;;;!~{{]^;;;*+++++",
"+++++/;;;(+_:+<;;;&+++++",
"+++++[;;;;}++|;;;;-+++++",
"+++++-;;;12++3,;;;%+++++",
"+++++$;;;~+44+:;;;&+++++",
"+++++*;;;@5;;5@;;;6+++++",
"+++++@-;;;;;;;;;;78+++++",
"++++++>,;;;;;;;;,9++++++",
"+++++++>%;;;;;;79+++++++",
"++++++++)*&[[&68++++++++",
"++++++++++++++++++++++++",
"++++++++++++++++++++++++",
"++++++++++++++++++++++++",
"++++++++++++++++++++++++",
"++++++++++++++++++++++++"};
