/* XPM */
static char * close_pressed_xpm[] = {
/* columns rows colors chars-per-pixel */
"24 24 36 1",
".	c #373737",
" 	c #2F2F2F",
"@	c #3A3531",
"#	c #6E553C",
"$	c #926A43",
"%	c #A47446",
"&	c #926942",
"*	c #6E543B",
"=	c #584737",
"-	c #A27345",
";	c #A97747",
">	c #A87747",
",	c #A37447",
"'	c #A37346",
")	c #393532",
"!	c #31302F",
"~	c #5F4C39",
"{	c #A87646",
"]	c #614D39",
"^	c #303030",
"/	c #6D543B",
"(	c #936A43",
"_	c #6C533B",
":	c #5D4A38",
"<	c #67503A",
"[	c #69513B",
"}	c #66503A",
"|	c #5C4937",
"1	c #A77647",
"2	c #5F4B39",
"3	c #5E4B38",
"4	c #70563C",
"5	c #A27346",
"6	c #383431",
"7	c #564637",
"8	c #916942",
/* pixels */
"........................",
"                        ",
"                        ",
"                        ",
"                        ",
"        @#$%%&*@        ",
"       =-;;;;;;-=       ",
"      =>;;;;;;;;>=      ",
"     @-;;,;;;;';;')     ",
"     #;;;!~{{]^;;;/     ",
"     (;;;_ :: <;;;&     ",
"     ';;;;[  };;;;-     ",
"     -;;;>|  =1;;;'     ",
"     $;;;2 __ 3;;;&     ",
"     *;;;@4;;4@;;;_     ",
"     @-;;;;;;;;;;56     ",
"      =>;;;;;;;;>7      ",
"       =';;;;;;57       ",
"        )/8''8_6        ",
"                        ",
"                        ",
"                        ",
"                        ",
"                        "
};
