/* XPM */
static char * close_pressed_xpm[] = {
"24 24 35 1",
" 	c None",
".	c #373737",
"+	c #2F2F2F",
"@	c #372F2F",
"#	c #612D32",
"$	c #7D2B33",
"%	c #8B2A34",
"&	c #602D32",
"*	c #4F2D31",
"=	c #8A2A33",
"-	c #8F2A34",
";	c #4F2E31",
">	c #8E2A34",
",	c #8B2C35",
"'	c #8A2B34",
")	c #372F30",
"!	c #312F2F",
"~	c #552D31",
"{	c #562D31",
"]	c #302F2F",
"^	c #602C32",
"/	c #7E2B33",
"(	c #5F2D32",
"_	c #532D31",
":	c #5B2C31",
"<	c #8A2A34",
"[	c #5D2D32",
"}	c #5A2D31",
"|	c #522D30",
"1	c #542D31",
"2	c #622D32",
"3	c #5F2C31",
"4	c #362E2F",
"5	c #4E2E31",
"6	c #7C2B33",
"........................",
"++++++++++++++++++++++++",
"++++++++++++++++++++++++",
"++++++++++++++++++++++++",
"++++++++++++++++++++++++",
"++++++++@#$%%$&@++++++++",
"+++++++*=------=;+++++++",
"++++++*>-------->;++++++",
"+++++@=--,----'--')+++++",
"+++++#---!~>>{]---^+++++",
"+++++/---(+__+:---$+++++",
"+++++<----[++}----=+++++",
"+++++=--->|++*>---'+++++",
"+++++$---~+((+1---$+++++",
"+++++&---@2--2@---3+++++",
"+++++@=----------'4+++++",
"++++++;>-------->5++++++",
"+++++++;'------'5+++++++",
"++++++++)^6<<634++++++++",
"++++++++++++++++++++++++",
"++++++++++++++++++++++++",
"++++++++++++++++++++++++",
"++++++++++++++++++++++++",
"++++++++++++++++++++++++"};
