/* XPM */
static char * close_prelight_xpm[] = {
/* columns rows colors chars-per-pixel */
"24 24 36 1",
".	c #373737",
" 	c #2F2F2F",
"@	c #3D3535",
"#	c #835150",
"$	c #B36563",
"%	c #CA6E6C",
"&	c #B26463",
"*	c #825150",
"=	c #654544",
"-	c #C86D6B",
";	c #D1716F",
">	c #654545",
",	c #D0716F",
"'	c #C96E6C",
")	c #3C3535",
"!	c #323030",
"~	c #6F4949",
"{	c #CF706E",
"]	c #714A49",
"^	c #313030",
"/	c #B36564",
"(	c #7F504F",
"_	c #6C4847",
":	c #6D4847",
"<	c #7A4D4C",
"[	c #7C4F4E",
"}	c #784D4C",
"|	c #6B4746",
"1	c #6E4948",
"2	c #80504F",
"3	c #6D4848",
"4	c #855251",
"5	c #81504F",
"6	c #3B3434",
"7	c #634444",
"8	c #B16462",
/* pixels */
"........................",
"                        ",
"                        ",
"                        ",
"                        ",
"        @#$%%&*@        ",
"       =-;;;;;;->       ",
"      =,;;;;;;;;,>      ",
"     @-;;';;;;';;')     ",
"     #;;;!~{{]^;;;*     ",
"     /;;;( _: <;;;&     ",
"     ';;;;[  };;;;-     ",
"     -;;;,|  ={;;;'     ",
"     $;;;1 22 3;;;&     ",
"     *;;;@4;;4@;;;5     ",
"     @-;;;;;;;;;;-6     ",
"      >,;;;;;;;;,7      ",
"       >';;;;;;-7       ",
"        )*8''856        ",
"                        ",
"                        ",
"                        ",
"                        ",
"                        "
};
