/* XPM */
static char * close_prelight_xpm[] = {
"24 24 41 1",
" 	c None",
".	c #373737",
"+	c #2F2F2F",
"@	c #3F2E30",
"#	c #8D2933",
"$	c #C22535",
"%	c #DC2336",
"&	c #C12435",
"*	c #8C2833",
"=	c #6B2B32",
"-	c #DA2235",
";	c #E42236",
">	c #E32236",
",	c #DB2437",
"'	c #DA2336",
")	c #3E2F30",
"!	c #322F2F",
"~	c #762A32",
"{	c #E22236",
"]	c #792A32",
"^	c #312F2F",
"/	c #8B2833",
"(	c #C32535",
"_	c #892933",
":	c #732A31",
"<	c #742A32",
"[	c #832932",
"}	c #DB2235",
"|	c #852933",
"1	c #812932",
"2	c #E22336",
"3	c #722A31",
"4	c #6C2A31",
"5	c #E12236",
"6	c #8A2933",
"7	c #752A32",
"8	c #8F2933",
"9	c #8A2832",
"0	c #3D2E2F",
"a	c #692B31",
"b	c #C02434",
"........................",
"++++++++++++++++++++++++",
"++++++++++++++++++++++++",
"++++++++++++++++++++++++",
"++++++++++++++++++++++++",
"++++++++@#$%%&*@++++++++",
"+++++++=-;;;;;;-=+++++++",
"++++++=>;;;;;;;;>=++++++",
"+++++@-;;,;;;;';;')+++++",
"+++++#;;;!~{{]^;;;/+++++",
"+++++(;;;_+:<+[;;;&+++++",
"+++++};;;;|++1;;;;-+++++",
"+++++-;;;23++45;;;'+++++",
"+++++$;;;~+66+7;;;&+++++",
"+++++*;;;@8;;8@;;;9+++++",
"+++++@-;;;;;;;;;;'0+++++",
"++++++=>;;;;;;;;>a++++++",
"+++++++=';;;;;;'a+++++++",
"++++++++)/b}}b90++++++++",
"++++++++++++++++++++++++",
"++++++++++++++++++++++++",
"++++++++++++++++++++++++",
"++++++++++++++++++++++++",
"++++++++++++++++++++++++"};
