/* XPM */
static char * close_active_xpm[] = {
"24 24 38 1",
" 	c None",
".	c #EEEEEE",
"+	c #D9D9D9",
"@	c #D8D5D1",
"#	c #D4C0AC",
"$	c #D1B293",
"%	c #CFAB85",
"&	c #D1B393",
"*	c #D4C1AD",
"=	c #D6CABD",
"-	c #CFAB86",
";	c #CFA982",
">	c #D2AE89",
",	c #D0AC87",
"'	c #D8D5D2",
")	c #F7F6F6",
"!	c #E8D9CA",
"~	c #CFAA83",
"{	c #E7D8C8",
"]	c #F8F7F7",
"^	c #D1B292",
"/	c #E3D1BD",
"(	c #F8F8F8",
"_	c #E9DBCC",
":	c #E9DACB",
"<	c #E5D3C1",
"[	c #E4D2C0",
"}	c #E5D4C3",
"|	c #D0AA83",
"1	c #EADDD0",
"2	c #D0AA84",
"3	c #E8DACA",
"4	c #E3D0BD",
"5	c #F5F2EE",
"6	c #E3CFBA",
"7	c #D4C0AD",
"8	c #D6C9BD",
"9	c #D1B394",
"........................",
"++++++++++++++++++++++++",
"++++++++++++++++++++++++",
"++++++++++++++++++++++++",
"++++++++++++++++++++++++",
"++++++++@#$%%&*@++++++++",
"+++++++=-;;;;;;-=+++++++",
"++++++=;;;;;;;;;;=++++++",
"+++++@-;;>;;;;>;;,'+++++",
"+++++#;;;)!~~{];;;#+++++",
"+++++^;;;/(_:(<;;;&+++++",
"+++++-;;;;[((};;;;-+++++",
"+++++-;;;|_((12;;;,+++++",
"+++++$;;;3(44(:;;;&+++++",
"+++++*;;;56;;65;;;7+++++",
"+++++@-;;;;;;;;;;,'+++++",
"++++++=;;;;;;;;;;8++++++",
"+++++++=,;;;;;;,8+++++++",
"++++++++'#9--97'++++++++",
"++++++++++++++++++++++++",
"++++++++++++++++++++++++",
"++++++++++++++++++++++++",
"++++++++++++++++++++++++",
"++++++++++++++++++++++++"};
