/* XPM */
static char *close_active[] = {
/* columns rows colors chars-per-pixel */
"24 24 41 1",
".	c #EEEEEE",
" 	c #D9D9D9",
"@	c #D7D5CF",
"#	c #D1C29F",
"$	c #CBB57E",
"%	c #C8AE6D",
"&	c #CCB57F",
"*	c #D1C2A0",
"=	c #D4CAB4",
"-	c #C9AE6F",
";	c #C8AC69",
">	c #D4CBB5",
",	c #C8AC6A",
"'	c #CBB172",
")	c #CBB171",
"!	c #C9AF6F",
"~	c #D8D5D0",
"{	c #F7F6F5",
"]	c #E5DAC0",
"^	c #C8AD6A",
"/	c #E5D9BE",
"(	c #F8F7F7",
"_	c #D0C2A0",
":	c #CBB47E",
"<	c #E0D2B1",
"[	c #F8F8F8",
"}	c #E6DCC3",
"|	c #E6DBC2",
"1	c #E2D5B6",
"2	c #C9AE6E",
"3	c #E1D4B4",
"4	c #E2D6B7",
"5	c #C9AD6B",
"6	c #E7DCC3",
"7	c #E7DEC7",
"8	c #E6DBC1",
"9	c #E0D2B0",
"0	c #F4F2EC",
"a	c #DFD0AD",
"b	c #C9AF70",
"c	c #D3CAB5",
/* pixels */
"........................",
"                        ",
"                        ",
"                        ",
"                        ",
"        @#$%%&*@        ",
"       =-;;;;;;->       ",
"      =,;;;;;;;;,>      ",
"     @-;;';;;;);;!~     ",
"     #;;;{]^^/(;;;_     ",
"     :;;;<[}|[1;;;&     ",
"     2;;;;3[[4;;;;-     ",
"     -;;;56[[75;;;!     ",
"     $;;;8[99[8;;;&     ",
"     *;;;0a;;a0;;;_     ",
"     @-;;;;;;;;;;b~     ",
"      >,;;;;;;;;,c      ",
"       >!;;;;;;bc       ",
"        ~_&22&_~        ",
"                        ",
"                        ",
"                        ",
"                        ",
"                        "
};
