/* XPM */
static char * close_pressed_xpm[] = {
/* columns rows colors chars-per-pixel */
"24 24 42 1",
".	c #EEEEEE",
" 	c #D9D9D9",
"@	c #D4D2CD",
"#	c #BFB291",
"$	c #B19B68",
"%	c #A99053",
"&	c #B19C68",
"*	c #C0B292",
"=	c #C9C0AB",
"-	c #A99154",
";	c #A78D4D",
">	c #A78D4E",
",	c #AC9457",
"'	c #AC9357",
")	c #AA9155",
"!	c #D5D3CE",
"~	c #F6F6F5",
"{	c #D8CEB5",
"]	c #A88E4E",
"^	c #D7CDB2",
"/	c #F7F7F7",
"(	c #B09B67",
"_	c #D0C3A3",
":	c #F8F8F8",
"<	c #DAD0B8",
"[	c #DAD0B7",
"}	c #D2C6A9",
"|	c #D1C5A7",
"1	c #D3C8AB",
"2	c #A88E4F",
"3	c #DAD1B9",
"4	c #DCD4BE",
"5	c #A88F50",
"6	c #D9CFB6",
"7	c #CFC2A2",
"8	c #D9CFB7",
"9	c #F1EFEA",
"0	c #CEC09E",
"a	c #BFB292",
"b	c #AA9255",
"c	c #C9C0AC",
"d	c #B19C69",
/* pixels */
"........................",
"                        ",
"                        ",
"                        ",
"                        ",
"        @#$%%&*@        ",
"       =-;;;;;;-=       ",
"      =>;;;;;;;;>=      ",
"     @-;;,;;;;';;)!     ",
"     #;;;~{]]^/;;;#     ",
"     (;;;_:<[:};;;&     ",
"     %;;;;|::1;;;;-     ",
"     -;;;23::45;;;)     ",
"     $;;;6:77:8;;;&     ",
"     *;;;90;;09;;;a     ",
"     @-;;;;;;;;;;b!     ",
"      =>;;;;;;;;>c      ",
"       =);;;;;;bc       ",
"        !#d%%da!        ",
"                        ",
"                        ",
"                        ",
"                        ",
"                        "
};
