/* XPM */
static char * close_prelight_xpm[] = {
"24 24 34 1",
" 	c None",
".	c #EEEEEE",
"+	c #D9D9D9",
"@	c #D9D7D4",
"#	c #DDCCBC",
"$	c #DFC5AB",
"%	c #DFC1A2",
"&	c #DDCDBC",
"*	c #DCD1C7",
"=	c #E0C1A3",
"-	c #E0C0A0",
";	c #E2C4A6",
">	c #E2C3A5",
",	c #DAD7D5",
"'	c #F7F7F6",
")	c #EFE2D6",
"!	c #E0C1A1",
"~	c #EEE1D4",
"{	c #F8F8F7",
"]	c #DCCCBC",
"^	c #ECDCCC",
"/	c #F8F8F8",
"(	c #EFE3D7",
"_	c #EDDECF",
":	c #ECDDCE",
"<	c #EDDFD0",
"[	c #EFE4D8",
"}	c #F0E5DA",
"|	c #EFE3D6",
"1	c #F6F4F1",
"2	c #ECDBCA",
"3	c #E0C2A4",
"4	c #DBD1C6",
"5	c #DFC5AC",
"........................",
"++++++++++++++++++++++++",
"++++++++++++++++++++++++",
"++++++++++++++++++++++++",
"++++++++++++++++++++++++",
"++++++++@#$%%$&@++++++++",
"+++++++*=------=*+++++++",
"++++++*----------*++++++",
"+++++@=--;---->--=,+++++",
"+++++#---')!!~{---]+++++",
"+++++$---^/((/_---$+++++",
"+++++%----://<----=+++++",
"+++++=---![//}!---=+++++",
"+++++$---|/^^/|---$+++++",
"+++++&---12--21---]+++++",
"+++++@=----------3,+++++",
"++++++*----------4++++++",
"+++++++*=------34+++++++",
"++++++++,]5%%5],++++++++",
"++++++++++++++++++++++++",
"++++++++++++++++++++++++",
"++++++++++++++++++++++++",
"++++++++++++++++++++++++",
"++++++++++++++++++++++++"};
