/* XPM */
static char * close_prelight_xpm[] = {
/* columns rows colors chars-per-pixel */
"24 24 39 1",
".	c #373737",
" 	c #2F2F2F",
"@	c #38363D",
"#	c #675B80",
"$	c #8774AE",
"%	c #9680C4",
"&	c #8674AD",
"*	c #675B7F",
"=	c #534B63",
"-	c #957FC3",
";	c #9B84CB",
">	c #9A83CA",
",	c #9680C3",
"'	c #9580C3",
")	c #38363C",
"!	c #313132",
"~	c #5A516D",
"{	c #9A83C9",
"]	c #5B526F",
"^	c #303031",
"/	c #665A7E",
"(	c #8775AF",
"_	c #65597C",
":	c #574F69",
"<	c #584F6A",
"[	c #615677",
"}	c #635879",
"|	c #605676",
"1	c #574E69",
"2	c #534C63",
"3	c #59506C",
"4	c #655A7D",
"5	c #59506B",
"6	c #685C82",
"7	c #655A7E",
"8	c #957FC2",
"9	c #37353B",
"0	c #524A61",
"a	c #8673AC",
/* pixels */
"........................",
"                        ",
"                        ",
"                        ",
"                        ",
"        @#$%%&*@        ",
"       =-;;;;;;-=       ",
"      =>;;;;;;;;>=      ",
"     @-;;,;;;;';;')     ",
"     #;;;!~{{]^;;;/     ",
"     (;;;_ :< [;;;&     ",
"     ,;;;;}  |;;;;-     ",
"     -;;;>1  2{;;;'     ",
"     $;;;3 44 5;;;&     ",
"     *;;;@6;;6@;;;7     ",
"     @-;;;;;;;;;;89     ",
"      =>;;;;;;;;>0      ",
"       =';;;;;;80       ",
"        )/a,,a79        ",
"                        ",
"                        ",
"                        ",
"                        ",
"                        "
};
