/* XPM */
static char * close_pressed_xpm[] = {
"24 24 35 1",
" 	c None",
".	c #373737",
"+	c #2F2F2F",
"@	c #343139",
"#	c #4E3A6D",
"$	c #5F3F90",
"%	c #6742A1",
"&	c #5F3F8F",
"*	c #4D396C",
"=	c #433657",
"-	c #6742A0",
";	c #6A43A6",
">	c #6A43A5",
",	c #6843A0",
"'	c #302F31",
")	c #47375E",
"!	c #6942A5",
"~	c #473760",
"{	c #303030",
"]	c #5F4090",
"^	c #4C396A",
"/	c #45365B",
"(	c #45365C",
"_	c #4A3866",
":	c #4B3968",
"<	c #4A3865",
"[	c #44365B",
"}	c #6943A4",
"|	c #46375D",
"1	c #4D396B",
"2	c #4F3A6E",
"3	c #67429F",
"4	c #333038",
"5	c #423655",
"6	c #5E3F8E",
"........................",
"++++++++++++++++++++++++",
"++++++++++++++++++++++++",
"++++++++++++++++++++++++",
"++++++++++++++++++++++++",
"++++++++@#$%%&*@++++++++",
"+++++++=-;;;;;;-=+++++++",
"++++++=>;;;;;;;;>=++++++",
"+++++@-;;,;;;;-;;-@+++++",
"+++++#;;;')!!~{;;;*+++++",
"+++++];;;^+/(+_;;;&+++++",
"+++++-;;;;:++<;;;;-+++++",
"+++++-;;;>[++=};;;-+++++",
"+++++$;;;|+11+|;;;&+++++",
"+++++*;;;@2;;2@;;;1+++++",
"+++++@-;;;;;;;;;;34+++++",
"++++++=>;;;;;;;;>5++++++",
"+++++++=-;;;;;;35+++++++",
"++++++++@*6--614++++++++",
"++++++++++++++++++++++++",
"++++++++++++++++++++++++",
"++++++++++++++++++++++++",
"++++++++++++++++++++++++",
"++++++++++++++++++++++++"};
