/* XPM */
static char *close_active[] = {
/* columns rows colors chars-per-pixel */
"24 24 38 1",
".	c #373737",
" 	c #2F2F2F",
"@	c #37343B",
"#	c #5C4F77",
"$	c #7661A0",
"%	c #8269B4",
"&	c #75609F",
"*	c #5C4E77",
"=	c #4C435D",
"-	c #8168B3",
";	c #866CBA",
">	c #4C445D",
",	c #856CB9",
"'	c #826AB3",
")	c #8269B3",
"!	c #313032",
"~	c #524766",
"{	c #856BB9",
"]	c #534868",
"^	c #303030",
"/	c #5B4E76",
"(	c #7661A1",
"_	c #5A4D74",
":	c #4F4663",
"<	c #504664",
"[	c #574B6F",
"}	c #594C71",
"|	c #564B6E",
"1	c #4F4562",
"2	c #4C435E",
"3	c #856BB8",
"4	c #514765",
"5	c #5B4E75",
"6	c #504764",
"7	c #5D5079",
"8	c #8169B2",
"9	c #36333A",
"0	c #4B435C",
/* pixels */
"........................",
"                        ",
"                        ",
"                        ",
"                        ",
"        @#$%%&*@        ",
"       =-;;;;;;->       ",
"      =,;;;;;;;;,>      ",
"     @-;;';;;;);;)@     ",
"     #;;;!~{{]^;;;/     ",
"     (;;;_ :< [;;;&     ",
"     );;;;}  |;;;;-     ",
"     -;;;,1  23;;;)     ",
"     $;;;4 55 6;;;&     ",
"     *;;;@7;;7@;;;5     ",
"     @-;;;;;;;;;;89     ",
"      >,;;;;;;;;,0      ",
"       >);;;;;;80       ",
"        @/&))&59        ",
"                        ",
"                        ",
"                        ",
"                        ",
"                        "
};
