/* XPM */
static char * close_active_xpm[] = {
"24 24 39 1",
" 	c None",
".	c #373737",
"+	c #2F2F2F",
"@	c #36333D",
"#	c #5C4481",
"$	c #7550AF",
"%	c #8155C5",
"&	c #744FAE",
"*	c #5B4480",
"=	c #4C3C63",
"-	c #8055C4",
";	c #8557CC",
">	c #4C3D63",
",	c #8457CB",
"'	c #8156C4",
")	c #8155C4",
"!	c #36333C",
"~	c #313032",
"{	c #513F6D",
"]	c #8456CA",
"^	c #523F6F",
"/	c #303031",
"(	c #5B437F",
"_	c #5A437D",
":	c #4F3E6A",
"<	c #503E6B",
"[	c #574177",
"}	c #58427A",
"|	c #564176",
"1	c #4F3D69",
"2	c #4C3C64",
"3	c #8457CA",
"4	c #513F6C",
"5	c #5A437E",
"6	c #5D4582",
"7	c #8055C3",
"8	c #35323B",
"9	c #4B3C62",
"0	c #744FAD",
"........................",
"++++++++++++++++++++++++",
"++++++++++++++++++++++++",
"++++++++++++++++++++++++",
"++++++++++++++++++++++++",
"++++++++@#$%%&*@++++++++",
"+++++++=-;;;;;;->+++++++",
"++++++=,;;;;;;;;,>++++++",
"+++++@-;;';;;;);;)!+++++",
"+++++#;;;~{]]^/;;;(+++++",
"+++++$;;;_+:<+[;;;&+++++",
"+++++);;;;}++|;;;;-+++++",
"+++++-;;;,1++23;;;)+++++",
"+++++$;;;4+55+<;;;&+++++",
"+++++*;;;@6;;6@;;;5+++++",
"+++++@-;;;;;;;;;;78+++++",
"++++++>,;;;;;;;;,9++++++",
"+++++++>);;;;;;79+++++++",
"++++++++!(0))058++++++++",
"++++++++++++++++++++++++",
"++++++++++++++++++++++++",
"++++++++++++++++++++++++",
"++++++++++++++++++++++++",
"++++++++++++++++++++++++"};
