/* XPM */
static char * close_pressed_xpm[] = {
/* columns rows colors chars-per-pixel */
"24 24 37 1",
".	c #373737",
" 	c #2F2F2F",
"@	c #343238",
"#	c #4E4265",
"$	c #5F4D84",
"%	c #675292",
"&	c #5F4D83",
"*	c #4D4265",
"=	c #433B52",
"-	c #675291",
";	c #6A5497",
">	c #433C52",
",	c #6A5496",
"'	c #685392",
")	c #343338",
"!	c #303031",
"~	c #473E58",
"{	c #695396",
"]	c #473E5A",
"^	c #303030",
"/	c #4D4264",
"(	c #5F4E84",
"_	c #4C4263",
":	c #453D56",
"<	c #4A405F",
"[	c #4B4161",
"}	c #4A405E",
"|	c #443C55",
"1	c #695496",
"2	c #463E58",
"3	c #4D4263",
"4	c #463D57",
"5	c #4F4366",
"6	c #4D4163",
"7	c #333237",
"8	c #423B51",
"9	c #5E4D82",
/* pixels */
"........................",
"                        ",
"                        ",
"                        ",
"                        ",
"        @#$%%&*@        ",
"       =-;;;;;;->       ",
"      =,;;;;;;;;,>      ",
"     @-;;';;;;%;;%)     ",
"     #;;;!~{{]^;;;/     ",
"     (;;;_ :: <;;;&     ",
"     %;;;;[  };;;;-     ",
"     -;;;,|  =1;;;%     ",
"     $;;;2 33 4;;;&     ",
"     *;;;@5;;5@;;;6     ",
"     @-;;;;;;;;;;-7     ",
"      >,;;;;;;;;,8      ",
"       >%;;;;;;-8       ",
"        )/9%%967        ",
"                        ",
"                        ",
"                        ",
"                        ",
"                        "
};
