/* XPM */
static char * close_prelight_xpm[] = {
/* columns rows colors chars-per-pixel */
"24 24 40 1",
".	c #EEEEEE",
" 	c #D9D9D9",
"@	c #CFD6D5",
"#	c #A1CAC2",
"$	c #81C1B4",
"%	c #71BCAD",
"&	c #82C1B4",
"*	c #A2CAC2",
"=	c #B6CFCA",
"-	c #72BCAD",
";	c #6DBBAB",
">	c #B6D0CA",
",	c #6EBBAB",
"'	c #76BFB0",
")	c #75BFB0",
"!	c #73BDAE",
"~	c #D1D7D5",
"{	c #F5F7F6",
"]	c #C2E0DA",
"^	c #6EBCAC",
"/	c #BFDFD9",
"(	c #F7F7F7",
"_	c #A2C9C1",
":	c #81C1B3",
"<	c #B3D9D1",
"[	c #F8F8F8",
"}	c #C4E1DB",
"|	c #C3E1DB",
"1	c #B7DCD4",
"2	c #B6DBD3",
"3	c #B9DCD5",
"4	c #6FBCAC",
"5	c #C5E2DC",
"6	c #C9E3DE",
"7	c #C2E1DA",
"8	c #B2D9D1",
"9	c #ECF3F2",
"0	c #AFD8D0",
"a	c #74BDAE",
"b	c #83C1B4",
/* pixels */
"........................",
"                        ",
"                        ",
"                        ",
"                        ",
"        @#$%%&*@        ",
"       =-;;;;;;->       ",
"      =,;;;;;;;;,>      ",
"     @-;;';;;;);;!~     ",
"     #;;;{]^^/(;;;_     ",
"     :;;;<[}|[1;;;&     ",
"     -;;;;2[[3;;;;-     ",
"     -;;;45[[64;;;!     ",
"     $;;;7[88[|;;;&     ",
"     *;;;90;;09;;;*     ",
"     @-;;;;;;;;;;a~     ",
"      >,;;;;;;;;,=      ",
"       >!;;;;;;a=       ",
"        ~_b--b*~        ",
"                        ",
"                        ",
"                        ",
"                        ",
"                        "
};
