/* XPM */
static char *close_active[] = {
/* columns rows colors chars-per-pixel */
"24 24 40 1",
".	c #EEEEEE",
" 	c #D9D9D9",
"@	c #CED5D3",
"#	c #98C1B9",
"$	c #72B3A6",
"%	c #5FAC9C",
"&	c #73B3A6",
"*	c #AFCAC5",
"=	c #60AC9D",
"-	c #5AAA9A",
";	c #B0CAC5",
">	c #5BAA9A",
",	c #64AFA0",
"'	c #63AFA0",
")	c #61AD9E",
"!	c #CFD5D4",
"~	c #F5F6F6",
"{	c #BADAD3",
"]	c #5BAB9B",
"^	c #B8D8D2",
"/	c #F7F7F7",
"(	c #71B3A6",
"_	c #A9D1C9",
":	c #F8F8F8",
"<	c #BDDBD5",
"[	c #BCDBD5",
"}	c #AFD4CC",
"|	c #ADD3CB",
"1	c #B1D5CD",
"2	c #5CAB9B",
"3	c #BEDBD5",
"4	c #C2DDD8",
"5	c #5DAB9C",
"6	c #BBDAD4",
"7	c #BCDAD4",
"8	c #EBF2F0",
"9	c #A5CFC7",
"0	c #99C1B9",
"a	c #62AD9E",
"b	c #73B4A7",
/* pixels */
"........................",
"                        ",
"                        ",
"                        ",
"                        ",
"        @#$%%&#@        ",
"       *=------=;       ",
"      *>-------->;      ",
"     @=--,----'--)!     ",
"     #---~{]]^/---#     ",
"     (---_:<[:}---&     ",
"     =----|::1----=     ",
"     =---23::45---)     ",
"     $---6:__:7---&     ",
"     #---89--98---0     ",
"     @=----------a!     ",
"      ;>-------->;      ",
"       ;)------a;       ",
"        !#b==b0!        ",
"                        ",
"                        ",
"                        ",
"                        ",
"                        "
};
