/* XPM */
static char * close_pressed_xpm[] = {
/* columns rows colors chars-per-pixel */
"24 24 41 1",
".	c #EEEEEE",
" 	c #D9D9D9",
"@	c #CDD1D0",
"#	c #91ADA7",
"$	c #68938A",
"%	c #54867C",
"&	c #69948B",
"*	c #92ADA8",
"=	c #ABBDB9",
"-	c #55877D",
";	c #4E8378",
">	c #ACBDBA",
",	c #4F8379",
"'	c #588A80",
")	c #588A7F",
"!	c #56887D",
"~	c #CED2D1",
"{	c #F5F6F5",
"]	c #B6CAC6",
"^	c #4F8479",
"/	c #B3C8C4",
"(	c #F7F7F7",
"_	c #92ADA7",
":	c #A4BEB8",
"<	c #F8F8F8",
"[	c #B8CCC8",
"}	c #A9C2BD",
"|	c #54877C",
"1	c #A7C0BB",
"2	c #ABC3BE",
"3	c #50847A",
"4	c #B9CDC9",
"5	c #BED0CC",
"6	c #51857A",
"7	c #B6CBC7",
"8	c #A3BDB8",
"9	c #B7CBC7",
"0	c #EAEEED",
"a	c #9FBBB5",
"b	c #56887E",
"c	c #6A948B",
/* pixels */
"........................",
"                        ",
"                        ",
"                        ",
"                        ",
"        @#$%%&*@        ",
"       =-;;;;;;->       ",
"      =,;;;;;;;;,>      ",
"     @-;;';;;;);;!~     ",
"     #;;;{]^^/(;;;_     ",
"     $;;;:<[[<};;;&     ",
"     |;;;;1<<2;;;;-     ",
"     -;;;34<<56;;;!     ",
"     $;;;7<88<9;;;&     ",
"     *;;;0a;;a0;;;*     ",
"     @-;;;;;;;;;;b~     ",
"      >,;;;;;;;;,>      ",
"       >!;;;;;;b>       ",
"        ~_c||c*~        ",
"                        ",
"                        ",
"                        ",
"                        ",
"                        "
};
