/* XPM */
static char * close_prelight_xpm[] = {
/* columns rows colors chars-per-pixel */
"24 24 28 1",
".	c #373737",
" 	c #2F2F2F",
"@	c #393939",
"#	c #6B6B6B",
"$	c #8D8D8D",
"%	c #9E9E9E",
"&	c #565656",
"*	c #9D9D9D",
"=	c #A3A3A3",
"-	c #A2A2A2",
";	c #313131",
">	c #5D5D5D",
",	c #5E5E5E",
"'	c #303030",
")	c #6A6A6A",
"!	c #8E8E8E",
"~	c #696969",
"{	c #5A5A5A",
"]	c #5B5B5B",
"^	c #646464",
"/	c #666666",
"(	c #A1A1A1",
"_	c #5C5C5C",
":	c #6D6D6D",
"<	c #9C9C9C",
"[	c #383838",
"}	c #545454",
"|	c #8C8C8C",
/* pixels */
"........................",
"                        ",
"                        ",
"                        ",
"                        ",
"        @#$%%$#@        ",
"       &*======*&       ",
"      &-========-&      ",
"     @*==*====*==*@     ",
"     #===;>--,'===)     ",
"     !===~ {] ^===$     ",
"     *====/  ^====*     ",
"     *===-{  &(===*     ",
"     $===_ ~~ _===$     ",
"     #===@:==:@===~     ",
"     @*==========<[     ",
"      &-========-}      ",
"       &*======<}       ",
"        @)|**|~[        ",
"                        ",
"                        ",
"                        ",
"                        ",
"                        "
};
