/* XPM */
static char * close_active_xpm[] = {
"24 24 32 1",
" 	c None",
".	c #373737",
"+	c #2F2F2F",
"@	c #343435",
"#	c #4D4D53",
"$	c #5E5D66",
"%	c #666670",
"&	c #4D4C52",
"*	c #424246",
"=	c #66656F",
"-	c #696873",
";	c #434246",
">	c #676670",
",	c #666570",
"'	c #303030",
")	c #46464A",
"!	c #686772",
"~	c #47464B",
"{	c #5F5E67",
"]	c #4C4B51",
"^	c #454448",
"/	c #454549",
"(	c #4A494E",
"_	c #4B4A50",
":	c #49494E",
"<	c #444448",
"[	c #46454A",
"}	c #4C4C51",
"|	c #4E4E53",
"1	c #333334",
"2	c #424145",
"3	c #5D5D65",
"........................",
"++++++++++++++++++++++++",
"++++++++++++++++++++++++",
"++++++++++++++++++++++++",
"++++++++++++++++++++++++",
"++++++++@#$%%$&@++++++++",
"+++++++*=------=;+++++++",
"++++++*----------;++++++",
"+++++@=-->----,--,@+++++",
"+++++#---')!!~'---&+++++",
"+++++{---]+^/+(---$+++++",
"+++++,----_++:----=+++++",
"+++++=----<++*!---,+++++",
"+++++$---[+}}+/---$+++++",
"+++++&---@|--|@---}+++++",
"+++++@=----------=1+++++",
"++++++;----------2++++++",
"+++++++;,------=2+++++++",
"++++++++@&3,,3}1++++++++",
"++++++++++++++++++++++++",
"++++++++++++++++++++++++",
"++++++++++++++++++++++++",
"++++++++++++++++++++++++",
"++++++++++++++++++++++++"};
