/* XPM */
static char * close_pressed_xpm[] = {
"24 24 30 1",
" 	c None",
".	c #373737",
"+	c #2F2F2F",
"@	c #323233",
"#	c #434246",
"$	c #4E4D53",
"%	c #535259",
"&	c #3C3C3E",
"*	c #535258",
"=	c #55545B",
"-	c #54535A",
";	c #333333",
">	c #303030",
",	c #3E3E41",
"'	c #3F3E41",
")	c #424245",
"!	c #4E4E53",
"~	c #3D3D3F",
"{	c #3D3D40",
"]	c #404043",
"^	c #414144",
"/	c #3D3C3F",
"(	c #3C3B3E",
"_	c #3E3E40",
":	c #3E3D40",
"<	c #444347",
"[	c #424145",
"}	c #323232",
"|	c #3B3B3D",
"1	c #4D4D52",
"........................",
"++++++++++++++++++++++++",
"++++++++++++++++++++++++",
"++++++++++++++++++++++++",
"++++++++++++++++++++++++",
"++++++++@#$%%$#@++++++++",
"+++++++&*======*&+++++++",
"++++++&==========&++++++",
"+++++@*==-====%==%;+++++",
"+++++#===>,--'>===)+++++",
"+++++!===)+~{+]===$+++++",
"+++++%====^++]====*+++++",
"+++++*====/++(====%+++++",
"+++++$===_+))+:===$+++++",
"+++++#===@<==<@===[+++++",
"+++++@*==========%}+++++",
"++++++&==========|++++++",
"+++++++&%======%|+++++++",
"++++++++;)1%%1[}++++++++",
"++++++++++++++++++++++++",
"++++++++++++++++++++++++",
"++++++++++++++++++++++++",
"++++++++++++++++++++++++",
"++++++++++++++++++++++++"};
