/* XPM */
static char * close_prelight_xpm[] = {
"24 24 37 1",
" 	c None",
".	c #373737",
"+	c #2F2F2F",
"@	c #353536",
"#	c #55545B",
"$	c #6A6974",
"%	c #747380",
"&	c #696874",
"*	c #54545B",
"=	c #47474B",
"-	c #73727F",
";	c #777684",
">	c #777683",
",	c #737380",
"'	c #303031",
")	c #4C4B51",
"!	c #767583",
"~	c #4D4C52",
"{	c #303030",
"]	c #54535A",
"^	c #6A6975",
"/	c #535259",
"(	c #4A494F",
"_	c #4A4A4F",
":	c #505056",
"<	c #737280",
"[	c #515158",
"}	c #504F56",
"|	c #49494E",
"1	c #47474C",
"2	c #4B4B50",
"3	c #53535A",
"4	c #4B4A50",
"5	c #56555C",
"6	c #343435",
"7	c #46464A",
"8	c #696873",
"........................",
"++++++++++++++++++++++++",
"++++++++++++++++++++++++",
"++++++++++++++++++++++++",
"++++++++++++++++++++++++",
"++++++++@#$%%&*@++++++++",
"+++++++=-;;;;;;-=+++++++",
"++++++=>;;;;;;;;>=++++++",
"+++++@-;;%;;;;,;;,@+++++",
"+++++#;;;')!!~{;;;]+++++",
"+++++^;;;/+(_+:;;;&+++++",
"+++++<;;;;[++};;;;-+++++",
"+++++-;;;>|++1!;;;,+++++",
"+++++$;;;2+33+4;;;&+++++",
"+++++*;;;@5;;5@;;;3+++++",
"+++++@-;;;;;;;;;;-6+++++",
"++++++=>;;;;;;;;>7++++++",
"+++++++=,;;;;;;-7+++++++",
"++++++++@]8<<836++++++++",
"++++++++++++++++++++++++",
"++++++++++++++++++++++++",
"++++++++++++++++++++++++",
"++++++++++++++++++++++++",
"++++++++++++++++++++++++"};
