/* XPM */
static char *close_active[] = {
/* columns rows colors chars-per-pixel */
"24 24 26 1",
".	c #373737",
" 	c #2F2F2F",
"@	c #616161",
"#	c #7D7D7D",
"$	c #8B8B8B",
"%	c #606060",
"&	c #4F4F4F",
"*	c #8A8A8A",
"=	c #8F8F8F",
"-	c #8E8E8E",
";	c #313131",
">	c #555555",
",	c #565656",
"'	c #303030",
")	c #7E7E7E",
"!	c #5F5F5F",
"~	c #535353",
"{	c #5B5B5B",
"]	c #5D5D5D",
"^	c #5A5A5A",
"/	c #525252",
"(	c #545454",
"_	c #626262",
":	c #363636",
"<	c #4E4E4E",
"[	c #7C7C7C",
/* pixels */
"........................",
"                        ",
"                        ",
"                        ",
"                        ",
"        .@#$$#%.        ",
"       &*======*&       ",
"      &-========-&      ",
"     .*==$====*==*.     ",
"     @===;>--,'===%     ",
"     )===! ~~ {===#     ",
"     *====]  ^====*     ",
"     *===-/  &-===*     ",
"     #===> !! (===#     ",
"     %===._==_.===!     ",
"     .*==========*:     ",
"      &-========-<      ",
"       &*======*<       ",
"        .%[**[!:        ",
"                        ",
"                        ",
"                        ",
"                        ",
"                        "
};
