/* XPM */
static char *close_active[] = {
/* columns rows colors chars-per-pixel */
"24 24 39 1",
".	c #373737",
" 	c #2F2F2F",
"@	c #3B3934",
"#	c #76694B",
"$	c #9E8A5B",
"%	c #B29A63",
"&	c #9E895B",
"*	c #5C5441",
"=	c #B19962",
"-	c #B89F65",
";	c #5D5441",
">	c #B79E65",
",	c #B19A63",
"'	c #3A3834",
")	c #323130",
"!	c #655B45",
"~	c #B79E64",
"{	c #675D45",
"]	c #303030",
"^	c #75684A",
"/	c #9F8B5B",
"(	c #73674A",
"_	c #625943",
":	c #635943",
"<	c #6E6348",
"[	c #B19A62",
"}	c #706449",
"|	c #6D6248",
"1	c #625843",
"2	c #5D5541",
"3	c #B69E64",
"4	c #645B44",
"5	c #74674A",
"6	c #645A44",
"7	c #786B4C",
"8	c #B09962",
"9	c #393733",
"0	c #5B5340",
"a	c #9D895A",
/* pixels */
"........................",
"                        ",
"                        ",
"                        ",
"                        ",
"        @#$%%&#@        ",
"       *=------=;       ",
"      *>-------->;      ",
"     @=--,----=--='     ",
"     #---)!~~{]---^     ",
"     /---( _: <---&     ",
"     [----}  |----=     ",
"     =--->1  23---=     ",
"     $---4 55 6---&     ",
"     #---@7--7@---5     ",
"     @=----------89     ",
"      ;>-------->0      ",
"       ;=------80       ",
"        '^a[[a59        ",
"                        ",
"                        ",
"                        ",
"                        ",
"                        "
};
