/* XPM */
static char * close_pressed_xpm[] = {
"24 24 36 1",
" 	c None",
".	c #373737",
"+	c #2F2F2F",
"@	c #383633",
"#	c #665645",
"$	c #856C51",
"%	c #947757",
"&	c #52483D",
"*	c #937656",
"=	c #997A59",
"-	c #987A59",
";	c #947758",
">	c #947657",
",	c #313030",
"'	c #594D40",
")	c #987958",
"!	c #5A4E40",
"~	c #303030",
"{	c #655544",
"]	c #866D52",
"^	c #645444",
"/	c #574B3F",
"(	c #605142",
"_	c #625343",
":	c #5F5142",
"<	c #564A3E",
"[	c #53483D",
"}	c #987959",
"|	c #584C40",
"1	c #645544",
"2	c #584C3F",
"3	c #675746",
"4	c #937657",
"5	c #373532",
"6	c #51473D",
"7	c #846B51",
"........................",
"++++++++++++++++++++++++",
"++++++++++++++++++++++++",
"++++++++++++++++++++++++",
"++++++++++++++++++++++++",
"++++++++@#$%%$#@++++++++",
"+++++++&*======*&+++++++",
"++++++&-========-&++++++",
"+++++@*==;====>==>@+++++",
"+++++#===,'))!~==={+++++",
"+++++]===^+//+(===$+++++",
"+++++>====_++:====*+++++",
"+++++*===-<++[}===>+++++",
"+++++$===|+11+2===$+++++",
"+++++#===@3==3@===1+++++",
"+++++@*==========45+++++",
"++++++&-========-6++++++",
"+++++++&>======46+++++++",
"++++++++@{7>>715++++++++",
"++++++++++++++++++++++++",
"++++++++++++++++++++++++",
"++++++++++++++++++++++++",
"++++++++++++++++++++++++",
"++++++++++++++++++++++++"};
