/* XPM */
static char * close_pressed_xpm[] = {
/* columns rows colors chars-per-pixel */
"24 24 38 1",
".	c #373737",
" 	c #2F2F2F",
"@	c #383632",
"#	c #645941",
"$	c #81704B",
"%	c #907C50",
"&	c #81704A",
"*	c #635841",
"=	c #504A3A",
"-	c #8E7B4F",
";	c #947F51",
">	c #514A3B",
",	c #937F51",
"'	c #8F7C50",
")	c #8F7B50",
"!	c #313030",
"~	c #574F3D",
"{	c #937E50",
"]	c #58503D",
"^	c #303030",
"/	c #625840",
"(	c #82714B",
"_	c #615740",
":	c #554D3B",
"<	c #554D3C",
"[	c #5D543E",
"}	c #8F7B4F",
"|	c #5F553F",
"1	c #5D533F",
"2	c #544C3B",
"3	c #514A3A",
"4	c #937E51",
"5	c #564E3C",
"6	c #625740",
"7	c #655A42",
"8	c #373531",
"9	c #50493A",
"0	c #806F4A",
/* pixels */
"........................",
"                        ",
"                        ",
"                        ",
"                        ",
"        @#$%%&*@        ",
"       =-;;;;;;->       ",
"      =,;;;;;;;;,>      ",
"     @-;;';;;;);;)@     ",
"     #;;;!~{{]^;;;/     ",
"     (;;;_ :< [;;;&     ",
"     };;;;|  1;;;;-     ",
"     -;;;,2  34;;;)     ",
"     $;;;5 66 5;;;&     ",
"     *;;;@7;;7@;;;6     ",
"     @-;;;;;;;;;;-8     ",
"      >,;;;;;;;;,9      ",
"       >);;;;;;-9       ",
"        @/0}}068        ",
"                        ",
"                        ",
"                        ",
"                        ",
"                        "
};
