/* XPM */
static char * close_prelight_xpm[] = {
"24 24 40 1",
" 	c None",
".	c #373737",
"+	c #2F2F2F",
"@	c #3D3A37",
"#	c #817160",
"$	c #AF957B",
"%	c #C5A889",
"&	c #AE957B",
"*	c #80705F",
"=	c #63594E",
"-	c #C4A688",
";	c #CCAD8D",
">	c #CBAC8C",
",	c #C4A789",
"'	c #C4A788",
")	c #3C3A37",
"!	c #323131",
"~	c #6D6154",
"{	c #CAAC8C",
"]	c #6F6356",
"^	c #313030",
"/	c #7F6F5F",
"(	c #AF967C",
"_	c #7D6D5E",
":	c #6A5E52",
"<	c #6B5F53",
"[	c #77695A",
"}	c #7A6B5C",
"|	c #76685A",
"1	c #695D52",
"2	c #64594F",
"3	c #CAAB8C",
"4	c #6C6054",
"5	c #7E6E5E",
"6	c #827261",
"7	c #7E6F5E",
"8	c #C3A688",
"9	c #3B3936",
"0	c #62584D",
"a	c #AD947A",
"........................",
"++++++++++++++++++++++++",
"++++++++++++++++++++++++",
"++++++++++++++++++++++++",
"++++++++++++++++++++++++",
"++++++++@#$%%&*@++++++++",
"+++++++=-;;;;;;-=+++++++",
"++++++=>;;;;;;;;>=++++++",
"+++++@-;;,;;;;';;')+++++",
"+++++#;;;!~{{]^;;;/+++++",
"+++++(;;;_+:<+[;;;&+++++",
"+++++';;;;}++|;;;;-+++++",
"+++++-;;;>1++23;;;'+++++",
"+++++$;;;4+55+<;;;&+++++",
"+++++*;;;@6;;6@;;;7+++++",
"+++++@-;;;;;;;;;;89+++++",
"++++++=>;;;;;;;;>0++++++",
"+++++++=';;;;;;80+++++++",
"++++++++)/a''a79++++++++",
"++++++++++++++++++++++++",
"++++++++++++++++++++++++",
"++++++++++++++++++++++++",
"++++++++++++++++++++++++",
"++++++++++++++++++++++++"};
