<?xml version="1.0" encoding="UTF-8" standalone="no"?>
<svg
   width="1920"
   height="1080"
   viewBox="0 0 1920 1080"
   version="1.1"
   id="svg8"
   inkscape:version="1.1.1 (1:1.1+202109281949+c3084ef5ed)"
   sodipodi:docname="Mint-Y-Variations.svg"
   inkscape:export-filename="/home/sebastien/mint-yz-theme/Mint-Y-Colors/Mint-Y-Variations.png"
   inkscape:export-xdpi="96"
   inkscape:export-ydpi="96"
   xmlns:inkscape="http://www.inkscape.org/namespaces/inkscape"
   xmlns:sodipodi="http://sodipodi.sourceforge.net/DTD/sodipodi-0.dtd"
   xmlns:xlink="http://www.w3.org/1999/xlink"
   xmlns="http://www.w3.org/2000/svg"
   xmlns:svg="http://www.w3.org/2000/svg">
  <defs
     id="defs2" />
  <sodipodi:namedview
     id="base"
     pagecolor="#e5e5e5"
     bordercolor="#666666"
     borderopacity="1.0"
     inkscape:pageopacity="1"
     inkscape:pageshadow="2"
     inkscape:zoom="1"
     inkscape:cx="738.5"
     inkscape:cy="539.5"
     inkscape:document-units="px"
     inkscape:current-layer="layer1"
     showgrid="false"
     units="px"
     inkscape:lockguides="false"
     inkscape:window-width="1440"
     inkscape:window-height="839"
     inkscape:window-x="0"
     inkscape:window-y="0"
     inkscape:window-maximized="1"
     fit-margin-top="0"
     fit-margin-right="0"
     fit-margin-left="0"
     fit-margin-bottom="0"
     inkscape:snap-bbox="true"
     inkscape:bbox-paths="true"
     inkscape:bbox-nodes="true"
     inkscape:snap-text-baseline="false"
     inkscape:document-rotation="0"
     showborder="false"
     inkscape:showpageshadow="false"
     inkscape:pagecheckerboard="0">
    <inkscape:grid
       type="xygrid"
       id="grid818"
       originx="90"
       originy="0"
       spacingx="20"
       spacingy="20"
       empcolor="#000000"
       empopacity="0.05882353"
       empspacing="10"
       color="#000000"
       opacity="0.03137255" />
  </sodipodi:namedview>
  <g
     inkscape:groupmode="layer"
     id="layer7"
     inkscape:label="Background 1"
     style="display:inline"
     sodipodi:insensitive="true">
    <rect
       y="0"
       x="960"
       height="1080"
       width="960"
       id="rect1218"
       style="display:inline;fill:#404040;fill-opacity:1;stroke:none;stroke-width:0;stroke-opacity:1" />
    <rect
       y="870"
       x="960"
       height="210"
       width="960"
       id="rect1230"
       style="display:inline;vector-effect:none;fill:#000000;fill-opacity:1;stroke:none;stroke-width:0;stroke-linecap:butt;stroke-linejoin:miter;stroke-miterlimit:4;stroke-dasharray:none;stroke-dashoffset:0;stroke-opacity:1" />
    <rect
       y="0"
       x="960"
       height="110"
       width="960"
       id="rect1220"
       style="display:inline;opacity:1;vector-effect:none;fill:#000000;fill-opacity:1;stroke:none;stroke-width:0;stroke-linecap:butt;stroke-linejoin:miter;stroke-miterlimit:4;stroke-dasharray:none;stroke-dashoffset:0;stroke-opacity:1" />
    <text
       xml:space="preserve"
       style="font-style:normal;font-variant:normal;font-weight:normal;font-stretch:normal;font-size:24px;line-height:1.25;font-family:'DejaVu Sans';-inkscape-font-specification:'DejaVu Sans';text-align:start;letter-spacing:0px;word-spacing:0px;text-anchor:start;display:inline;fill:#ffffff;fill-opacity:1;stroke:none"
       x="1049.7841"
       y="54.948002"
       id="text947-3"><tspan
         sodipodi:role="line"
         x="1049.7841"
         y="54.948002"
         style="font-style:normal;font-variant:normal;font-weight:normal;font-stretch:normal;font-size:36px;font-family:'Ubuntu Mono';-inkscape-font-specification:'Ubuntu Mono';fill:#ffffff;fill-opacity:1"
         id="tspan921-6">Mint-Yz: The New Colors of a New Era</tspan><tspan
         id="tspan135-7"
         sodipodi:role="line"
         x="1049.7841"
         y="88.755692"
         style="font-style:normal;font-variant:normal;font-weight:normal;font-stretch:normal;font-size:24px;font-family:'Ubuntu Mono';-inkscape-font-specification:'Ubuntu Mono';fill:#ffffff;fill-opacity:1">All the colors of the dark variant (colors2) in one picture...</tspan></text>
    <g
       id="g1125">
      <rect
         y="870"
         x="1050"
         height="150"
         width="130"
         id="rect1056"
         style="fill:#ff0000;fill-opacity:1;stroke:none;stroke-width:0;stroke-miterlimit:4;stroke-dasharray:none;stroke-opacity:1" />
      <rect
         style="fill:#00ff00;fill-opacity:1;stroke:none;stroke-width:0;stroke-miterlimit:4;stroke-dasharray:none;stroke-opacity:1"
         id="rect1058"
         width="130"
         height="150"
         x="1310"
         y="870" />
      <rect
         y="870"
         x="1570"
         height="150"
         width="130"
         id="rect1060"
         style="fill:#0000ff;fill-opacity:1;stroke:none;stroke-width:0;stroke-miterlimit:4;stroke-dasharray:none;stroke-opacity:1" />
      <rect
         style="fill:#ffff00;fill-opacity:1;stroke:none;stroke-width:0;stroke-miterlimit:4;stroke-dasharray:none;stroke-opacity:1"
         id="rect1062"
         width="130"
         height="150"
         x="1180"
         y="870" />
      <rect
         y="870"
         x="1440"
         height="150"
         width="130"
         id="rect1064"
         style="fill:#00ffff;fill-opacity:1;stroke:none;stroke-width:0;stroke-miterlimit:4;stroke-dasharray:none;stroke-opacity:1" />
      <rect
         style="fill:#ff00ff;fill-opacity:1;stroke:none;stroke-width:0;stroke-miterlimit:4;stroke-dasharray:none;stroke-opacity:1"
         id="rect1066"
         width="130"
         height="150"
         x="1700"
         y="870" />
      <rect
         style="display:inline;fill:#000000;fill-opacity:1;stroke:none;stroke-width:0;stroke-miterlimit:4;stroke-dasharray:none;stroke-opacity:1"
         id="rect1068"
         width="130"
         height="60"
         x="1050"
         y="1020" />
      <rect
         y="1020"
         x="1180"
         height="60"
         width="130"
         id="rect1070"
         style="display:inline;fill:#0d0d0d;fill-opacity:1;stroke:none;stroke-width:0;stroke-miterlimit:4;stroke-dasharray:none;stroke-opacity:1" />
      <rect
         style="display:inline;fill:#f2f2f2;fill-opacity:1;stroke:none;stroke-width:0;stroke-miterlimit:4;stroke-dasharray:none;stroke-opacity:1"
         id="rect1072"
         width="130"
         height="60"
         x="1570"
         y="1020" />
      <rect
         y="1020"
         x="1310"
         height="60"
         width="130"
         id="rect1074"
         style="display:inline;fill:#1a1a1a;fill-opacity:1;stroke:none;stroke-width:0;stroke-miterlimit:4;stroke-dasharray:none;stroke-opacity:1" />
      <rect
         style="display:inline;fill:#e5e5e5;fill-opacity:1;stroke:none;stroke-width:0;stroke-miterlimit:4;stroke-dasharray:none;stroke-opacity:1"
         id="rect1076"
         width="130"
         height="60"
         x="1440"
         y="1020" />
      <rect
         y="1020"
         x="1700"
         height="60"
         width="130"
         id="rect1078"
         style="display:inline;fill:#ffffff;fill-opacity:1;stroke:none;stroke-width:0;stroke-miterlimit:4;stroke-dasharray:none;stroke-opacity:1" />
      <path
         id="path1080"
         style="font-weight:bold;font-size:13.3333px;line-height:17.7778px;font-family:'Ubuntu Mono';-inkscape-font-specification:'Ubuntu Mono Bold';text-align:center;letter-spacing:0px;word-spacing:0px;text-anchor:middle;stroke-width:0.854598"
         d="m 1757.7534,1052.7733 v -4.6133 q -0.3734,0.2667 -0.8534,0.48 -0.48,0.2 -0.8133,0.32 l -0.5333,-1.36 q 0.32,-0.12 0.6933,-0.3067 0.3733,-0.1866 0.7467,-0.4133 0.3733,-0.2267 0.7066,-0.48 0.3334,-0.2533 0.5734,-0.52 h 1.12 v 6.8933 h 1.64 v 1.36 h -5.0134 v -1.36 z" />
      <path
         id="path1082"
         style="font-weight:bold;font-size:13.3333px;line-height:17.7778px;font-family:'Ubuntu Mono';-inkscape-font-specification:'Ubuntu Mono Bold';text-align:center;letter-spacing:0px;word-spacing:0px;text-anchor:middle;stroke-width:0.854598"
         d="m 1767.78,1049.9867 q 0,2.1866 -0.7333,3.2533 -0.7334,1.0667 -2.1334,1.0667 -1.4,0 -2.1333,-1.0667 -0.7333,-1.0667 -0.7333,-3.2533 0,-2.16 0.7466,-3.2267 0.7467,-1.0667 2.12,-1.0667 1.4,0 2.1334,1.0667 0.7333,1.0533 0.7333,3.2267 z m -1.48,0 q 0,-1.4134 -0.36,-2.1467 -0.3467,-0.7467 -1.0267,-0.7467 -0.6666,0 -1.0266,0.7467 -0.36,0.7333 -0.36,2.1467 0,1.4266 0.36,2.1733 0.36,0.7333 1.0266,0.7333 0.68,0 1.0267,-0.7333 0.36,-0.7467 0.36,-2.1733 z m -0.64,-0.1334 q 0,0.36 -0.2133,0.6267 -0.2,0.2533 -0.52,0.2533 -0.3467,0 -0.5467,-0.2533 -0.2,-0.2667 -0.2,-0.6267 0,-0.36 0.2,-0.6266 0.2,-0.2667 0.5467,-0.2667 0.32,0 0.52,0.2667 0.2133,0.2666 0.2133,0.6266 z" />
      <path
         id="path1084"
         style="font-weight:bold;font-size:13.3333px;line-height:17.7778px;font-family:'Ubuntu Mono';-inkscape-font-specification:'Ubuntu Mono Bold';text-align:center;letter-spacing:0px;word-spacing:0px;text-anchor:middle;stroke-width:0.854598"
         d="m 1774.4466,1049.9867 q 0,2.1866 -0.7333,3.2533 -0.7333,1.0667 -2.1333,1.0667 -1.4,0 -2.1333,-1.0667 -0.7334,-1.0667 -0.7334,-3.2533 0,-2.16 0.7467,-3.2267 0.7467,-1.0667 2.12,-1.0667 1.4,0 2.1333,1.0667 0.7333,1.0533 0.7333,3.2267 z m -1.48,0 q 0,-1.4134 -0.3599,-2.1467 -0.3467,-0.7467 -1.0267,-0.7467 -0.6667,0 -1.0267,0.7467 -0.36,0.7333 -0.36,2.1467 0,1.4266 0.36,2.1733 0.36,0.7333 1.0267,0.7333 0.68,0 1.0267,-0.7333 0.3599,-0.7467 0.3599,-2.1733 z m -0.6399,-0.1334 q 0,0.36 -0.2134,0.6267 -0.2,0.2533 -0.52,0.2533 -0.3466,0 -0.5466,-0.2533 -0.2,-0.2667 -0.2,-0.6267 0,-0.36 0.2,-0.6266 0.2,-0.2667 0.5466,-0.2667 0.32,0 0.52,0.2667 0.2134,0.2666 0.2134,0.6266 z" />
      <path
         id="path1086"
         style="font-weight:bold;font-size:13.3333px;line-height:17.7778px;font-family:'Ubuntu Mono';-inkscape-font-specification:'Ubuntu Mono Bold';text-align:center;letter-spacing:0px;word-spacing:0px;text-anchor:middle;fill:#ffffff;fill-opacity:1;stroke-width:0.854598"
         d="m 1117.8667,1049.9867 q 0,2.1866 -0.7334,3.2533 -0.7333,1.0667 -2.1333,1.0667 -1.4,0 -2.1333,-1.0667 -0.7334,-1.0667 -0.7334,-3.2533 0,-2.16 0.7467,-3.2267 0.7467,-1.0667 2.12,-1.0667 1.4,0 2.1333,1.0667 0.7334,1.0533 0.7334,3.2267 z m -1.48,0 q 0,-1.4134 -0.36,-2.1467 -0.3467,-0.7467 -1.0267,-0.7467 -0.6667,0 -1.0267,0.7467 -0.36,0.7333 -0.36,2.1467 0,1.4266 0.36,2.1733 0.36,0.7333 1.0267,0.7333 0.68,0 1.0267,-0.7333 0.36,-0.7467 0.36,-2.1733 z m -0.64,-0.1334 q 0,0.36 -0.2134,0.6267 -0.2,0.2533 -0.52,0.2533 -0.3466,0 -0.5466,-0.2533 -0.2,-0.2667 -0.2,-0.6267 0,-0.36 0.2,-0.6266 0.2,-0.2667 0.5466,-0.2667 0.32,0 0.52,0.2667 0.2134,0.2666 0.2134,0.6266 z" />
      <path
         id="path1088"
         style="font-weight:bold;font-size:13.3333px;line-height:17.7778px;font-family:'Ubuntu Mono';-inkscape-font-specification:'Ubuntu Mono Bold';text-align:center;letter-spacing:0px;word-spacing:0px;text-anchor:middle;stroke-width:0.854598"
         d="m 1631.8666,1049.76 q 0.2533,0 0.5333,-0.053 0.28,-0.053 0.4534,-0.1467 0.013,-0.1066 0.013,-0.2533 0.013,-0.16 0.013,-0.3067 0,-0.3333 -0.067,-0.6666 -0.053,-0.3467 -0.2,-0.6267 -0.1334,-0.28 -0.3734,-0.4533 -0.2267,-0.1734 -0.5733,-0.1734 -0.2933,0 -0.5067,0.12 -0.2,0.1067 -0.3333,0.2934 -0.12,0.1866 -0.1867,0.44 -0.053,0.2533 -0.053,0.5333 0,0.6267 0.2933,0.96 0.2934,0.3333 0.9867,0.3333 z m -0.2133,1.36 q -0.72,0 -1.2267,-0.2 -0.5067,-0.2133 -0.8267,-0.5733 -0.32,-0.36 -0.4666,-0.8267 -0.1467,-0.48 -0.1467,-1.0267 0,-0.48 0.16,-0.9733 0.1733,-0.5067 0.4933,-0.9067 0.3334,-0.4133 0.8267,-0.6666 0.4933,-0.2667 1.16,-0.2667 1.3867,0 2.12,0.9333 0.7333,0.9334 0.7333,2.6 0,1.2 -0.3467,2.1334 -0.3466,0.92 -1,1.5466 -0.6399,0.6267 -1.5599,0.96 -0.9067,0.32 -2.0267,0.32 l -0.053,-1.4133 q 1.0666,-0.013 1.9067,-0.4533 0.84,-0.4534 1.1866,-1.4134 -0.52,0.2267 -0.9333,0.2267 z" />
      <path
         id="path1090"
         style="font-weight:bold;font-size:13.3333px;line-height:17.7778px;font-family:'Ubuntu Mono';-inkscape-font-specification:'Ubuntu Mono Bold';text-align:center;letter-spacing:0px;word-spacing:0px;text-anchor:middle;stroke-width:0.854598"
         d="m 1639.3332,1051.72 q 0,-0.3467 -0.12,-0.6267 -0.1066,-0.2933 -0.4533,-0.4933 -0.3333,-0.2133 -0.96,-0.32 -0.6267,-0.12 -1.64,-0.12 0.1333,-1.12 0.2133,-2.1867 0.08,-1.08 0.12,-2.08 h 4.2134 v 1.36 h -2.84 q -0.027,0.4267 -0.067,0.8934 -0.04,0.4666 -0.067,0.76 1.6533,0.1066 2.4666,0.8 0.8134,0.6933 0.8134,1.9466 0,0.5734 -0.2,1.0667 -0.2,0.48 -0.6134,0.84 -0.4133,0.36 -1.0266,0.56 -0.6134,0.2 -1.4267,0.2 -0.32,0 -0.6533,-0.04 -0.3334,-0.04 -0.64,-0.1067 -0.3067,-0.053 -0.56,-0.1333 -0.24,-0.08 -0.3734,-0.1467 l 0.3334,-1.36 q 0.2933,0.1467 0.7466,0.2667 0.4534,0.12 1.1334,0.12 0.48,0 0.7866,-0.1067 0.32,-0.1066 0.4934,-0.2666 0.1866,-0.1734 0.2533,-0.3867 0.067,-0.2133 0.067,-0.44 z" />
      <path
         id="path1092"
         style="font-weight:bold;font-size:13.3333px;line-height:17.7778px;font-family:'Ubuntu Mono';-inkscape-font-specification:'Ubuntu Mono Bold';text-align:center;letter-spacing:0px;word-spacing:0px;text-anchor:middle;stroke-width:0.854598"
         d="m 1501.7465,1049.76 q 0.2534,0 0.5334,-0.053 0.28,-0.053 0.4533,-0.1467 0.013,-0.1066 0.013,-0.2533 0.013,-0.16 0.013,-0.3067 0,-0.3333 -0.067,-0.6666 -0.053,-0.3467 -0.2,-0.6267 -0.1333,-0.28 -0.3733,-0.4533 -0.2267,-0.1734 -0.5734,-0.1734 -0.2933,0 -0.5066,0.12 -0.2,0.1067 -0.3334,0.2934 -0.12,0.1866 -0.1866,0.44 -0.053,0.2533 -0.053,0.5333 0,0.6267 0.2933,0.96 0.2934,0.3333 0.9867,0.3333 z m -0.2133,1.36 q -0.72,0 -1.2266,-0.2 -0.5067,-0.2133 -0.8267,-0.5733 -0.32,-0.36 -0.4667,-0.8267 -0.1466,-0.48 -0.1466,-1.0267 0,-0.48 0.16,-0.9733 0.1733,-0.5067 0.4933,-0.9067 0.3333,-0.4133 0.8266,-0.6666 0.4934,-0.2667 1.16,-0.2667 1.3867,0 2.12,0.9333 0.7334,0.9334 0.7334,2.6 0,1.2 -0.3467,2.1334 -0.3467,0.92 -1,1.5466 -0.64,0.6267 -1.56,0.96 -0.9067,0.32 -2.0266,0.32 l -0.053,-1.4133 q 1.0666,-0.013 1.9066,-0.4533 0.84,-0.4534 1.1867,-1.4134 -0.52,0.2267 -0.9333,0.2267 z" />
      <path
         id="path1094"
         style="font-weight:bold;font-size:13.3333px;line-height:17.7778px;font-family:'Ubuntu Mono';-inkscape-font-specification:'Ubuntu Mono Bold';text-align:center;letter-spacing:0px;word-spacing:0px;text-anchor:middle;stroke-width:0.854598"
         d="m 1511.1332,1050 q 0,2.1867 -0.7333,3.2533 -0.7334,1.0667 -2.1334,1.0667 -1.4,0 -2.1333,-1.0667 -0.7333,-1.0666 -0.7333,-3.2533 0,-2.16 0.7466,-3.2267 0.7467,-1.0666 2.12,-1.0666 1.4,0 2.1334,1.0666 0.7333,1.0534 0.7333,3.2267 z m -1.48,0 q 0,-1.4133 -0.36,-2.1467 -0.3467,-0.7466 -1.0267,-0.7466 -0.6666,0 -1.0266,0.7466 -0.36,0.7334 -0.36,2.1467 0,1.4267 0.36,2.1733 0.36,0.7334 1.0266,0.7334 0.68,0 1.0267,-0.7334 0.36,-0.7466 0.36,-2.1733 z m -0.64,-0.1333 q 0,0.36 -0.2133,0.6266 -0.2,0.2534 -0.52,0.2534 -0.3467,0 -0.5467,-0.2534 -0.2,-0.2666 -0.2,-0.6266 0,-0.36 0.2,-0.6267 0.2,-0.2667 0.5467,-0.2667 0.32,0 0.52,0.2667 0.2133,0.2667 0.2133,0.6267 z" />
      <path
         id="path1096"
         style="font-weight:bold;font-size:13.3333px;line-height:17.7778px;font-family:'Ubuntu Mono';-inkscape-font-specification:'Ubuntu Mono Bold';text-align:center;letter-spacing:0px;word-spacing:0px;text-anchor:middle;fill:#ffffff;fill-opacity:1;stroke-width:0.854598"
         d="m 1371.0866,1052.7733 v -4.6133 q -0.3733,0.2667 -0.8533,0.48 -0.48,0.2 -0.8133,0.32 l -0.5334,-1.36 q 0.32,-0.12 0.6934,-0.3067 0.3733,-0.1866 0.7466,-0.4133 0.3734,-0.2267 0.7067,-0.48 0.3333,-0.2533 0.5733,-0.52 h 1.12 v 6.8933 h 1.64 v 1.36 h -5.0133 v -1.36 z" />
      <path
         id="path1098"
         style="font-weight:bold;font-size:13.3333px;line-height:17.7778px;font-family:'Ubuntu Mono';-inkscape-font-specification:'Ubuntu Mono Bold';text-align:center;letter-spacing:0px;word-spacing:0px;text-anchor:middle;fill:#ffffff;fill-opacity:1;stroke-width:0.854598"
         d="m 1381.1133,1049.9867 q 0,2.1866 -0.7334,3.2533 -0.7333,1.0667 -2.1333,1.0667 -1.4,0 -2.1333,-1.0667 -0.7334,-1.0667 -0.7334,-3.2533 0,-2.16 0.7467,-3.2267 0.7467,-1.0667 2.12,-1.0667 1.4,0 2.1333,1.0667 0.7334,1.0533 0.7334,3.2267 z m -1.48,0 q 0,-1.4134 -0.36,-2.1467 -0.3467,-0.7467 -1.0267,-0.7467 -0.6667,0 -1.0267,0.7467 -0.36,0.7333 -0.36,2.1467 0,1.4266 0.36,2.1733 0.36,0.7333 1.0267,0.7333 0.68,0 1.0267,-0.7333 0.36,-0.7467 0.36,-2.1733 z m -0.64,-0.1334 q 0,0.36 -0.2134,0.6267 -0.2,0.2533 -0.52,0.2533 -0.3466,0 -0.5466,-0.2533 -0.2,-0.2667 -0.2,-0.6267 0,-0.36 0.2,-0.6266 0.2,-0.2667 0.5466,-0.2667 0.32,0 0.52,0.2667 0.2134,0.2666 0.2134,0.6266 z" />
      <path
         id="path1100"
         style="font-weight:bold;font-size:13.3333px;line-height:17.7778px;font-family:'Ubuntu Mono';-inkscape-font-specification:'Ubuntu Mono Bold';text-align:center;letter-spacing:0px;word-spacing:0px;text-anchor:middle;fill:#ffffff;fill-opacity:1;stroke-width:1"
         d="m 1246.2172,1051.936 q 0,-0.416 -0.1369,-0.752 -0.1217,-0.352 -0.5173,-0.592 -0.3803,-0.256 -1.0954,-0.384 -0.715,-0.144 -1.8713,-0.144 0.1522,-1.344 0.2435,-2.624 0.091,-1.296 0.1369,-2.496 h 4.8075 v 1.632 h -3.2405 q -0.03,0.512 -0.076,1.072 -0.046,0.56 -0.076,0.912 1.8865,0.128 2.8145,0.96 0.928,0.832 0.928,2.336 0,0.688 -0.2282,1.28 -0.2282,0.576 -0.6998,1.008 -0.4716,0.432 -1.1714,0.672 -0.6999,0.24 -1.6279,0.24 -0.3651,0 -0.7455,-0.048 -0.3803,-0.048 -0.7302,-0.128 -0.3499,-0.064 -0.639,-0.16 -0.2738,-0.096 -0.426,-0.176 l 0.3804,-1.632 q 0.3347,0.176 0.8519,0.32 0.5173,0.144 1.2932,0.144 0.5477,0 0.8976,-0.128 0.3651,-0.128 0.5629,-0.32 0.213,-0.208 0.2891,-0.464 0.076,-0.256 0.076,-0.528 z" />
    </g>
    <rect
       y="0"
       x="0"
       height="1080"
       width="960"
       id="rect122"
       style="display:inline;fill:#ffffff;fill-opacity:1;stroke:none;stroke-width:0;stroke-opacity:1" />
    <rect
       y="870"
       x="0"
       height="210"
       width="960"
       id="rect4820"
       style="display:inline;vector-effect:none;fill:#d9d9d9;fill-opacity:1;stroke:none;stroke-width:0;stroke-linecap:butt;stroke-linejoin:miter;stroke-miterlimit:4;stroke-dasharray:none;stroke-dashoffset:0;stroke-opacity:1" />
    <rect
       y="0"
       x="0"
       height="110"
       width="960"
       id="rect903"
       style="display:inline;opacity:1;vector-effect:none;fill:#d9d9d9;fill-opacity:1;stroke:none;stroke-width:0;stroke-linecap:butt;stroke-linejoin:miter;stroke-miterlimit:4;stroke-dasharray:none;stroke-dashoffset:0;stroke-opacity:1" />
    <rect
       y="2"
       x="962"
       height="1076"
       width="956"
       id="rect1228"
       style="display:inline;fill:none;fill-opacity:1;stroke:#000000;stroke-width:4;stroke-miterlimit:4;stroke-dasharray:none;stroke-opacity:1" />
    <g
       id="g1150">
      <rect
         y="870"
         x="90"
         height="150"
         width="130"
         id="rect1315"
         style="fill:#ff0000;fill-opacity:1;stroke:none;stroke-width:0;stroke-miterlimit:4;stroke-dasharray:none;stroke-opacity:1" />
      <rect
         style="fill:#00ff00;fill-opacity:1;stroke:none;stroke-width:0;stroke-miterlimit:4;stroke-dasharray:none;stroke-opacity:1"
         id="rect1317"
         width="130"
         height="150"
         x="350"
         y="870" />
      <rect
         y="870"
         x="610"
         height="150"
         width="130"
         id="rect1319"
         style="fill:#0000ff;fill-opacity:1;stroke:none;stroke-width:0;stroke-miterlimit:4;stroke-dasharray:none;stroke-opacity:1" />
      <rect
         style="fill:#ffff00;fill-opacity:1;stroke:none;stroke-width:0;stroke-miterlimit:4;stroke-dasharray:none;stroke-opacity:1"
         id="rect1321"
         width="130"
         height="150"
         x="220"
         y="870" />
      <rect
         y="870"
         x="480"
         height="150"
         width="130"
         id="rect1323"
         style="fill:#00ffff;fill-opacity:1;stroke:none;stroke-width:0;stroke-miterlimit:4;stroke-dasharray:none;stroke-opacity:1" />
      <rect
         style="fill:#ff00ff;fill-opacity:1;stroke:none;stroke-width:0;stroke-miterlimit:4;stroke-dasharray:none;stroke-opacity:1"
         id="rect1325"
         width="130"
         height="150"
         x="740"
         y="870" />
      <rect
         style="display:inline;fill:#000000;fill-opacity:1;stroke:none;stroke-width:0;stroke-miterlimit:4;stroke-dasharray:none;stroke-opacity:1"
         id="rect1329"
         width="130"
         height="60"
         x="90"
         y="1020" />
      <rect
         y="1020"
         x="220"
         height="60"
         width="130"
         id="rect1331"
         style="display:inline;fill:#0d0d0d;fill-opacity:1;stroke:none;stroke-width:0;stroke-miterlimit:4;stroke-dasharray:none;stroke-opacity:1" />
      <rect
         style="display:inline;fill:#f2f2f2;fill-opacity:1;stroke:none;stroke-width:0;stroke-miterlimit:4;stroke-dasharray:none;stroke-opacity:1"
         id="rect1333"
         width="130"
         height="60"
         x="610"
         y="1020" />
      <rect
         y="1020"
         x="350"
         height="60"
         width="130"
         id="rect1335"
         style="display:inline;fill:#1a1a1a;fill-opacity:1;stroke:none;stroke-width:0;stroke-miterlimit:4;stroke-dasharray:none;stroke-opacity:1" />
      <rect
         style="display:inline;fill:#e5e5e5;fill-opacity:1;stroke:none;stroke-width:0;stroke-miterlimit:4;stroke-dasharray:none;stroke-opacity:1"
         id="rect1337"
         width="130"
         height="60"
         x="480"
         y="1020" />
      <rect
         y="1020"
         x="740"
         height="60"
         width="130"
         id="rect1339"
         style="display:inline;fill:#ffffff;fill-opacity:1;stroke:none;stroke-width:0;stroke-miterlimit:4;stroke-dasharray:none;stroke-opacity:1" />
      <path
         id="path1341"
         style="font-weight:bold;font-size:13.3333px;line-height:17.7778px;font-family:'Ubuntu Mono';-inkscape-font-specification:'Ubuntu Mono Bold';text-align:center;letter-spacing:0px;word-spacing:0px;text-anchor:middle;stroke-width:0.854598"
         d="m 797.75336,1052.7733 v -4.6133 q -0.37334,0.2667 -0.85334,0.48 -0.48,0.2 -0.81333,0.32 l -0.53333,-1.36 q 0.32,-0.12 0.69333,-0.3067 0.37334,-0.1866 0.74667,-0.4133 0.37333,-0.2267 0.70666,-0.48 0.33333,-0.2533 0.57333,-0.52 h 1.12 v 6.8933 h 1.64 v 1.36 h -5.01332 v -1.36 z" />
      <path
         id="path1343"
         style="font-weight:bold;font-size:13.3333px;line-height:17.7778px;font-family:'Ubuntu Mono';-inkscape-font-specification:'Ubuntu Mono Bold';text-align:center;letter-spacing:0px;word-spacing:0px;text-anchor:middle;stroke-width:0.854598"
         d="m 807.78,1049.9867 q 0,2.1866 -0.73333,3.2533 -0.73334,1.0667 -2.13333,1.0667 -1.4,0 -2.13333,-1.0667 -0.73333,-1.0667 -0.73333,-3.2533 0,-2.16 0.74666,-3.2267 0.74667,-1.0667 2.12,-1.0667 1.39999,0 2.13333,1.0667 0.73333,1.0533 0.73333,3.2267 z m -1.48,0 q 0,-1.4134 -0.36,-2.1467 -0.34666,-0.7467 -1.02666,-0.7467 -0.66667,0 -1.02667,0.7467 -0.36,0.7333 -0.36,2.1467 0,1.4266 0.36,2.1733 0.36,0.7333 1.02667,0.7333 0.68,0 1.02666,-0.7333 0.36,-0.7467 0.36,-2.1733 z m -0.64,-0.1334 q 0,0.36 -0.21333,0.6267 -0.2,0.2533 -0.52,0.2533 -0.34667,0 -0.54666,-0.2533 -0.2,-0.2667 -0.2,-0.6267 0,-0.36 0.2,-0.6266 0.19999,-0.2667 0.54666,-0.2667 0.32,0 0.52,0.2667 0.21333,0.2666 0.21333,0.6266 z" />
      <path
         id="path1345"
         style="font-weight:bold;font-size:13.3333px;line-height:17.7778px;font-family:'Ubuntu Mono';-inkscape-font-specification:'Ubuntu Mono Bold';text-align:center;letter-spacing:0px;word-spacing:0px;text-anchor:middle;stroke-width:0.854598"
         d="m 814.44665,1049.9867 q 0,2.1866 -0.73333,3.2533 -0.73334,1.0667 -2.13333,1.0667 -1.4,0 -2.13333,-1.0667 -0.73333,-1.0667 -0.73333,-3.2533 0,-2.16 0.74666,-3.2267 0.74667,-1.0667 2.12,-1.0667 1.39999,0 2.13333,1.0667 0.73333,1.0533 0.73333,3.2267 z m -1.48,0 q 0,-1.4134 -0.36,-2.1467 -0.34666,-0.7467 -1.02666,-0.7467 -0.66667,0 -1.02667,0.7467 -0.36,0.7333 -0.36,2.1467 0,1.4266 0.36,2.1733 0.36,0.7333 1.02667,0.7333 0.68,0 1.02666,-0.7333 0.36,-0.7467 0.36,-2.1733 z m -0.64,-0.1334 q 0,0.36 -0.21333,0.6267 -0.2,0.2533 -0.52,0.2533 -0.34667,0 -0.54666,-0.2533 -0.2,-0.2667 -0.2,-0.6267 0,-0.36 0.2,-0.6266 0.19999,-0.2667 0.54666,-0.2667 0.32,0 0.52,0.2667 0.21333,0.2666 0.21333,0.6266 z" />
      <path
         id="path1349"
         style="font-weight:bold;font-size:13.3333px;line-height:17.7778px;font-family:'Ubuntu Mono';-inkscape-font-specification:'Ubuntu Mono Bold';text-align:center;letter-spacing:0px;word-spacing:0px;text-anchor:middle;fill:#ffffff;fill-opacity:1;stroke-width:0.854598"
         d="m 157.86666,1049.9867 q 0,2.1866 -0.73333,3.2533 -0.73333,1.0667 -2.13333,1.0667 -1.4,0 -2.13333,-1.0667 -0.73333,-1.0667 -0.73333,-3.2533 0,-2.16 0.74667,-3.2267 0.74666,-1.0667 2.11999,-1.0667 1.4,0 2.13333,1.0667 0.73333,1.0533 0.73333,3.2267 z m -1.48,0 q 0,-1.4134 -0.36,-2.1467 -0.34666,-0.7467 -1.02666,-0.7467 -0.66666,0 -1.02666,0.7467 -0.36,0.7333 -0.36,2.1467 0,1.4266 0.36,2.1733 0.36,0.7333 1.02666,0.7333 0.68,0 1.02666,-0.7333 0.36,-0.7467 0.36,-2.1733 z m -0.63999,-0.1334 q 0,0.36 -0.21334,0.6267 -0.2,0.2533 -0.52,0.2533 -0.34666,0 -0.54666,-0.2533 -0.2,-0.2667 -0.2,-0.6267 0,-0.36 0.2,-0.6266 0.2,-0.2667 0.54666,-0.2667 0.32,0 0.52,0.2667 0.21334,0.2666 0.21334,0.6266 z" />
      <path
         id="path1353"
         style="font-weight:bold;font-size:13.3333px;line-height:17.7778px;font-family:'Ubuntu Mono';-inkscape-font-specification:'Ubuntu Mono Bold';text-align:center;letter-spacing:0px;word-spacing:0px;text-anchor:middle;stroke-width:0.854598"
         d="m 671.86659,1049.76 q 0.25333,0 0.53333,-0.053 0.28,-0.053 0.45333,-0.1467 0.0133,-0.1066 0.0133,-0.2533 0.0133,-0.16 0.0133,-0.3067 0,-0.3333 -0.0667,-0.6666 -0.0533,-0.3467 -0.2,-0.6267 -0.13333,-0.28 -0.37333,-0.4533 -0.22667,-0.1734 -0.57333,-0.1734 -0.29333,0 -0.50667,0.12 -0.2,0.1067 -0.33333,0.2934 -0.12,0.1866 -0.18667,0.44 -0.0533,0.2533 -0.0533,0.5333 0,0.6267 0.29333,0.96 0.29334,0.3333 0.98667,0.3333 z m -0.21333,1.36 q -0.72,0 -1.22667,-0.2 -0.50666,-0.2133 -0.82666,-0.5733 -0.32,-0.36 -0.46667,-0.8267 -0.14666,-0.48 -0.14666,-1.0267 0,-0.48 0.16,-0.9733 0.17333,-0.5067 0.49333,-0.9067 0.33333,-0.4133 0.82666,-0.6666 0.49333,-0.2667 1.16,-0.2667 1.38666,0 2.11999,0.9333 0.73333,0.9334 0.73333,2.6 0,1.2 -0.34666,2.1334 -0.34667,0.92 -1,1.5466 -0.64,0.6267 -1.55999,0.96 -0.90667,0.32 -2.02667,0.32 l -0.0533,-1.4133 q 1.06666,-0.013 1.90666,-0.4533 0.84,-0.4534 1.18667,-1.4134 -0.52,0.2267 -0.93333,0.2267 z" />
      <path
         id="path1355"
         style="font-weight:bold;font-size:13.3333px;line-height:17.7778px;font-family:'Ubuntu Mono';-inkscape-font-specification:'Ubuntu Mono Bold';text-align:center;letter-spacing:0px;word-spacing:0px;text-anchor:middle;stroke-width:0.854598"
         d="m 679.33324,1051.72 q 0,-0.3467 -0.12,-0.6267 -0.10667,-0.2933 -0.45334,-0.4933 -0.33333,-0.2133 -0.95999,-0.32 -0.62667,-0.12 -1.64,-0.12 0.13333,-1.12 0.21333,-2.1867 0.08,-1.08 0.12,-2.08 h 4.21333 v 1.36 h -2.84 q -0.0267,0.4267 -0.0667,0.8934 -0.04,0.4666 -0.0667,0.76 1.65333,0.1066 2.46666,0.8 0.81333,0.6933 0.81333,1.9466 0,0.5734 -0.2,1.0667 -0.2,0.48 -0.61333,0.84 -0.41333,0.36 -1.02666,0.56 -0.61334,0.2 -1.42667,0.2 -0.32,0 -0.65333,-0.04 -0.33333,-0.04 -0.64,-0.1067 -0.30666,-0.053 -0.56,-0.1333 -0.23999,-0.08 -0.37333,-0.1467 l 0.33333,-1.36 q 0.29334,0.1467 0.74667,0.2667 0.45333,0.12 1.13333,0.12 0.48,0 0.78666,-0.1067 0.32,-0.1066 0.49334,-0.2666 0.18666,-0.1734 0.25333,-0.3867 0.0667,-0.2133 0.0667,-0.44 z" />
      <path
         id="path1359"
         style="font-weight:bold;font-size:13.3333px;line-height:17.7778px;font-family:'Ubuntu Mono';-inkscape-font-specification:'Ubuntu Mono Bold';text-align:center;letter-spacing:0px;word-spacing:0px;text-anchor:middle;stroke-width:0.854598"
         d="m 541.74655,1049.76 q 0.25333,0 0.53333,-0.053 0.28,-0.053 0.45334,-0.1467 0.0133,-0.1066 0.0133,-0.2533 0.0133,-0.16 0.0133,-0.3067 0,-0.3333 -0.0667,-0.6666 -0.0533,-0.3467 -0.2,-0.6267 -0.13334,-0.28 -0.37334,-0.4533 -0.22666,-0.1734 -0.57333,-0.1734 -0.29333,0 -0.50666,0.12 -0.2,0.1067 -0.33334,0.2934 -0.12,0.1866 -0.18666,0.44 -0.0533,0.2533 -0.0533,0.5333 0,0.6267 0.29334,0.96 0.29333,0.3333 0.98666,0.3333 z m -0.21333,1.36 q -0.72,0 -1.22666,-0.2 -0.50667,-0.2133 -0.82667,-0.5733 -0.32,-0.36 -0.46667,-0.8267 -0.14666,-0.48 -0.14666,-1.0267 0,-0.48 0.16,-0.9733 0.17333,-0.5067 0.49333,-0.9067 0.33333,-0.4133 0.82666,-0.6666 0.49334,-0.2667 1.16,-0.2667 1.38667,0 2.12,0.9333 0.73333,0.9334 0.73333,2.6 0,1.2 -0.34667,2.1334 -0.34666,0.92 -1,1.5466 -0.63999,0.6267 -1.55999,0.96 -0.90667,0.32 -2.02666,0.32 l -0.0533,-1.4133 q 1.06667,-0.013 1.90667,-0.4533 0.83999,-0.4534 1.18666,-1.4134 -0.52,0.2267 -0.93333,0.2267 z" />
      <path
         id="path1361"
         style="font-weight:bold;font-size:13.3333px;line-height:17.7778px;font-family:'Ubuntu Mono';-inkscape-font-specification:'Ubuntu Mono Bold';text-align:center;letter-spacing:0px;word-spacing:0px;text-anchor:middle;stroke-width:0.854598"
         d="m 551.13319,1050 q 0,2.1867 -0.73333,3.2533 -0.73333,1.0667 -2.13333,1.0667 -1.39999,0 -2.13332,-1.0667 -0.73333,-1.0666 -0.73333,-3.2533 0,-2.16 0.74666,-3.2267 0.74667,-1.0666 2.11999,-1.0666 1.4,0 2.13333,1.0666 0.73333,1.0534 0.73333,3.2267 z m -1.47999,0 q 0,-1.4133 -0.36,-2.1467 -0.34667,-0.7466 -1.02667,-0.7466 -0.66666,0 -1.02666,0.7466 -0.36,0.7334 -0.36,2.1467 0,1.4267 0.36,2.1733 0.36,0.7334 1.02666,0.7334 0.68,0 1.02667,-0.7334 0.36,-0.7466 0.36,-2.1733 z m -0.64,-0.1333 q 0,0.36 -0.21333,0.6266 -0.2,0.2534 -0.52,0.2534 -0.34667,0 -0.54667,-0.2534 -0.2,-0.2666 -0.2,-0.6266 0,-0.36 0.2,-0.6267 0.2,-0.2667 0.54667,-0.2667 0.32,0 0.52,0.2667 0.21333,0.2667 0.21333,0.6267 z" />
      <path
         id="path1365"
         style="font-weight:bold;font-size:13.3333px;line-height:17.7778px;font-family:'Ubuntu Mono';-inkscape-font-specification:'Ubuntu Mono Bold';text-align:center;letter-spacing:0px;word-spacing:0px;text-anchor:middle;fill:#ffffff;fill-opacity:1;stroke-width:0.854598"
         d="m 411.08662,1052.7733 v -4.6133 q -0.37334,0.2667 -0.85333,0.48 -0.48,0.2 -0.81334,0.32 l -0.53333,-1.36 q 0.32,-0.12 0.69333,-0.3067 0.37334,-0.1866 0.74667,-0.4133 0.37333,-0.2267 0.70666,-0.48 0.33334,-0.2533 0.57334,-0.52 h 1.11999 v 6.8933 h 1.64 v 1.36 h -5.01332 v -1.36 z" />
      <path
         id="path1367"
         style="font-weight:bold;font-size:13.3333px;line-height:17.7778px;font-family:'Ubuntu Mono';-inkscape-font-specification:'Ubuntu Mono Bold';text-align:center;letter-spacing:0px;word-spacing:0px;text-anchor:middle;fill:#ffffff;fill-opacity:1;stroke-width:0.854598"
         d="m 421.11326,1049.9867 q 0,2.1866 -0.73333,3.2533 -0.73334,1.0667 -2.13333,1.0667 -1.4,0 -2.13333,-1.0667 -0.73333,-1.0667 -0.73333,-3.2533 0,-2.16 0.74666,-3.2267 0.74667,-1.0667 2.12,-1.0667 1.39999,0 2.13333,1.0667 0.73333,1.0533 0.73333,3.2267 z m -1.48,0 q 0,-1.4134 -0.36,-2.1467 -0.34666,-0.7467 -1.02666,-0.7467 -0.66667,0 -1.02667,0.7467 -0.35999,0.7333 -0.35999,2.1467 0,1.4266 0.35999,2.1733 0.36,0.7333 1.02667,0.7333 0.68,0 1.02666,-0.7333 0.36,-0.7467 0.36,-2.1733 z m -0.64,-0.1334 q 0,0.36 -0.21333,0.6267 -0.2,0.2533 -0.52,0.2533 -0.34666,0 -0.54666,-0.2533 -0.2,-0.2667 -0.2,-0.6267 0,-0.36 0.2,-0.6266 0.2,-0.2667 0.54666,-0.2667 0.32,0 0.52,0.2667 0.21333,0.2666 0.21333,0.6266 z" />
      <path
         id="path1371"
         style="font-weight:bold;font-size:13.3333px;line-height:17.7778px;font-family:'Ubuntu Mono';-inkscape-font-specification:'Ubuntu Mono Bold';text-align:center;letter-spacing:0px;word-spacing:0px;text-anchor:middle;fill:#ffffff;fill-opacity:1;stroke-width:1"
         d="m 286.21718,1051.936 q 0,-0.416 -0.13692,-0.752 -0.12171,-0.352 -0.51726,-0.592 -0.38034,-0.256 -1.09539,-0.384 -0.71503,-0.144 -1.87127,-0.144 0.15214,-1.344 0.24342,-2.624 0.0913,-1.296 0.13692,-2.496 h 4.80751 v 1.632 h -3.2405 q -0.0305,0.512 -0.0761,1.072 -0.0456,0.56 -0.0761,0.912 1.88648,0.128 2.81453,0.96 0.92803,0.832 0.92803,2.336 0,0.688 -0.22821,1.28 -0.2282,0.576 -0.69982,1.008 -0.47164,0.432 -1.17146,0.672 -0.69983,0.24 -1.62786,0.24 -0.36512,0 -0.74546,-0.048 -0.38035,-0.048 -0.73026,-0.128 -0.34992,-0.064 -0.63897,-0.16 -0.27385,-0.096 -0.42598,-0.176 l 0.38034,-1.632 q 0.33469,0.176 0.85195,0.32 0.51728,0.144 1.29317,0.144 0.54768,0 0.8976,-0.128 0.36513,-0.128 0.56291,-0.32 0.21299,-0.208 0.28905,-0.464 0.0761,-0.256 0.0761,-0.528 z" />
    </g>
    <text
       xml:space="preserve"
       style="font-style:normal;font-variant:normal;font-weight:normal;font-stretch:normal;font-size:24px;line-height:1.25;font-family:'DejaVu Sans';-inkscape-font-specification:'DejaVu Sans';text-align:start;letter-spacing:0px;word-spacing:0px;text-anchor:start;display:inline;fill:#000000;fill-opacity:1;stroke:none"
       x="89.783997"
       y="54.948002"
       id="text947"><tspan
         sodipodi:role="line"
         x="89.783997"
         y="54.948002"
         style="font-style:normal;font-variant:normal;font-weight:normal;font-stretch:normal;font-size:36px;font-family:'Ubuntu Mono';-inkscape-font-specification:'Ubuntu Mono';fill:#000000;fill-opacity:1"
         id="tspan921">Mint-Yz: The New Colors of a New Era</tspan><tspan
         id="tspan135"
         sodipodi:role="line"
         x="89.783997"
         y="88.755692"
         style="font-style:normal;font-variant:normal;font-weight:normal;font-stretch:normal;font-size:24px;font-family:'Ubuntu Mono';-inkscape-font-specification:'Ubuntu Mono';fill:#000000;fill-opacity:1">All the colors of the light base (colors1) in one picture...</tspan></text>
    <rect
       y="2"
       x="2"
       height="1076"
       width="956"
       id="rect1051"
       style="display:inline;fill:none;fill-opacity:1;stroke:#000000;stroke-width:4;stroke-miterlimit:4;stroke-dasharray:none;stroke-opacity:1" />
  </g>
  <g
     inkscape:label="colors1"
     inkscape:groupmode="layer"
     id="layer1"
     style="display:inline">
    <image
       preserveAspectRatio="none"
       inkscape:svg-dpi="96"
       width="780"
       height="640"
       xlink:href="Mint-Y-Variations-src.svg"
       id="image1316"
       x="90"
       y="170"
       style="stroke-width:0" />
    <image
       preserveAspectRatio="none"
       inkscape:svg-dpi="96"
       width="780"
       height="640"
       xlink:href="Mint-Y-Variations-src.svg"
       id="image1804"
       x="1050"
       y="170"
       style="stroke-width:0" />
  </g>
  <g
     inkscape:groupmode="layer"
     id="layer2"
     inkscape:label="colors2 (darken 5%)"
     style="display:inline"
     sodipodi:insensitive="true">
    <rect
       style="fill:#000000;fill-opacity:0.05;stroke-width:0"
       id="rect920"
       width="780"
       height="640"
       x="1050"
       y="170" />
  </g>
  <g
     inkscape:groupmode="layer"
     id="layer3"
     inkscape:label="colors3 (lighten)"
     style="display:none"
     sodipodi:insensitive="true">
    <rect
       y="170"
       x="90"
       height="640"
       width="780"
       id="rect937"
       style="display:inline;fill:#ffffff;fill-opacity:0.2;stroke-width:0" />
  </g>
  <g
     inkscape:groupmode="layer"
     id="layer4"
     inkscape:label="colors4 (darken)"
     style="display:none"
     sodipodi:insensitive="true">
    <rect
       style="display:inline;fill:#000000;fill-opacity:0.3;stroke-width:0"
       id="rect940"
       width="780"
       height="640"
       x="90"
       y="170" />
  </g>
</svg>
