/* XPM */
static char * close_active_xpm[] = {
"24 24 42 1",
" 	c None",
".	c #EEEEEE",
"+	c #D9D9D9",
"@	c #DACCD1",
"#	c #E08FAB",
"$	c #E36491",
"%	c #E44F83",
"&	c #E36591",
"*	c #E090AC",
"=	c #DDAABC",
"-	c #E45084",
";	c #E54980",
">	c #E54A80",
",	c #E75487",
"'	c #E65387",
")	c #E45185",
"!	c #DACED2",
"~	c #F7F4F6",
"{	c #F1B4C9",
"]	c #E54A81",
"^	c #F0B1C7",
"/	c #F8F7F7",
"(	c #DF8FAB",
"_	c #E36490",
":	c #EEA1BC",
"<	c #F8F8F8",
"[	c #F1B6CB",
"}	c #EFA7C0",
"|	c #EFA5BF",
"1	c #EFA9C2",
"2	c #E54B81",
"3	c #F1B7CC",
"4	c #F1BDCF",
"5	c #E54C82",
"6	c #F1B4CA",
"7	c #EEA0BC",
"8	c #F1B5CA",
"9	c #F7E9EE",
"0	c #EE9CB9",
"a	c #DF90AC",
"b	c #E55285",
"c	c #E36692",
"........................",
"++++++++++++++++++++++++",
"++++++++++++++++++++++++",
"++++++++++++++++++++++++",
"++++++++++++++++++++++++",
"++++++++@#$%%&*@++++++++",
"+++++++=-;;;;;;-=+++++++",
"++++++=>;;;;;;;;>=++++++",
"+++++@-;;,;;;;';;)!+++++",
"+++++#;;;~{]]^/;;;(+++++",
"+++++_;;;:<[[<};;;&+++++",
"+++++-;;;;|<<1;;;;-+++++",
"+++++-;;;23<<45;;;)+++++",
"+++++$;;;6<77<8;;;&+++++",
"+++++*;;;90;;09;;;a+++++",
"+++++@-;;;;;;;;;;b!+++++",
"++++++=>;;;;;;;;>=++++++",
"+++++++=);;;;;;b=+++++++",
"++++++++!(c--ca!++++++++",
"++++++++++++++++++++++++",
"++++++++++++++++++++++++",
"++++++++++++++++++++++++",
"++++++++++++++++++++++++",
"++++++++++++++++++++++++"};
