/* XPM */
static char * close_prelight_xpm[] = {
/* columns rows colors chars-per-pixel */
"24 24 38 1",
".	c #EEEEEE",
" 	c #D9D9D9",
"@	c #D9D1D5",
"#	c #D8A8C3",
"$	c #D88CB5",
"%	c #D77EAF",
"&	c #D88DB6",
"*	c #D8A9C3",
"=	c #D9BACB",
"-	c #D77FAF",
";	c #D77AAD",
">	c #D77BAD",
",	c #D982B2",
"'	c #D981B2",
")	c #D77FB0",
"!	c #D9D2D6",
"~	c #F7F5F6",
"{	c #EBC7DB",
"]	c #D77BAE",
"^	c #EBC5DA",
"/	c #F8F7F7",
"(	c #D8A8C2",
"_	c #D78CB5",
":	c #E7B9D2",
"<	c #F8F8F8",
"[	c #ECC9DC",
"}	c #ECC8DC",
"|	c #E8BDD5",
"1	c #E8BCD4",
"2	c #E9BFD6",
"3	c #D77CAE",
"4	c #EDCDDE",
"5	c #D87CAE",
"6	c #ECC8DB",
"7	c #F6EEF2",
"8	c #E7B6D1",
"9	c #D780B0",
"0	c #D8BACB",
/* pixels */
"........................",
"                        ",
"                        ",
"                        ",
"                        ",
"        @#$%%&*@        ",
"       =-;;;;;;-=       ",
"      =>;;;;;;;;>=      ",
"     @-;;,;;;;';;)!     ",
"     #;;;~{]]^/;;;(     ",
"     _;;;:<[}<|;;;&     ",
"     %;;;;1<<2;;;;-     ",
"     -;;;3[<<45;;;)     ",
"     $;;;{<::<6;;;&     ",
"     *;;;78;;87;;;*     ",
"     @-;;;;;;;;;;9!     ",
"      =>;;;;;;;;>0      ",
"       =);;;;;;90       ",
"        !(&%%&*!        ",
"                        ",
"                        ",
"                        ",
"                        ",
"                        "
};
