/* XPM */
static char * close_pressed_xpm[] = {
"24 24 44 1",
" 	c None",
".	c #EEEEEE",
"+	c #D9D9D9",
"@	c #D7CACF",
"#	c #CD829D",
"$	c #C6517A",
"%	c #C23869",
"&	c #C6527B",
"*	c #CD839D",
"=	c #D2A2B3",
"-	c #C23A6A",
";	c #C13164",
">	c #C13265",
",	c #C53D6D",
"'	c #C43C6D",
")	c #C23A6B",
"!	c #D7CCD0",
"~	c #F7F4F5",
"{	c #E3AABE",
"]	c #C13365",
"^	c #E2A7BC",
"/	c #F8F6F7",
"(	c #CC839D",
"_	c #C5507A",
":	c #DC95AE",
"<	c #F8F8F8",
"[	c #E4ADC1",
"}	c #E3ADC0",
"|	c #DE9CB3",
"1	c #C23969",
"2	c #DE99B1",
"3	c #DF9EB5",
"4	c #C23366",
"5	c #E4AEC1",
"6	c #E5B5C6",
"7	c #C23466",
"8	c #E3ABBF",
"9	c #DC94AE",
"0	c #E3ACBF",
"a	c #F4E7EC",
"b	c #DB90AB",
"c	c #CD849E",
"d	c #C33B6B",
"e	c #D1A3B3",
"........................",
"++++++++++++++++++++++++",
"++++++++++++++++++++++++",
"++++++++++++++++++++++++",
"++++++++++++++++++++++++",
"++++++++@#$%%&*@++++++++",
"+++++++=-;;;;;;-=+++++++",
"++++++=>;;;;;;;;>=++++++",
"+++++@-;;,;;;;';;)!+++++",
"+++++#;;;~{]]^/;;;(+++++",
"+++++_;;;:<[}<|;;;&+++++",
"+++++1;;;;2<<3;;;;-+++++",
"+++++-;;;45<<67;;;)+++++",
"+++++$;;;8<99<0;;;&+++++",
"+++++*;;;ab;;ba;;;c+++++",
"+++++@-;;;;;;;;;;d!+++++",
"++++++=>;;;;;;;;>e++++++",
"+++++++=);;;;;;de+++++++",
"++++++++!(&11&c!++++++++",
"++++++++++++++++++++++++",
"++++++++++++++++++++++++",
"++++++++++++++++++++++++",
"++++++++++++++++++++++++",
"++++++++++++++++++++++++"};
