/* XPM */
static char * close_prelight_xpm[] = {
/* columns rows colors chars-per-pixel */
"24 24 40 1",
".	c #373737",
" 	c #2F2F2F",
"@	c #3C3539",
"#	c #7F546B",
"$	c #AC688D",
"%	c #C2729E",
"&	c #AB688D",
"*	c #7E536B",
"=	c #624656",
"-	c #C1719D",
";	c #C975A3",
">	c #624756",
",	c #C875A2",
"'	c #C1729D",
")	c #323031",
"!	c #6C4B5D",
"~	c #C774A2",
"{	c #6E4C5E",
"]	c #313030",
"^	c #7D536A",
"/	c #AD688E",
"(	c #7B5269",
"_	c #69495A",
":	c #694A5B",
"<	c #764F64",
"[	c #C2719D",
"}	c #785166",
"|	c #754F64",
"1	c #68495A",
"2	c #634656",
"3	c #C774A1",
"4	c #6B4A5C",
"5	c #7C5269",
"6	c #6A4A5C",
"7	c #81546D",
"8	c #7D5269",
"9	c #C0719C",
"0	c #3B3438",
"a	c #614654",
"b	c #AB678C",
/* pixels */
"........................",
"                        ",
"                        ",
"                        ",
"                        ",
"        @#$%%&*@        ",
"       =-;;;;;;->       ",
"      =,;;;;;;;;,>      ",
"     @-;;';;;;';;'@     ",
"     #;;;)!~~{];;;^     ",
"     /;;;( _: <;;;&     ",
"     [;;;;}  |;;;;-     ",
"     -;;;,1  23;;;'     ",
"     $;;;4 55 6;;;&     ",
"     *;;;@7;;7@;;;8     ",
"     @-;;;;;;;;;;90     ",
"      >,;;;;;;;;,a      ",
"       >';;;;;;9a       ",
"        @^b[[b80        ",
"                        ",
"                        ",
"                        ",
"                        ",
"                        "
};
