/* XPM */
static char * close_pressed_xpm[] = {
"24 24 32 1",
" 	c None",
".	c #EEEEEE",
"+	c #D9D9D9",
"@	c #D1D4CD",
"#	c #A9BC96",
"$	c #8DAB6F",
"%	c #7FA25B",
"&	c #BAC6AE",
"*	c #80A35D",
"=	c #7BA056",
"-	c #F33A3A",
";	c #7CA057",
">	c #7FA25C",
",	c #82A55F",
"'	c #FAFBFA",
")	c #CAD9BC",
"!	c #C8D7B9",
"~	c #FDFDFD",
"{	c #8CAB6E",
"]	c #BDCFAA",
"^	c #CCDABE",
"/	c #C1D2B0",
"(	c #8EAC70",
"_	c #BFD1AE",
":	c #FCFCFC",
"<	c #D1DEC5",
"[	c #F2F5EE",
"}	c #B9CCA5",
"|	c #A9BC97",
"1	c #D2D5CF",
"2	c #83A660",
"3	c #BBC6AF",
"........................",
"++++++++++++++++++++++++",
"++++++++++++++++++++++++",
"++++++++++++++++++++++++",
"++++++++++++++++++++++++",
"++++++++@#$%%$#@++++++++",
"+++++++&*==---=*&+++++++",
"++++++&;=---==-=>&++++++",
"+++++@,=--====-==>@+++++",
"+++++#==-');;!~-==#+++++",
"+++++{=-=]~^)~/-==(+++++",
"+++++%-===_~~/=-==>+++++",
"+++++%-==*):~<%-==%+++++",
"+++++$-==!~_/:!-==(+++++",
"+++++#-==[}==}[-==|+++++",
"+++++@-======--==,1+++++",
"++++++-====---==;&++++++",
"+++++++-----===23+++++++",
"++++++++@#$%%$#@++++++++",
"++++++++++++++++++++++++",
"++++++++++++++++++++++++",
"++++++++++++++++++++++++",
"++++++++++++++++++++++++",
"++++++++++++++++++++++++"};
