/* XPM */
static char * close_pressed_xpm[] = {
"24 24 38 1",
" 	c None",
".	c #373737",
"+	c #2F2F2F",
"@	c #3C2F34",
"#	c #7B304B",
"$	c #A6315A",
"%	c #BB3162",
"&	c #A5315A",
"*	c #7A304A",
"=	c #603041",
"-	c #B93161",
";	c #C13164",
">	c #C03164",
",	c #BA3262",
"'	c #B93162",
")	c #3B3034",
"!	c #322F30",
"~	c #693044",
"{	c #BF3163",
"]	c #6B3045",
"^	c #312F30",
"/	c #79304A",
"(	c #A6315B",
"_	c #773049",
":	c #662F43",
"<	c #663043",
"[	c #723047",
"}	c #BA3161",
"|	c #753048",
"1	c #713047",
"2	c #652F42",
"3	c #683044",
"4	c #78304A",
"5	c #673043",
"6	c #7C314C",
"7	c #3A2F33",
"8	c #5E3040",
"9	c #A43059",
"........................",
"++++++++++++++++++++++++",
"++++++++++++++++++++++++",
"++++++++++++++++++++++++",
"++++++++++++++++++++++++",
"++++++++@#$%%&*@++++++++",
"+++++++=-;;;;;;-=+++++++",
"++++++=>;;;;;;;;>=++++++",
"+++++@-;;,;;;;';;')+++++",
"+++++#;;;!~{{]^;;;/+++++",
"+++++(;;;_+:<+[;;;&+++++",
"+++++};;;;|++1;;;;-+++++",
"+++++-;;;>2++={;;;'+++++",
"+++++$;;;3+44+5;;;&+++++",
"+++++*;;;@6;;6@;;;/+++++",
"+++++@-;;;;;;;;;;-7+++++",
"++++++=>;;;;;;;;>8++++++",
"+++++++=';;;;;;-8+++++++",
"++++++++)/9}}9/7++++++++",
"++++++++++++++++++++++++",
"++++++++++++++++++++++++",
"++++++++++++++++++++++++",
"++++++++++++++++++++++++",
"++++++++++++++++++++++++"};
