/* XPM */
static char * close_pressed_xpm[] = {
/* columns rows colors chars-per-pixel */
"24 24 37 1",
".	c #373737",
" 	c #2F2F2F",
"@	c #383235",
"#	c #633F53",
"$	c #804866",
"%	c #8E4C70",
"&	c #7F4766",
"*	c #623F52",
"=	c #503946",
"-	c #8D4B6F",
";	c #924D73",
">	c #914D73",
",	c #8D4C70",
"'	c #373235",
")	c #313030",
"!	c #563B4A",
"~	c #914C72",
"{	c #583B4B",
"]	c #303030",
"^	c #613E52",
"/	c #804867",
"(	c #603E51",
"_	c #543A48",
":	c #553A49",
"<	c #5D3D4E",
"[	c #8D4B70",
"}	c #5E3E50",
"|	c #5C3D4E",
"1	c #533A48",
"2	c #914D72",
"3	c #613E51",
"4	c #553B49",
"5	c #643F53",
"6	c #8C4B6F",
"7	c #363134",
"8	c #4F3945",
"9	c #7E4765",
/* pixels */
"........................",
"                        ",
"                        ",
"                        ",
"                        ",
"        @#$%%&*@        ",
"       =-;;;;;;-=       ",
"      =>;;;;;;;;>=      ",
"     @-;;,;;;;,;;,'     ",
"     #;;;)!~~{];;;^     ",
"     /;;;( _: <;;;&     ",
"     [;;;;}  |;;;;-     ",
"     -;;;>1  =2;;;,     ",
"     $;;;! 33 4;;;&     ",
"     *;;;@5;;5@;;;3     ",
"     @-;;;;;;;;;;67     ",
"      =>;;;;;;;;>8      ",
"       =,;;;;;;68       ",
"        '^9[[937        ",
"                        ",
"                        ",
"                        ",
"                        ",
"                        "
};
