/* XPM */
static char * close_active_xpm[] = {
"24 24 43 1",
" 	c None",
".	c #373737",
"+	c #2F2F2F",
"@	c #3F3136",
"#	c #8E3D59",
"$	c #C34471",
"%	c #DD487C",
"&	c #C24470",
"*	c #8D3D59",
"=	c #6B384A",
"-	c #DB477B",
";	c #E54980",
">	c #E4497F",
",	c #DC497C",
"'	c #DB487C",
")	c #3E3236",
"!	c #322F31",
"~	c #773A4F",
"{	c #E3487F",
"]	c #793A50",
"^	c #313030",
"/	c #8C3C58",
"(	c #C44571",
"_	c #893C57",
":	c #73384D",
"<	c #74394E",
"[	c #833B54",
"}	c #DC487C",
"|	c #863C56",
"1	c #813B54",
"2	c #E3497F",
"3	c #72384D",
"4	c #6C384A",
"5	c #E2497F",
"6	c #76394F",
"7	c #8A3C58",
"8	c #75394E",
"9	c #8F3D5A",
"0	c #8B3C58",
"a	c #DB487B",
"b	c #3D3135",
"c	c #6A3749",
"d	c #C14470",
"........................",
"++++++++++++++++++++++++",
"++++++++++++++++++++++++",
"++++++++++++++++++++++++",
"++++++++++++++++++++++++",
"++++++++@#$%%&*@++++++++",
"+++++++=-;;;;;;-=+++++++",
"++++++=>;;;;;;;;>=++++++",
"+++++@-;;,;;;;';;')+++++",
"+++++#;;;!~{{]^;;;/+++++",
"+++++(;;;_+:<+[;;;&+++++",
"+++++};;;;|++1;;;;-+++++",
"+++++-;;;23++45;;;'+++++",
"+++++$;;;6+77+8;;;&+++++",
"+++++*;;;@9;;9@;;;0+++++",
"+++++@-;;;;;;;;;;ab+++++",
"++++++=>;;;;;;;;>c++++++",
"+++++++=';;;;;;ac+++++++",
"++++++++)/d}}d0b++++++++",
"++++++++++++++++++++++++",
"++++++++++++++++++++++++",
"++++++++++++++++++++++++",
"++++++++++++++++++++++++",
"++++++++++++++++++++++++"};
