<?xml version="1.0" encoding="UTF-8" standalone="no"?>
<svg
   xmlns:osb="http://www.openswatchbook.org/uri/2009/osb"
   xmlns:dc="http://purl.org/dc/elements/1.1/"
   xmlns:cc="http://creativecommons.org/ns#"
   xmlns:rdf="http://www.w3.org/1999/02/22-rdf-syntax-ns#"
   xmlns:svg="http://www.w3.org/2000/svg"
   xmlns="http://www.w3.org/2000/svg"
   xmlns:sodipodi="http://sodipodi.sourceforge.net/DTD/sodipodi-0.dtd"
   xmlns:inkscape="http://www.inkscape.org/namespaces/inkscape"
   width="224"
   height="217"
   viewBox="0 0 224 217"
   id="svg2"
   version="1.1"
   inkscape:version="1.0 (1.0+r73+1)"
   sodipodi:docname="assets-dark.svg">
  <defs
     id="defs4">
    <linearGradient
       id="selected_bg_color"
       osb:paint="solid">
      <stop
         style="stop-color:#5294e2;stop-opacity:1;"
         offset="0"
         id="stop4421" />
    </linearGradient>
    <linearGradient
       id="selected_fg_color"
       osb:paint="solid">
      <stop
         style="stop-color:#ffffffgit;stop-opacity:1;"
         offset="0"
         id="stop4416" />
    </linearGradient>
  </defs>
  <sodipodi:namedview
     id="base"
     pagecolor="#ffffff"
     bordercolor="#666666"
     borderopacity="1.0"
     inkscape:pageopacity="0.0"
     inkscape:pageshadow="2"
     inkscape:zoom="4"
     inkscape:cx="38.772157"
     inkscape:cy="68.5"
     inkscape:document-units="px"
     inkscape:current-layer="layer1"
     showgrid="false"
     units="px"
     inkscape:snap-bbox="true"
     inkscape:bbox-paths="true"
     inkscape:bbox-nodes="true"
     inkscape:snap-bbox-edge-midpoints="false"
     inkscape:snap-bbox-midpoints="true"
     inkscape:object-paths="true"
     inkscape:snap-intersection-paths="false"
     inkscape:object-nodes="true"
     inkscape:snap-nodes="true"
     fit-margin-top="10"
     fit-margin-left="10"
     fit-margin-right="10"
     fit-margin-bottom="10"
     inkscape:document-rotation="0"
     inkscape:window-width="1440"
     inkscape:window-height="839"
     inkscape:window-x="0"
     inkscape:window-y="0"
     inkscape:window-maximized="1"
     showguides="true"
     inkscape:guide-bbox="true">
    <inkscape:grid
       type="xygrid"
       id="grid4136"
       originx="5"
       originy="-288" />
  </sodipodi:namedview>
  <metadata
     id="metadata7">
    <rdf:RDF>
      <cc:Work
         rdf:about="">
        <dc:format>image/svg+xml</dc:format>
        <dc:type
           rdf:resource="http://purl.org/dc/dcmitype/StillImage" />
        <dc:title />
      </cc:Work>
    </rdf:RDF>
  </metadata>
  <g
     inkscape:label="Ebene 1"
     inkscape:groupmode="layer"
     id="layer1"
     transform="translate(5,-547.36215)">
    <g
       id="close-active">
      <g
         id="g378">
        <rect
           style="fill:#2f2f2f;fill-opacity:1;stroke:none;stroke-width:0.999995;stroke-linecap:butt;stroke-linejoin:round;stroke-miterlimit:4;stroke-dasharray:none;stroke-dashoffset:0;stroke-opacity:1"
           id="rect4138"
           width="24"
           height="23.999886"
           x="7"
           y="557.36224" />
        <rect
           style="fill:#333333;fill-opacity:1;stroke:none;stroke-width:0.999996;stroke-linecap:butt;stroke-linejoin:round;stroke-miterlimit:4;stroke-dasharray:none;stroke-dashoffset:0;stroke-opacity:1"
           id="rect4204"
           width="24"
           height="0.99999779"
           x="7"
           y="558.36212" />
        <rect
           style="fill:#383838;fill-opacity:1;stroke:none;stroke-width:0.999996;stroke-linecap:butt;stroke-linejoin:round;stroke-miterlimit:4;stroke-dasharray:none;stroke-dashoffset:0;stroke-opacity:1"
           id="rect4204-3"
           width="24"
           height="0.99999779"
           x="7"
           y="557.36218" />
      </g>
      <g
         transform="matrix(1,0,0,0.99999782,7,557.36223)"
         id="g4663"
         style="stroke-width:1;enable-background:new">
        <g
           inkscape:label="Ebene 1"
           id="layer1-7"
           transform="translate(0,-1028.3622)"
           style="stroke-width:1">
          <g
             style="display:inline;stroke-width:1"
             id="titlebutton-close-dark-8"
             inkscape:label="#g6210"
             transform="translate(-641,1218)">
            <g
               id="g4927-9-2-8-4"
               style="display:inline;opacity:1;stroke-width:1"
               transform="translate(-678,-432.63782)">
              <g
                 transform="translate(-103)"
                 style="display:inline;opacity:1;stroke-width:1"
                 id="g4490-6-5-2-5-3-6">
                <g
                   id="g4092-0-2-21-0-9-7-0"
                   style="display:inline;stroke-width:1"
                   transform="translate(58)">
                  <path
                     inkscape:connector-curvature="0"
                     style="fill:#8fa876;fill-opacity:1;stroke:none;stroke-width:0;stroke-linecap:butt;stroke-linejoin:miter;stroke-miterlimit:4;stroke-dasharray:none;stroke-dashoffset:0;stroke-opacity:1"
                     d="m 414,58 a 7,7 0 0 0 -7,7 7,7 0 0 0 7,7 7,7 0 0 0 7,-7 7,7 0 0 0 -7,-7 z m -3,3.921875 h 0.75 c 0.008,-9e-5 0.0156,-3.45e-4 0.0234,0 0.19121,0.0084 0.3824,0.09643 0.51562,0.234375 L 414,63.867188 415.73438,62.15625 c 0.19921,-0.172875 0.335,-0.229125 0.51562,-0.234375 H 417 v 0.75 c 0,0.214853 -0.0258,0.412987 -0.1875,0.5625 l -1.71094,1.710937 1.6875,1.6875 C 416.9302,66.77394 416.99999,66.9729 417,67.171875 v 0.75 h -0.75 c -0.19898,-8e-6 -0.39794,-0.06982 -0.53906,-0.210937 L 414,66 l -1.71094,1.710938 c -0.14112,0.141142 -0.34009,0.210937 -0.53906,0.210937 H 411 v -0.75 c 0,-0.198967 0.0698,-0.397935 0.21094,-0.539063 l 1.71094,-1.6875 -1.71094,-1.710937 C 411.05288,63.088403 410.98357,62.882438 411,62.671875 Z"
                     transform="translate(962.00001,190.00002)"
                     id="path4068-7-5-9-6-5-8-5" />
                </g>
              </g>
              <g
                 id="g4778-2-68-8-7-9"
                 transform="translate(1323,246.86719)"
                 style="fill:#ffffff;fill-opacity:1;stroke-width:1">
                <g
                   style="display:inline;fill:#ffffff;fill-opacity:1;stroke-width:1"
                   id="layer9-9-4-4-1-1-7"
                   transform="translate(-60,-518)" />
                <g
                   id="layer10-2-1-8-0-4-4"
                   transform="translate(-60,-518)"
                   style="fill:#ffffff;fill-opacity:1;stroke-width:1" />
                <g
                   id="layer11-16-4-9-6-9-0"
                   transform="translate(-60,-518)"
                   style="fill:#ffffff;fill-opacity:1;stroke-width:1" />
                <g
                   transform="matrix(0.75,0,0,0.75,2,2.0546875)"
                   id="g2996-76-5-96-3-7"
                   style="fill:#ffffff;fill-opacity:1;stroke-width:1">
                  <g
                     transform="translate(-60,-518)"
                     id="layer12-4-5-7-9-4-5"
                     style="fill:#ffffff;fill-opacity:1;stroke-width:1">
                    <g
                       transform="translate(19,-242)"
                       id="layer4-4-1-9-5-6-3-8"
                       style="display:inline;fill:#ffffff;fill-opacity:1;stroke-width:1" />
                  </g>
                </g>
                <g
                   id="layer13-2-6-11-3-1-6"
                   transform="translate(-60,-518)"
                   style="fill:#ffffff;fill-opacity:1;stroke-width:1" />
                <g
                   id="layer14-4-0-33-2-4-8"
                   transform="translate(-60,-518)"
                   style="fill:#ffffff;fill-opacity:1;stroke-width:1" />
                <g
                   id="layer15-7-3-0-6-6-3"
                   transform="translate(-60,-518)"
                   style="fill:#ffffff;fill-opacity:1;stroke-width:1" />
              </g>
            </g>
            <rect
               y="-185.63782"
               x="645"
               height="16"
               width="16"
               id="rect17883-39-99-8-8"
               style="display:inline;opacity:1;fill:none;fill-opacity:1;stroke:none;stroke-width:1;stroke-linecap:butt;stroke-linejoin:miter;stroke-miterlimit:4;stroke-dasharray:none;stroke-dashoffset:0;stroke-opacity:0" />
          </g>
        </g>
      </g>
    </g>
    <g
       id="close-prelight">
      <g
         id="g383">
        <rect
           y="557.36218"
           x="40"
           height="23.999943"
           width="24"
           id="rect350"
           style="fill:#2f2f2f;fill-opacity:1;stroke:none;stroke-width:0.999997;stroke-linecap:butt;stroke-linejoin:round;stroke-miterlimit:4;stroke-dasharray:none;stroke-dashoffset:0;stroke-opacity:1" />
        <rect
           y="558.36212"
           x="40"
           height="0.99999779"
           width="24"
           id="rect352"
           style="fill:#333333;fill-opacity:1;stroke:none;stroke-width:0.999996;stroke-linecap:butt;stroke-linejoin:round;stroke-miterlimit:4;stroke-dasharray:none;stroke-dashoffset:0;stroke-opacity:1" />
        <rect
           y="557.36212"
           x="40"
           height="0.99999779"
           width="24"
           id="rect354"
           style="fill:#383838;fill-opacity:1;stroke:none;stroke-width:0.999996;stroke-linecap:butt;stroke-linejoin:round;stroke-miterlimit:4;stroke-dasharray:none;stroke-dashoffset:0;stroke-opacity:1" />
      </g>
      <g
         transform="matrix(1,0,0,0.99999782,40,557.36218)"
         id="g4721"
         style="stroke-width:1;enable-background:new">
        <g
           inkscape:label="Ebene 1"
           id="layer1-0"
           transform="translate(0,-1028.3622)"
           style="stroke-width:1">
          <g
             style="display:inline;stroke-width:1"
             id="titlebutton-close-hover-dark"
             inkscape:label="#g6260"
             transform="translate(-538,1218)">
            <g
               id="g4927-97-4"
               style="display:inline;opacity:1;stroke-width:1"
               transform="translate(-781,-432.63782)">
              <g
                 transform="translate(-103)"
                 style="display:inline;opacity:1;stroke-width:1"
                 id="g4490-6-9-1-3">
                <g
                   id="g4092-0-2-3-4-6"
                   style="display:inline;stroke-width:1"
                   transform="translate(58)">
                  <path
                     inkscape:connector-curvature="0"
                     style="fill:#afca95;fill-opacity:1;stroke:none;stroke-width:0;stroke-linecap:butt;stroke-linejoin:miter;stroke-miterlimit:4;stroke-dasharray:none;stroke-dashoffset:0;stroke-opacity:1"
                     d="m 414,92 a 7,7 0 0 0 -7,7 7,7 0 0 0 7,7 7,7 0 0 0 7,-7 7,7 0 0 0 -7,-7 z m -3,3.921875 h 0.75 c 0.008,-9e-5 0.0156,-3.45e-4 0.0234,0 0.19121,0.0084 0.3824,0.09643 0.51562,0.234375 L 414,97.867188 415.73438,96.15625 c 0.19921,-0.172875 0.335,-0.229125 0.51562,-0.234375 H 417 v 0.75 c 0,0.214853 -0.0258,0.412987 -0.1875,0.5625 l -1.71094,1.710937 1.6875,1.687498 c 0.14114,0.14113 0.21093,0.34009 0.21094,0.53907 v 0.75 h -0.75 c -0.19898,-1e-5 -0.39794,-0.0698 -0.53906,-0.21094 L 414,100 l -1.71094,1.71094 c -0.14112,0.14114 -0.34009,0.21094 -0.53906,0.21094 H 411 v -0.75 c 0,-0.19897 0.0698,-0.39794 0.21094,-0.53907 l 1.71094,-1.687498 -1.71094,-1.710937 C 411.05288,97.088403 410.98357,96.882438 411,96.671875 Z"
                     transform="translate(962,156.00002)"
                     id="path4068-7-5-8-2-3" />
                </g>
              </g>
              <g
                 id="g4778-4-0-2"
                 transform="translate(1323,246.86719)"
                 style="fill:#ffffff;fill-opacity:1;stroke-width:1">
                <g
                   style="display:inline;fill:#ffffff;fill-opacity:1;stroke-width:1"
                   id="layer9-9-44-1-6"
                   transform="translate(-60,-518)" />
                <g
                   id="layer10-2-9-3-3"
                   transform="translate(-60,-518)"
                   style="fill:#ffffff;fill-opacity:1;stroke-width:1" />
                <g
                   id="layer11-16-3-1-7"
                   transform="translate(-60,-518)"
                   style="fill:#ffffff;fill-opacity:1;stroke-width:1" />
                <g
                   transform="matrix(0.75,0,0,0.75,2,2.0546875)"
                   id="g2996-9-3-3"
                   style="fill:#ffffff;fill-opacity:1;stroke-width:1">
                  <g
                     transform="translate(-60,-518)"
                     id="layer12-4-7-1-2"
                     style="fill:#ffffff;fill-opacity:1;stroke-width:1">
                    <g
                       transform="translate(19,-242)"
                       id="layer4-4-1-3-3-7"
                       style="display:inline;fill:#ffffff;fill-opacity:1;stroke-width:1" />
                  </g>
                </g>
                <g
                   id="layer13-2-02-1-6"
                   transform="translate(-60,-518)"
                   style="fill:#ffffff;fill-opacity:1;stroke-width:1" />
                <g
                   id="layer14-4-7-9-6"
                   transform="translate(-60,-518)"
                   style="fill:#ffffff;fill-opacity:1;stroke-width:1" />
                <g
                   id="layer15-7-4-7-9"
                   transform="translate(-60,-518)"
                   style="fill:#ffffff;fill-opacity:1;stroke-width:1" />
              </g>
            </g>
            <rect
               y="-185.63782"
               x="542"
               height="16"
               width="16"
               id="rect17883-5-4-2"
               style="display:inline;opacity:1;fill:none;fill-opacity:1;stroke:none;stroke-width:1;stroke-linecap:butt;stroke-linejoin:miter;stroke-miterlimit:4;stroke-dasharray:none;stroke-dashoffset:0;stroke-opacity:0" />
          </g>
        </g>
      </g>
    </g>
    <g
       id="close-pressed">
      <g
         id="g388">
        <rect
           y="557.36218"
           x="73"
           height="23.999908"
           width="24"
           id="rect358"
           style="fill:#2f2f2f;fill-opacity:1;stroke:none;stroke-width:0.999996;stroke-linecap:butt;stroke-linejoin:round;stroke-miterlimit:4;stroke-dasharray:none;stroke-dashoffset:0;stroke-opacity:1" />
        <rect
           y="558.36212"
           x="73"
           height="0.99999779"
           width="24"
           id="rect360"
           style="fill:#333333;fill-opacity:1;stroke:none;stroke-width:0.999996;stroke-linecap:butt;stroke-linejoin:round;stroke-miterlimit:4;stroke-dasharray:none;stroke-dashoffset:0;stroke-opacity:1" />
        <rect
           y="557.36212"
           x="73"
           height="0.99999779"
           width="24"
           id="rect362"
           style="fill:#383838;fill-opacity:1;stroke:none;stroke-width:0.999996;stroke-linecap:butt;stroke-linejoin:round;stroke-miterlimit:4;stroke-dasharray:none;stroke-dashoffset:0;stroke-opacity:1" />
      </g>
      <g
         transform="matrix(1,0,0,0.99999782,73.00001,557.36218)"
         id="g4779"
         style="stroke-width:1;enable-background:new">
        <g
           inkscape:label="Ebene 1"
           id="layer1-79"
           transform="translate(0,-1028.3622)"
           style="stroke-width:1">
          <g
             style="display:inline;stroke-width:1"
             id="titlebutton-close-active-dark"
             inkscape:label="#g6332"
             transform="translate(-437.00001,1218)">
            <g
               id="g4927-8-7-4-9"
               style="display:inline;opacity:1;stroke-width:1"
               transform="translate(-882,-432.63782)">
              <g
                 transform="translate(-103)"
                 style="display:inline;opacity:1;stroke-width:1"
                 id="g4490-6-3-7-46-6">
                <g
                   id="g4092-0-2-2-1-7-2"
                   style="display:inline;stroke-width:1"
                   transform="translate(58)">
                  <path
                     inkscape:connector-curvature="0"
                     style="fill:#779559;fill-opacity:1;stroke:none;stroke-width:0;stroke-linecap:butt;stroke-linejoin:miter;stroke-miterlimit:4;stroke-dasharray:none;stroke-dashoffset:0;stroke-opacity:1"
                     d="m 414,109 a 7,7 0 0 0 -7,7 7,7 0 0 0 7,7 7,7 0 0 0 7,-7 7,7 0 0 0 -7,-7 z m -3,3.92188 h 0.75 c 0.008,-1e-4 0.0156,-3.5e-4 0.0234,0 0.19121,0.008 0.3824,0.0964 0.51562,0.23437 l 1.71094,1.71094 1.73438,-1.71094 c 0.19921,-0.17287 0.335,-0.22913 0.51562,-0.23437 h 0.75 v 0.75 c 0,0.21485 -0.0258,0.41298 -0.1875,0.5625 l -1.71094,1.71093 1.6875,1.6875 c 0.14114,0.14113 0.21093,0.34009 0.21094,0.53907 v 0.75 h -0.75 c -0.19898,-1e-5 -0.39794,-0.0698 -0.53906,-0.21094 L 414,117 l -1.71094,1.71094 c -0.14112,0.14114 -0.34009,0.21094 -0.53906,0.21094 H 411 v -0.75 c 0,-0.19897 0.0698,-0.39794 0.21094,-0.53907 l 1.71094,-1.6875 -1.71094,-1.71093 c -0.15806,-0.14598 -0.22737,-0.35194 -0.21094,-0.5625 z"
                     transform="translate(962.00001,139.00001)"
                     id="path4068-7-5-4-9-7-6" />
                </g>
              </g>
              <g
                 id="g4778-3-6-0-5"
                 transform="translate(1323,246.86719)"
                 style="fill:#ffffff;fill-opacity:1;stroke-width:1">
                <g
                   style="display:inline;fill:#ffffff;fill-opacity:1;stroke-width:1"
                   id="layer9-9-6-0-90-6"
                   transform="translate(-60,-518)" />
                <g
                   id="layer10-2-3-6-6-1"
                   transform="translate(-60,-518)"
                   style="fill:#ffffff;fill-opacity:1;stroke-width:1" />
                <g
                   id="layer11-16-2-2-6-9"
                   transform="translate(-60,-518)"
                   style="fill:#ffffff;fill-opacity:1;stroke-width:1" />
                <g
                   transform="matrix(0.75,0,0,0.75,2,2.0546875)"
                   id="g2996-7-0-2-0"
                   style="fill:#ffffff;fill-opacity:1;stroke-width:1">
                  <g
                     transform="translate(-60,-518)"
                     id="layer12-4-6-3-5-2"
                     style="fill:#ffffff;fill-opacity:1;stroke-width:1">
                    <g
                       transform="translate(19,-242)"
                       id="layer4-4-1-4-1-7-0"
                       style="display:inline;fill:#ffffff;fill-opacity:1;stroke-width:1" />
                  </g>
                </g>
                <g
                   id="layer13-2-0-2-8-3"
                   transform="translate(-60,-518)"
                   style="fill:#ffffff;fill-opacity:1;stroke-width:1" />
                <g
                   id="layer14-4-4-0-5-8"
                   transform="translate(-60,-518)"
                   style="fill:#ffffff;fill-opacity:1;stroke-width:1" />
                <g
                   id="layer15-7-5-0-0-9"
                   transform="translate(-60,-518)"
                   style="fill:#ffffff;fill-opacity:1;stroke-width:1" />
              </g>
            </g>
            <rect
               y="-185.63782"
               x="441"
               height="16"
               width="16"
               id="rect17883-02-4-3"
               style="display:inline;opacity:1;fill:none;fill-opacity:1;stroke:none;stroke-width:1;stroke-linecap:butt;stroke-linejoin:miter;stroke-miterlimit:4;stroke-dasharray:none;stroke-dashoffset:0;stroke-opacity:0" />
          </g>
        </g>
      </g>
    </g>
  </g>
</svg>
