<?xml version="1.0" encoding="UTF-8" standalone="no"?>
<svg xmlns="http://www.w3.org/2000/svg" height="16" width="16" version="1.1">
 <defs>
  <linearGradient id="c" y2="11.901" gradientUnits="userSpaceOnUse" x2="7.467" y1="2.1648" x1="7.467">
   <stop stop-color="#dfdfdf" offset="0"/>
   <stop stop-color="#f0f0f0" offset="1"/>
  </linearGradient>
  <linearGradient id="b" y2="11.901" gradientUnits="userSpaceOnUse" x2="7.467" y1="2.1648" x1="7.467">
   <stop stop-color="#e7e6e1" offset="0"/>
   <stop stop-color="#dfdfde" offset="1"/>
  </linearGradient>
  <linearGradient id="a" y2="11.901" gradientUnits="userSpaceOnUse" stop-color="#ebeaea" x2="7.467" y1="2.1648" x1="7.467">
   <stop stop-opacity="0" offset="0"/>
   <stop offset="1"/>
  </linearGradient>
 </defs>
 <path d="m11.668 7.0351a4.1896 4.8653 0 1 1 -0.000033 -0.019381" transform="matrix(1.6708 0 0 1.4387 -4.4946 -2.1218)" fill="#cdcdcd"/>
 <path d="m11.668 7.0351a4.1896 4.8653 0 1 1 -0.000033 -0.019381" transform="matrix(1.4321 0 0 1.2332 -2.7097 -.67582)" fill="url(#c)"/>
 <path d="m11.668 7.0351a4.1896 4.8653 0 1 1 -0.000033 -0.019381" transform="matrix(1.1934 0 0 1.0277 -.92473 .77015)" fill="url(#b)"/>
 <path d="m11.668 7.0351a4.1896 4.8653 0 1 1 -0.000033 -0.019381" transform="matrix(.95474 0 0 .82214 .86021 2.2161)" fill="url(#a)"/>
 <path d="m11.668 7.0351a4.1896 4.8653 0 1 1 -0.000033 -0.019381" transform="matrix(.71606 0 0 .61661 2.6452 3.6621)" fill="#a7a7a7"/>
 <path d="m11.668 7.0351a4.1896 4.8653 0 1 1 -0.000033 -0.019381" transform="matrix(.47737 0 0 .41107 4.4301 5.1081)" fill="#c0c0c0"/>
</svg>
