<?xml version="1.0" encoding="UTF-8" standalone="no"?>
<svg xmlns="http://www.w3.org/2000/svg" height="16" width="16" version="1.1">
 <defs>
  <linearGradient id="d" y2="11.901" gradientUnits="userSpaceOnUse" x2="7.467" y1="2.1648" x1="7.467">
   <stop stop-color="#8eae68" offset="0"/>
   <stop stop-color="#7c8d67" offset="1"/>
  </linearGradient>
  <linearGradient id="c" y2="11.901" gradientUnits="userSpaceOnUse" x2="7.467" y1="2.1648" x1="7.467">
   <stop stop-color="#cbccc8" offset="0"/>
   <stop stop-color="#bcea90" offset="1"/>
  </linearGradient>
  <linearGradient id="b" y2="11.901" gradientUnits="userSpaceOnUse" x2="7.467" y1="2.1648" x1="7.467">
   <stop stop-color="#c0e49a" offset="0"/>
   <stop stop-color="#b9de92" offset="1"/>
  </linearGradient>
  <linearGradient id="a" y2="11.901" gradientUnits="userSpaceOnUse" x2="7.467" y1="2.1648" x1="7.467">
   <stop stop-color="#8ea476" offset="0"/>
   <stop stop-color="#6c7e58" offset="1"/>
  </linearGradient>
 </defs>
 <path d="m11.668 7.0351a4.1896 4.8653 0 1 1 -0.000033 -0.019381" transform="matrix(1.6708 0 0 1.4387 -4.4946 -2.1218)" fill="url(#d)"/>
 <path d="m11.668 7.0351a4.1896 4.8653 0 1 1 -0.000033 -0.019381" transform="matrix(1.4321 0 0 1.2332 -2.7097 -.67582)" fill="url(#c)"/>
 <path d="m11.668 7.0351a4.1896 4.8653 0 1 1 -0.000033 -0.019381" transform="matrix(1.1934 0 0 1.0277 -.92473 .77015)" fill="url(#b)"/>
 <path d="m11.668 7.0351a4.1896 4.8653 0 1 1 -0.000033 -0.019381" transform="matrix(.95474 0 0 .82214 .86021 2.2161)" fill="url(#a)"/>
 <path d="m11.668 7.0351a4.1896 4.8653 0 1 1 -0.000033 -0.019381" transform="matrix(.71606 0 0 .61661 2.6452 3.6621)" fill="#fff"/>
</svg>
