/* XPM */
static char *menu_pressed[] = {
/* columns rows colors chars-per-pixel */
"24 24 35 1",
". c #EEEEEE",
"  c #D9D9D9",
"@ c #D2D2D2",
"# c #B4B4B4",
"$ c #9E9E9E",
"% c #939393",
"& c #C1C1C1",
"* c #949494",
"= c #909090",
"- c #D3D3D3",
"; c #B3B3B3",
"> c #9D9D9D",
", c #F0F0F0",
"' c #E7E7E7",
") c #AFAFAF",
"! c #D8D8D8",
"~ c #FEFEFE",
"{ c #FAFAFA",
"] c #CDCDCD",
"^ c #8F8F8F",
"/ c #BABABA",
"( c #EDEDED",
"_ c #EFEFEF",
": c #BCBCBC",
"< c #9C9C9C",
"[ c #D0D0D0",
"} c #D1D1D1",
"| c #D6D6D6",
"1 c #BFBFBF",
"2 c #8E8E8E",
"3 c #BEBEBE",
"4 c #929292",
"5 c #D5D5D5",
"6 c #CFCFCF",
"7 c #B0B0B0",
/* pixels */
"........................",
"                        ",
"                        ",
"                        ",
"                        ",
"        @#$%%$#@        ",
"       &*======*&       ",
"      &==========&      ",
"     @*==========*-     ",
"     #============;     ",
"     >==,')==)',==$     ",
"     %==!~{]]{~!==*     ",
"     %^^^/(~~_:^^^%     ",
"     >^^^^<  <^^^^>     ",
"     ;^^^^^^^^^^^^;     ",
"     [%^^^^^^^^^^*}     ",
"     |122222222221|     ",
"     ||34222222%3||     ",
"     5556)<==<76555     ",
"                        ",
"                        ",
"                        ",
"                        ",
"                        "
};
