/* XPM */
static char *shade_pressed[] = {
/* columns rows colors chars-per-pixel */
"24 24 19 1",
". c #EEEEEE",
"  c #D9D9D9",
"@ c #D2D2D2",
"# c #B4B4B4",
"$ c #9E9E9E",
"% c #939393",
"& c #C1C1C1",
"* c #949494",
"= c #909090",
"- c #CBCBCB",
"; c #FCFCFC",
"> c #FFFFFF",
", c #CACACA",
"' c #D3D3D3",
") c #B3B3B3",
"! c #9D9D9D",
"~ c #C8C8C8",
"{ c #959595",
"] c #9F9F9F",
/* pixels */
"........................",
"                        ",
"                        ",
"                        ",
"                        ",
"        @#$%%$#@        ",
"       &*======*&       ",
"      &==========&      ",
"     @*=-;>>>>;,=*'     ",
"     #==;>>>>>=;==)     ",
"     !==>>>>>>>>==$     ",
"     %=====~-=====*     ",
"     *====~>>-====*     ",
"     $===~>>>>-===$     ",
"     #=====>>=====#     ",
"     @*====>>===={'     ",
"      &==========&      ",
"       &*======{&       ",
"        ')]%%]#'        ",
"                        ",
"                        ",
"                        ",
"                        ",
"                        "
};
