/* XPM */
static char *stick_pressed[] = {
/* columns rows colors chars-per-pixel */
"24 24 25 1",
". c #EEEEEE",
"  c #D9D9D9",
"@ c #D2D2D2",
"# c #B4B4B4",
"$ c #9E9E9E",
"% c #939393",
"& c #C1C1C1",
"* c #949494",
"= c #909090",
"- c #999999",
"; c #DADADA",
"> c #EDEDED",
", c #C8C8C8",
"' c #A3A3A3",
") c #B5B5B5",
"! c #F6F6F6",
"~ c #FFFFFF",
"{ c #D3D3D3",
"] c #B3B3B3",
"^ c #9D9D9D",
"/ c #F5F5F5",
"( c #DDDDDD",
"_ c #B1B1B1",
": c #9F9F9F",
"< c #959595",
/* pixels */
"........................",
"                        ",
"                        ",
"                        ",
"                        ",
"        @#$%%$#@        ",
"       &*======*&       ",
"      &=====-;===&      ",
"     @*=>,')!~===*{     ",
"     #==~~~~~~====]     ",
"     ^==~~~~~~====$     ",
"     %==~~~~~~/(,_:     ",
"     *==~~~~~~====*     ",
"     $==~~~~~~====$     ",
"     #==>,')!~====#     ",
"     @*=====-;===<{     ",
"      &==========&      ",
"       &*======<&       ",
"        {]:%%:#{        ",
"                        ",
"                        ",
"                        ",
"                        ",
"                        "
};
