/* XPM */
static char *close_active[] = {
/* columns rows colors chars-per-pixel */
"24 24 36 1",
".	c #373737",
" 	c #2F2F2F",
"@	c #383634",
"#	c #68584B",
"$	c #886F5B",
"%	c #977B63",
"&	c #876F5B",
"*	c #67584B",
"=	c #534941",
"-	c #967A62",
";	c #9C7E65",
">	c #534A41",
",	c #9B7E65",
"'	c #313030",
")	c #5A4E45",
"!	c #9B7D64",
"~	c #5C4F45",
"{	c #303030",
"]	c #67574A",
"^	c #88705B",
"/	c #65564A",
"(	c #584C43",
"_	c #584D43",
":	c #615348",
"<	c #977A62",
"[	c #635549",
"}	c #605348",
"|	c #574C43",
"1	c #544941",
"2	c #5A4E44",
"3	c #66574A",
"4	c #594D44",
"5	c #69594C",
"6	c #373533",
"7	c #524940",
"8	c #866E5A",
/* pixels */
"........................",
"                        ",
"                        ",
"                        ",
"                        ",
"        @#$%%&*@        ",
"       =-;;;;;;->       ",
"      =,;;;;;;;;,>      ",
"     @-;;%;;;;-;;-@     ",
"     #;;;')!!~{;;;]     ",
"     ^;;;/ (_ :;;;&     ",
"     <;;;;[  };;;;-     ",
"     -;;;,|  1!;;;-     ",
"     $;;;2 33 4;;;&     ",
"     *;;;@5;;5@;;;3     ",
"     @-;;;;;;;;;;-6     ",
"      >,;;;;;;;;,7      ",
"       >-;;;;;;-7       ",
"        @]8<<836        ",
"                        ",
"                        ",
"                        ",
"                        ",
"                        "
};
