/* XPM */
static char * close_pressed_xpm[] = {
/* columns rows colors chars-per-pixel */
"24 24 29 1",
".	c #373737",
" 	c #2F2F2F",
"@	c #353432",
"#	c #564B43",
"$	c #6B5B4E",
"%	c #766353",
"&	c #554B43",
"*	c #48413C",
"=	c #756253",
"-	c #796555",
";	c #766354",
">	c #353433",
",	c #303030",
"'	c #4C453E",
")	c #786454",
"!	c #4D453F",
"~	c #554A42",
"{	c #6C5B4E",
"]	c #544A42",
"^	c #4B433D",
"/	c #514840",
"(	c #524941",
"_	c #4A433D",
":	c #786455",
"<	c #4C443E",
"[	c #574C44",
"}	c #343332",
"|	c #47403B",
"1	c #6A5A4D",
/* pixels */
"........................",
"                        ",
"                        ",
"                        ",
"                        ",
"        @#$%%$&@        ",
"       *=------=*       ",
"      *----------*      ",
"     @=--;----=--=>     ",
"     #---,'))!,---~     ",
"     {---] ^^ /---$     ",
"     =----(  /----=     ",
"     =----_  *:---=     ",
"     $---< ]] <---$     ",
"     &---@[--[@---]     ",
"     @=----------=}     ",
"      *----------|      ",
"       *=------=|       ",
"        >~1==1]}        ",
"                        ",
"                        ",
"                        ",
"                        ",
"                        "
};
