/* XPM */
static char * close_prelight_xpm[] = {
/* columns rows colors chars-per-pixel */
"24 24 37 1",
".	c #373737",
" 	c #2F2F2F",
"@	c #3A3735",
"#	c #716255",
"$	c #957E6A",
"%	c #A88C75",
"&	c #957D6A",
"*	c #706155",
"=	c #594F47",
"-	c #A68B74",
";	c #AD9078",
">	c #594F48",
",	c #AC8F78",
"'	c #A78C75",
")	c #A78B74",
"!	c #313130",
"~	c #61554C",
"{	c #AC8F77",
"]	c #63574D",
"^	c #303030",
"/	c #6F6054",
"(	c #967E6B",
"_	c #6D5F53",
":	c #5E534A",
"<	c #5F544B",
"[	c #695C51",
"}	c #6B5D52",
"|	c #685B50",
"1	c #5D534A",
"2	c #595047",
"3	c #AB8F77",
"4	c #60554C",
"5	c #6E6054",
"6	c #726356",
"7	c #393634",
"8	c #584E47",
"9	c #947D69",
/* pixels */
"........................",
"                        ",
"                        ",
"                        ",
"                        ",
"        @#$%%&*@        ",
"       =-;;;;;;->       ",
"      =,;;;;;;;;,>      ",
"     @-;;';;;;);;)@     ",
"     #;;;!~{{]^;;;/     ",
"     (;;;_ :< [;;;&     ",
"     );;;;}  |;;;;-     ",
"     -;;;,1  23;;;)     ",
"     $;;;4 55 <;;;&     ",
"     *;;;@6;;6@;;;/     ",
"     @-;;;;;;;;;;-7     ",
"      >,;;;;;;;;,8      ",
"       >);;;;;;-8       ",
"        @/9))9/7        ",
"                        ",
"                        ",
"                        ",
"                        ",
"                        "
};
