/* XPM */
static char *close_active[] = {
/* columns rows colors chars-per-pixel */
"24 24 38 1",
".	c #373737",
" 	c #2F2F2F",
"@	c #333A38",
"#	c #466F67",
"$	c #529386",
"%	c #58A595",
"&	c #529285",
"*	c #456E66",
"=	c #3D5853",
"-	c #57A394",
";	c #5AAA9A",
">	c #3E5853",
",	c #5AA999",
"'	c #59A495",
")	c #58A495",
"!	c #333938",
"~	c #303131",
"{	c #406059",
"]	c #59A999",
"^	c #41615B",
"/	c #303030",
"(	c #529487",
"_	c #446C64",
":	c #3F5D57",
"<	c #3F5E58",
"[	c #436860",
"}	c #446A62",
"|	c #43675F",
"1	c #3F5C56",
"2	c #5AA899",
"3	c #405F59",
"4	c #456D65",
"5	c #405E58",
"6	c #467068",
"7	c #58A394",
"8	c #323837",
"9	c #3D5752",
"0	c #519285",
/* pixels */
"........................",
"                        ",
"                        ",
"                        ",
"                        ",
"        @#$%%&*@        ",
"       =-;;;;;;->       ",
"      =,;;;;;;;;,>      ",
"     @-;;';;;;);;)!     ",
"     #;;;~{]]^/;;;*     ",
"     (;;;_ :< [;;;&     ",
"     );;;;}  |;;;;-     ",
"     -;;;,1  =2;;;)     ",
"     $;;;3 44 5;;;&     ",
"     *;;;@6;;6@;;;4     ",
"     @-;;;;;;;;;;78     ",
"      >,;;;;;;;;,9      ",
"       >);;;;;;79       ",
"        !*0))048        ",
"                        ",
"                        ",
"                        ",
"                        ",
"                        "
};
