/* XPM */
static char * close_active_xpm[] = {
"24 24 39 1",
" 	c None",
".	c #373737",
"+	c #2F2F2F",
"@	c #2D3839",
"#	c #23636A",
"$	c #1C808B",
"%	c #198F9B",
"&	c #1C808A",
"*	c #236369",
"=	c #285055",
"-	c #198E9A",
";	c #1893A0",
">	c #18929F",
",	c #1B8E9B",
"'	c #1A8E9A",
")	c #2E3839",
"!	c #2E3131",
"~	c #26575C",
"{	c #26585D",
"]	c #2F3030",
"^	c #236269",
"/	c #1D818C",
"(	c #246167",
"_	c #265459",
":	c #26555A",
"<	c #245D63",
"[	c #245F65",
"}	c #255C62",
"|	c #19929F",
"1	c #275155",
"2	c #19929E",
"3	c #26565B",
"4	c #246168",
"5	c #24646B",
"6	c #236168",
"7	c #1A8D9A",
"8	c #2D3738",
"9	c #284F53",
"0	c #1C7F8A",
"........................",
"++++++++++++++++++++++++",
"++++++++++++++++++++++++",
"++++++++++++++++++++++++",
"++++++++++++++++++++++++",
"++++++++@#$%%&*@++++++++",
"+++++++=-;;;;;;-=+++++++",
"++++++=>;;;;;;;;>=++++++",
"+++++@-;;,;;;;';;')+++++",
"+++++#;;;!~>>{];;;^+++++",
"+++++/;;;(+_:+<;;;&+++++",
"+++++-;;;;[++};;;;-+++++",
"+++++-;;;|_++12;;;'+++++",
"+++++$;;;3+44+:;;;&+++++",
"+++++*;;;@5;;5@;;;6+++++",
"+++++@-;;;;;;;;;;78+++++",
"++++++=>;;;;;;;;>9++++++",
"+++++++=';;;;;;79+++++++",
"++++++++)^0--068++++++++",
"++++++++++++++++++++++++",
"++++++++++++++++++++++++",
"++++++++++++++++++++++++",
"++++++++++++++++++++++++",
"++++++++++++++++++++++++"};
