/* XPM */
static char * close_prelight_xpm[] = {
"24 24 43 1",
" 	c None",
".	c #373737",
"+	c #2F2F2F",
"@	c #2C3A3C",
"#	c #20727B",
"$	c #1798A6",
"%	c #12AABB",
"&	c #1797A5",
"*	c #20717A",
"=	c #255A5F",
"-	c #12A9B9",
";	c #11B0C1",
">	c #265A60",
",	c #11AFC0",
"'	c #14AABA",
")	c #13A9B9",
"!	c #2D3A3B",
"~	c #2E3132",
"{	c #246269",
"]	c #11AFBF",
"^	c #23646B",
"/	c #2F3031",
"(	c #207179",
"_	c #1799A6",
":	c #206F77",
"<	c #235F66",
"[	c #236066",
"}	c #216A72",
"|	c #12AABA",
"1	c #216D75",
"2	c #226971",
"3	c #12AFC0",
"4	c #235F65",
"5	c #255A60",
"6	c #12AEBF",
"7	c #246168",
"8	c #207078",
"9	c #246167",
"0	c #20737C",
"a	c #207079",
"b	c #2C393A",
"c	c #25595E",
"d	c #1796A4",
"........................",
"++++++++++++++++++++++++",
"++++++++++++++++++++++++",
"++++++++++++++++++++++++",
"++++++++++++++++++++++++",
"++++++++@#$%%&*@++++++++",
"+++++++=-;;;;;;->+++++++",
"++++++=,;;;;;;;;,>++++++",
"+++++@-;;';;;;);;)!+++++",
"+++++#;;;~{]]^/;;;(+++++",
"+++++_;;;:+<[+};;;&+++++",
"+++++|;;;;1++2;;;;-+++++",
"+++++-;;;34++56;;;)+++++",
"+++++$;;;7+88+9;;;&+++++",
"+++++*;;;@0;;0@;;;a+++++",
"+++++@-;;;;;;;;;;)b+++++",
"++++++>,;;;;;;;;,c++++++",
"+++++++>);;;;;;)c+++++++",
"++++++++!(d||dab++++++++",
"++++++++++++++++++++++++",
"++++++++++++++++++++++++",
"++++++++++++++++++++++++",
"++++++++++++++++++++++++",
"++++++++++++++++++++++++"};
