/* XPM */
static char *close_pressed[] = {
/* columns rows colors chars-per-pixel */
"24 24 35 1 ",
"  c #2F2F2F",
". c gray19",
"X c #303130",
"o c gray20",
"O c #343732",
"+ c #353732",
"@ c #353833",
"# c gray22",
"$ c #46503D",
"% c #47513D",
"& c #49553E",
"* c #4A553F",
"= c #4A563F",
"- c #4B563F",
"; c #4B5740",
": c #4C5740",
"> c #4D5940",
", c #505D42",
"< c #505E42",
"1 c #516043",
"2 c #536244",
"3 c #546344",
"4 c #546445",
"5 c #556445",
"6 c #698151",
"7 c #6A8251",
"8 c #6A8352",
"9 c #738F56",
"0 c #738F57",
"q c #739057",
"w c #749157",
"e c #769458",
"r c #769459",
"t c #779459",
"y c #779559",
/* pixels */
"########################",
"oooooooooooooooooooooooo",
"                        ",
"                        ",
"                        ",
"        @57ww64@        ",
"       %9yyyyyy9%       ",
"      %tyyyyyyyyt%      ",
"     @9yy0yyyyqyyq+     ",
"     5yyyX:ee>.yyy3     ",
"     8yyy2 *= <yyy6     ",
"     9yyyy1  ,yyyy9     ",
"     9yyyt&  %ryyyq     ",
"     7yyy; 22 -yyy6     ",
"     4yyy@5yy5@yyy2     ",
"     @9yyyyyyyyyy0O     ",
"      %tyyyyyyyyt$      ",
"       %qyyyyyy0$       ",
"        +36qq62O        ",
"                        ",
"                        ",
"                        ",
"                        ",
"                        "
};
