/* XPM */
static char *close_pressed[] = {
/* columns rows colors chars-per-pixel */
"24 24 31 1 ",
"  c #2F2F2F",
". c #2F302F",
"X c gray19",
"o c #313230",
"O c #323232",
"+ c #373737",
"@ c #373A33",
"# c #4D5A41",
"$ c #4E5B41",
"% c #536244",
"& c #546444",
"* c #556445",
"= c #556545",
"- c #5A6C48",
"; c #5A6D48",
": c #5B6E49",
"> c #5C6E49",
", c #5C6F49",
"< c #5F734B",
"1 c #61754C",
"2 c #61764C",
"3 c #62784D",
"4 c #677E4F",
"5 c #677F50",
"6 c #687F50",
"7 c #6A8251",
"8 c #6A8352",
"9 c #738F56",
"0 c #739057",
"q c #749157",
"w c #779559",
/* pixels */
"++++++++++++++++++++++++",
"OOOOOOOOOOOOOOOOOOOOOOOO",
"                        ",
"                        ",
"                        ",
"                        ",
"        o$5qq5$o        ",
"       @8wwwwww7@       ",
"      o8wwwwwwww7o      ",
"      $ww>;ww>>ww#      ",
"      6ww2X*=.<ww4      ",
"      0www:..-www9      ",
"      0www&..%www9      ",
"      6ww,.,,.,ww4      ",
"      $ww13ww31ww#      ",
"      o7wwwwwwww7o      ",
"       @7wwwwww7@       ",
"        o#4005#o        ",
"                        ",
"                        ",
"                        ",
"                        ",
"                        ",
"                        "
};
