/* XPM */
static char *close_active[] = {
/* columns rows colors chars-per-pixel */
"24 24 38 1 ",
"  c #2F2F2F",
". c gray19",
"X c #313130",
"o c gray20",
"O c #363834",
"+ c #373935",
"@ c gray22",
"# c #4E5646",
"$ c #4F5746",
"% c #4F5747",
"& c #4F5847",
"* c #525C49",
"= c #535C49",
"- c #535D4A",
"; c #545E4A",
": c #555E4B",
"> c #555F4B",
", c #56614C",
"< c #5A664F",
"1 c #5B6750",
"2 c #5D6951",
"3 c #5F6B52",
"4 c #5F6C53",
"5 c #606D53",
"6 c #606D54",
"7 c #616E54",
"8 c #7C9068",
"9 c #7D9168",
"0 c #7D9169",
"q c #7E9269",
"w c #8AA172",
"e c #8AA272",
"r c #8AA273",
"t c #8BA373",
"y c #8EA675",
"u c #8EA775",
"i c #8EA776",
"p c #8FA876",
/* pixels */
"@@@@@@@@@@@@@@@@@@@@@@@@",
"oooooooooooooooooooooooo",
"                        ",
"                        ",
"                        ",
"        +70tt96+        ",
"       $wppppppw%       ",
"      $ippppppppi%      ",
"     +wppwpppprppr+     ",
"     7pppX>uu,.ppp5     ",
"     qppp3 =- 1ppp9     ",
"     wpppp2  <ppppw     ",
"     wpppi*  &ypppr     ",
"     0ppp: 33 ;ppp9     ",
"     6ppp+7pp7+ppp4     ",
"     +wppppppppppwO     ",
"      %ippppppppi#      ",
"       %rppppppw#       ",
"        +58ee84O        ",
"                        ",
"                        ",
"                        ",
"                        ",
"                        "
};
