/* XPM */
static char *close_active[] = {
/* columns rows colors chars-per-pixel */
"24 24 34 1 ",
"  c #2F2F2F",
". c #30302F",
"X c gray19",
"o c #313231",
"O c #323331",
"+ c #323232",
"@ c #373737",
"# c #393C36",
"$ c #58624D",
"% c #58634D",
"& c #59634E",
"* c #5F6C53",
"= c #616E54",
"- c #627055",
"; c #687759",
": c #69785A",
"> c #6A795B",
", c #6B7A5B",
"< c #6B7B5B",
"1 c #6B7B5C",
"2 c #6F805F",
"3 c #718360",
"4 c #728360",
"5 c #748662",
"6 c #7A8D66",
"7 c #7A8D67",
"8 c #7A8E67",
"9 c #7B8E67",
"0 c #7D9169",
"q c #7E9269",
"w c #8AA172",
"e c #8AA272",
"r c #8BA373",
"t c #8FA876",
/* pixels */
"@@@@@@@@@@@@@@@@@@@@@@@@",
"++++++++++++++++++++++++",
"                        ",
"                        ",
"                        ",
"                        ",
"        O&8rr8%O        ",
"       #qtttttt0#       ",
"      Oqtttttttt0O      ",
"      &tt,:tt,,tt$      ",
"      9tt4X=-.2tt6      ",
"      ettt>..;tttw      ",
"      ettt=..*tttw      ",
"      9tt1.<<.1tt6      ",
"      %tt35tt53tt$      ",
"      O0tttttttt0o      ",
"       #0tttttt0#       ",
"        o$6ee7$o        ",
"                        ",
"                        ",
"                        ",
"                        ",
"                        ",
"                        "
};
