/* XPM */
static char *close_prelight[] = {
/* columns rows colors chars-per-pixel */
"24 24 39 1 ",
"  c #AFCA95",
". c #B1CA97",
"X c #B1CC97",
"o c #B0CA98",
"O c #B1CA98",
"+ c #B0CB98",
"@ c #B1CB98",
"# c #B1CB99",
"$ c #B2CB99",
"% c #B5CE9F",
"& c #B7CE9F",
"* c #B7CDA2",
"= c #B8CDA3",
"- c #C3D1B6",
"; c #C4D1B6",
": c #C4D2B6",
"> c #C4D2B7",
", c #CBD4C3",
"< c #CCD5C3",
"1 c #D5D7D3",
"2 c #D5D8D3",
"3 c #D6D8D4",
"4 c gray85",
"5 c #DCE4D5",
"6 c #DEE4D8",
"7 c #DEE5D9",
"8 c #DFE6DB",
"9 c #E1E6DC",
"0 c #E1E7DD",
"q c #E4E9E0",
"w c #E6EAE2",
"e c #E6EAE3",
"r c #E7EAE3",
"t c #E7EBE4",
"y c #E8EBE6",
"u c #EEEEEE",
"i c #F5F6F6",
"p c #F7F7F8",
"a c #F8F8F9",
/* pixels */
"uuuuuuuuuuuuuuuuuuuuuuuu",
"444444444444444444444444",
"444444444444444444444444",
"444444444444444444444444",
"444444444444444444444444",
"444444441:*oo*>144444444",
"4444444,@      @<4444444",
"444444,          <444444",
"444441@  &    %  #244444",
"44444:   pw..qa   -44444",
"44444*   7area9   *44444",
"44444@    8aa0    @44444",
"44444@   Xtaay+   #44444",
"44444*   wa66aw   *44444",
"44444>   i5  5i   ;44444",
"444441@          $344444",
"444444<          ,444444",
"4444444<#      $,4444444",
"444444442-=OO=;344444444",
"444444444444444444444444",
"444444444444444444444444",
"444444444444444444444444",
"444444444444444444444444",
"444444444444444444444444"
};
