/* XPM */
static char *close_pressed[] = {
/* columns rows colors chars-per-pixel */
"24 24 33 1 ",
"  c #779559",
". c #7B985E",
"X c #7B985F",
"o c #7C9960",
"O c #89A271",
"+ c #8AA271",
"@ c #8CA374",
"# c #8CA475",
"$ c #8DA475",
"% c #8DA576",
"& c #A2B78E",
"* c #A4B890",
"= c #A5B991",
"- c #A5B992",
"; c #A6BA92",
": c #A6BA93",
"> c #A9BC96",
", c #ADBF9B",
"< c #AEBBA1",
"1 c #AFBCA2",
"2 c #AFBCA3",
"3 c #AEC09D",
"4 c #B0C19E",
"5 c #B1C2A0",
"6 c #B3C4A3",
"7 c #B6C6A6",
"8 c #CFD2CB",
"9 c #D6D7D5",
"0 c #D7D8D6",
"q c gray85",
"w c gray92",
"e c #FEFEFE",
"r c #FEFFFE",
/* pixels */
"wwwwwwwwwwwwwwwwwwwwwwww",
"qqqqqqqqqqqqqqqqqqqqqqqq",
"qqqqqqqqqqqqqqqqqqqqqqqq",
"qqqqqqqqqqqqqqqqqqqqqqqq",
"qqqqqqqqqqqqqqqqqqqqqqqq",
"qqqqqqqqqqqqqqqqqqqqqqqq",
"qqqqqqqq9<#..#19qqqqqqqq",
"qqqqqqq8O      +8qqqqqqq",
"qqqqqq9O        +9qqqqqq",
"qqqqqq<  -*  &;  2qqqqqq",
"qqqqqq@  :r3,e>  $qqqqqq",
"qqqqqqX   6rr7   Xqqqqqq",
"qqqqqqX   4er5   oqqqqqq",
"qqqqqq@  =r55r-  $qqqqqq",
"qqqqqq1  --  =;  2qqqqqq",
"qqqqqq9+        +0qqqqqq",
"qqqqqqq8+      +8qqqqqqq",
"qqqqqqqq02$XX%20qqqqqqqq",
"qqqqqqqqqqqqqqqqqqqqqqqq",
"qqqqqqqqqqqqqqqqqqqqqqqq",
"qqqqqqqqqqqqqqqqqqqqqqqq",
"qqqqqqqqqqqqqqqqqqqqqqqq",
"qqqqqqqqqqqqqqqqqqqqqqqq",
"qqqqqqqqqqqqqqqqqqqqqqqq"
};
