/* XPM */
static char *close_prelight[] = {
/* columns rows colors chars-per-pixel */
"24 24 31 1 ",
"  c #AFCA95",
". c #B0CA98",
"X c #B1CA98",
"o c #B1CB98",
"O c #B7CDA2",
"+ c #B8CDA3",
"@ c #B8CDA4",
"# c #B9CEA4",
"$ c #B9CEA5",
"% c #C6D2BB",
"& c #C7D2BC",
"* c #C7D3BC",
"= c #CCDABF",
"- c #CEDBC1",
"; c #CFDBC2",
": c #D0DDC4",
"> c #D3DECA",
", c #D4DFCB",
"< c #D5DECC",
"1 c #D5DFCD",
"2 c #D5D7D2",
"3 c #D8D9D7",
"4 c #D8D9D8",
"5 c gray85",
"6 c #D6E0CF",
"7 c #DBE3D4",
"8 c #DCE4D5",
"9 c #DDE4D6",
"0 c #DEE5D7",
"q c gray92",
"w c #F8F8F9",
/* pixels */
"qqqqqqqqqqqqqqqqqqqqqqqq",
"555555555555555555555555",
"555555555555555555555555",
"555555555555555555555555",
"555555555555555555555555",
"555555555555555555555555",
"555555553%@..@&355555555",
"55555552O      O25555555",
"5555553O        O3555555",
"555555%  ,1  ,,  *555555",
"555555+  ;w87w:  #555555",
"555555X   <ww6   o555555",
"555555X   9ww0   o555555",
"555555+  ,w>>w,  #555555",
"555555&  -=  =-  *555555",
"5555553O        O4555555",
"55555552O      O25555555",
"555555554*#XX$*455555555",
"555555555555555555555555",
"555555555555555555555555",
"555555555555555555555555",
"555555555555555555555555",
"555555555555555555555555",
"555555555555555555555555"
};
