/* XPM */
static char *close_active[] = {
/* columns rows colors chars-per-pixel */
"24 24 41 1 ",
"  c #92B372",
". c #92B373",
"X c #94B574",
"o c #95B475",
"O c #95B476",
"+ c #94B576",
"@ c #95B577",
"# c #96B577",
"$ c #96B578",
"% c #9CB97F",
"& c #9CB980",
"* c #9FBA85",
"= c #A0BA86",
"- c #A0BB86",
"; c #A0BB87",
": c #B4C5A4",
"> c #B5C6A4",
", c #B5C6A5",
"< c #C2CDB7",
"1 c #C2CDB8",
"2 c #D5DECC",
"3 c #D6DFCF",
"4 c #D3D5D0",
"5 c #D3D6D0",
"6 c #D3D6D1",
"7 c #D7DFD0",
"8 c gray85",
"9 c #D9E0D3",
"0 c #DBE2D5",
"q c #DBE2D6",
"w c #E0E5DA",
"e c #E1E6DC",
"r c #E2E6DD",
"t c #E2E7DD",
"y c #E3E7DE",
"u c #E3E8DE",
"i c #E5E9E2",
"p c #EEEEEE",
"a c #F5F5F6",
"s c #F7F7F8",
"d c #F8F8F9",
/* pixels */
"pppppppppppppppppppppppp",
"888888888888888888888888",
"888888888888888888888888",
"888888888888888888888888",
"888888888888888888888888",
"888888884>=OO-,488888888",
"8888888<#      #18888888",
"888888<.        .1888888",
"888884#  &    %  $588888",
"88888>   seXXwd   :88888",
"88888*   7dytd0   -88888",
"88888#    9ddq    #88888",
"88888#   +uddio   $88888",
"88888=   rd33dt   -88888",
"88888,   a2  2a   ,88888",
"888884#          $688888",
"8888881.        .1888888",
"88888881$      $18888888",
"888888885:;@@;,688888888",
"888888888888888888888888",
"888888888888888888888888",
"888888888888888888888888",
"888888888888888888888888",
"888888888888888888888888"
};
