/* XPM */
static char *close_pressed[] = {
/* columns rows colors chars-per-pixel */
"24 24 35 1 ",
"  c #779559",
". c #78955A",
"X c #78965A",
"o c #7B985E",
"O c #7B985F",
"+ c #7C985F",
"@ c #7C9960",
"# c #7D9961",
"$ c #89A271",
"% c #8AA271",
"& c #8AA272",
"* c #8BA373",
"= c #A7B697",
"- c #A7B698",
"; c #A7B798",
": c #B9C3AF",
"> c #BDCCAF",
", c #B9C3B0",
"< c #BFCDB1",
"1 c #C2CFB4",
"2 c #C2D0B5",
"3 c #C3D0B6",
"4 c #C5D2B8",
"5 c #C5D2B9",
"6 c #C6D3B9",
"7 c #C9D5BD",
"8 c #CBD7C0",
"9 c #D0D3CE",
"0 c #D1D3CE",
"q c #D1D4CF",
"w c gray85",
"e c #EEEEEE",
"r c #FCFDFB",
"t c #FDFDFC",
"y c white",
/* pixels */
"eeeeeeeeeeeeeeeeeeeeeeee",
"wwwwwwwwwwwwwwwwwwwwwwww",
"wwwwwwwwwwwwwwwwwwwwwwww",
"wwwwwwwwwwwwwwwwwwwwwwww",
"wwwwwwwwwwwwwwwwwwwwwwww",
"wwwwwwww9=%oo&;9wwwwwwww",
"wwwwwww:+      +:wwwwwww",
"wwwwww:.        .:wwwwww",
"wwwww9+          @0wwwww",
"wwwww=   r<  >t   =wwwww",
"wwwww$   4y21y7   &wwwww",
"wwwwwO   .6yy8X   +wwwww",
"wwwww+   .3yy7.   @wwwww",
"wwwww%   1y55y2   &wwwww",
"wwwww;   r2..2r   -wwwww",
"wwwww9+          #qwwwww",
"wwwwww:.        .,wwwwww",
"wwwwwww:@      #,wwwwwww",
"wwwwwwww0=*OO*-qwwwwwwww",
"wwwwwwwwwwwwwwwwwwwwwwww",
"wwwwwwwwwwwwwwwwwwwwwwww",
"wwwwwwwwwwwwwwwwwwwwwwww",
"wwwwwwwwwwwwwwwwwwwwwwww",
"wwwwwwwwwwwwwwwwwwwwwwww"
};
