/* XPM */
static char *close_active[] = {
/* columns rows colors chars-per-pixel */
"24 24 32 1 ",
"  c #92B372",
". c #95B476",
"X c #95B577",
"o c #96B577",
"O c #9FBA85",
"+ c #A0BA86",
"@ c #A1BB88",
"# c #A2BB88",
"$ c #A2BC89",
"% c #A2BC8A",
"& c #BAC8AC",
"* c #BAC9AD",
"= c #BBC9AD",
"- c #BDCEAD",
"; c #C0D0B1",
": c #C1D1B2",
"> c #C3D3B5",
", c #C8D5BC",
"< c #C9D6BD",
"1 c #C9D6BE",
"2 c #CAD6BE",
"3 c #CBD7C0",
"4 c #CCD8C2",
"5 c #D1D5CE",
"6 c #D3DDCA",
"7 c #D5DECC",
"8 c #D7DFCE",
"9 c #D7D8D6",
"0 c #D7D8D7",
"q c gray85",
"w c gray92",
"e c #F8F8F9",
/* pixels */
"wwwwwwwwwwwwwwwwwwwwwwww",
"qqqqqqqqqqqqqqqqqqqqqqqq",
"qqqqqqqqqqqqqqqqqqqqqqqq",
"qqqqqqqqqqqqqqqqqqqqqqqq",
"qqqqqqqqqqqqqqqqqqqqqqqq",
"qqqqqqqqqqqqqqqqqqqqqqqq",
"qqqqqqqq9&#..#*9qqqqqqqq",
"qqqqqqq5O      +5qqqqqqq",
"qqqqqq9O        +9qqqqqq",
"qqqqqq&  13  11  =qqqqqq",
"qqqqqq@  :e76e>  $qqqqqq",
"qqqqqqX   2ee4   oqqqqqq",
"qqqqqqX   7ee8   oqqqqqq",
"qqqqqq@  <e,,e<  $qqqqqq",
"qqqqqq*  ;-  -;  =qqqqqq",
"qqqqqq9+        +0qqqqqq",
"qqqqqqq5+      +5qqqqqqq",
"qqqqqqqq0=$XX%=0qqqqqqqq",
"qqqqqqqqqqqqqqqqqqqqqqqq",
"qqqqqqqqqqqqqqqqqqqqqqqq",
"qqqqqqqqqqqqqqqqqqqqqqqq",
"qqqqqqqqqqqqqqqqqqqqqqqq",
"qqqqqqqqqqqqqqqqqqqqqqqq",
"qqqqqqqqqqqqqqqqqqqqqqqq"
};
