/* XPM */
static char *maximize_active[] = {
/* columns rows colors chars-per-pixel */
"24 24 7 1 ",
"  c #404040",
". c #4F4F4F",
"X c gray65",
"o c #A9A9A9",
"O c #D7D7D7",
"+ c gray85",
"@ c #EEEEEE",
/* pixels */
"@@@@@@@@@@@@@@@@@@@@@@@@",
"++++++++++++++++++++++++",
"++++++++++++++++++++++++",
"++++++++++++++++++++++++",
"++++++++++++++++++++++++",
"++++++++++++++++++++++++",
"++++++++++++++++++++++++",
"++++++++++++++++++++++++",
"++++++++++++++++++++++++",
"+++++++++++X  .+++++++++",
"+++++++++O++o  +++++++++",
"+++++++++XO+Oo +++++++++",
"++++++++O X++Oo+++++++++",
"+++++++++  X++++++++++++",
"+++++++++.  oO++++++++++",
"+++++++++O++++++++++++++",
"++++++++++++++++++++++++",
"++++++++++++++++++++++++",
"++++++++++++++++++++++++",
"++++++++++++++++++++++++",
"++++++++++++++++++++++++",
"++++++++++++++++++++++++",
"++++++++++++++++++++++++",
"++++++++++++++++++++++++"
};
