/* XPM */
static char *menu_inactive[] = {
/* columns rows colors chars-per-pixel */
"24 24 13 1",
". c #EEEEEE",
"  c #D9D9D9",
"@ c #BBBBBB",
"# c #BDBDBD",
"$ c #CFCFCF",
"% c #C2C2C2",
"& c #B7B7B7",
"* c #C6C6C6",
"= c #CCCCCC",
"- c #B6B6B6",
"; c #CBCBCB",
"> c #D5D5D5",
", c #C1C1C1",
/* pixels */
"........................",
"                        ",
"                        ",
"                        ",
"                        ",
"                        ",
"                        ",
"                        ",
"                        ",
"                        ",
"        @#$  $#@        ",
"        %&&**&&%        ",
"         =@--@;         ",
"          >,,>          ",
"                        ",
"                        ",
"                        ",
"                        ",
"                        ",
"                        ",
"                        ",
"                        ",
"                        ",
"                        "
};
