/* XPM */
static char * top_left_active_xpm[] = {
"5 24 7 1",
" 	c None",
".	c #ECEDF0",
"+	c #EEEFF1",
"@	c #DFDFE0",
"#	c #DADADA",
"$	c #D9D9D9",
"%	c #BFBFBF",
" .+++",
".@#$$",
"%$$$$",
"%$$$$",
"%$$$$",
"%$$$$",
"%$$$$",
"%$$$$",
"%$$$$",
"%$$$$",
"%$$$$",
"%$$$$",
"%$$$$",
"%$$$$",
"%$$$$",
"%$$$$",
"%$$$$",
"%$$$$",
"%$$$$",
"%$$$$",
"%$$$$",
"%$$$$",
"%$$$$",
"%$$$$"};
