/* XPM */
static char *close_active[] = {
/* columns rows colors chars-per-pixel */
"24 24 30 1 ",
"  c #92b372",
". c #9AB87D",
"X c #9CB97E",
"o c #9CB980",
"O c #9EBA82",
"+ c #A0BC83",
"@ c #A6BF8E",
"# c #A7BF8F",
"$ c #B9C8A9",
"% c #B9C9AA",
"& c #C4CEBA",
"* c #C5CEBB",
"= c #C9D9B9",
"- c #CCDBBD",
"; c #CFDDC1",
": c #D0DEC3",
"> c #D3D6D1",
", c #D4D6D1",
"< c #D4D6D2",
"1 c gray85",
"2 c #D5E1C9",
"3 c #D7E3CC",
"4 c #D8E3CC",
"5 c #D8E4CD",
"6 c #DCE6D2",
"7 c #EEEEEE",
"8 c #F4F7F2",
"9 c #FBFCFA",
"0 c gray99",
"q c #FDFDFD",
/* pixels */
"777777777777777777777777",
"111111111111111111111111",
"111111111111111111111111",
"111111111111111111111111",
"111111111111111111111111",
"11111111,%@Xo@%>11111111",
"1111111&X.    .o&1111111",
"111111&...    ..X*111111",
"11111,X .+    o  X,11111",
"11111%. .93XX30   $11111",
"11111@   -q540: . #11111",
"11111X    -qq:  .Xo11111",
"11111o.  X4qq6X   X11111",
"11111@.. 4q--q3   #11111",
"11111%   8=  =8 . $11111",
"11111,X         .+,11111",
"111111&X.     .. &111111",
"1111111&+.    XX&1111111",
"11111111,%#oX@%,11111111",
"111111111111111111111111",
"111111111111111111111111",
"111111111111111111111111",
"111111111111111111111111",
"111111111111111111111111"
};
