/* XPM */
static char *hide_pressed[] = {
/* columns rows colors chars-per-pixel */
"24 24 9 1 ",
"  c #808080",
". c #848484",
"X c #9A9A9A",
"o c #AEAEAE",
"O c #CDCDCD",
"+ c #CECECE",
"@ c gray85",
"# c #EEEEEE",
"$ c white",
/* pixels */
"########################",
"@@@@@@@@@@@@@@@@@@@@@@@@",
"@@@@@@@@@@@@@@@@@@@@@@@@",
"@@@@@@@@@@@@@@@@@@@@@@@@",
"@@@@@@@@@@@@@@@@@@@@@@@@",
"@@@@@@@@OX.  .XO@@@@@@@@",
"@@@@@@@o        o@@@@@@@",
"@@@@@@o          o@@@@@@",
"@@@@@O            O@@@@@",
"@@@@@X            X@@@@@",
"@@@@@.            .@@@@@",
"@@@@@    $$$$$$    @@@@@",
"@@@@@    $$$$$$    @@@@@",
"@@@@@.            .@@@@@",
"@@@@@X            X@@@@@",
"@@@@@O            O@@@@@",
"@@@@@@o          o@@@@@@",
"@@@@@@@o        o@@@@@@@",
"@@@@@@@@OX.  .XO@@@@@@@@",
"@@@@@@@@@@@@@@@@@@@@@@@@",
"@@@@@@@@@@@@@@@@@@@@@@@@",
"@@@@@@@@@@@@@@@@@@@@@@@@",
"@@@@@@@@@@@@@@@@@@@@@@@@",
"@@@@@@@@@@@@@@@@@@@@@@@@"
};
