/* XPM */
static char *menu_active[] = {
/* columns rows colors chars-per-pixel */
"24 24 11 1 ",
"  c #909090",
". c #979797",
"X c #9D9D9D",
"o c gray63",
"O c gray66",
"+ c #B9B9B9",
"@ c #BCBCBC",
"# c #CDCDCD",
"$ c #D7D7D7",
"% c gray85",
"& c #EEEEEE",
/* pixels */
"&&&&&&&&&&&&&&&&&&&&&&&&",
"%%%%%%%%%%%%%%%%%%%%%%%%",
"%%%%%%%%%%%%%%%%%%%%%%%%",
"%%%%%%%%%%%%%%%%%%%%%%%%",
"%%%%%%%%%%%%%%%%%%%%%%%%",
"%%%%%%%%%%%%%%%%%%%%%%%%",
"%%%%%%%%%%%%%%%%%%%%%%%%",
"%%%%%%%%%%%%%%%%%%%%%%%%",
"%%%%%%%%%%%%%%%%%%%%%%%%",
"%%%%%%%%%%%%%%%%%%%%%%%%",
"%%%%%%%%@.@%%@.+%%%%%%%%",
"%%%%%%%%+  OO  +%%%%%%%%",
"%%%%%%%%%@.  .@%%%%%%%%%",
"%%%%%%%%%%#oX#%%%%%%%%%%",
"%%%%%%%%%%%$%%%%%%%%%%%%",
"%%%%%%%%%%%%%%%%%%%%%%%%",
"%%%%%%%%%%%%%%%%%%%%%%%%",
"%%%%%%%%%%%%%%%%%%%%%%%%",
"%%%%%%%%%%%%%%%%%%%%%%%%",
"%%%%%%%%%%%%%%%%%%%%%%%%",
"%%%%%%%%%%%%%%%%%%%%%%%%",
"%%%%%%%%%%%%%%%%%%%%%%%%",
"%%%%%%%%%%%%%%%%%%%%%%%%",
"%%%%%%%%%%%%%%%%%%%%%%%%"
};
