/* XPM */
static char *menu_active[] = {
/* columns rows colors chars-per-pixel */
"24 24 15 1",
". c #EEEEEE",
"  c #D9D9D9",
"@ c #9A9A9A",
"# c #A0A0A0",
"$ c #C5C5C5",
"% c #AAAAAA",
"& c #929292",
"* c #939393",
"= c #B1B1B1",
"- c #BDBDBD",
"; c #9B9B9B",
"> c #909090",
", c #BCBCBC",
"' c #D2D2D2",
") c #A9A9A9",
/* pixels */
"........................",
"                        ",
"                        ",
"                        ",
"                        ",
"                        ",
"                        ",
"                        ",
"                        ",
"                        ",
"        @#$  $#@        ",
"        %&*==*&%        ",
"         -;>>@,         ",
"          '))'          ",
"                        ",
"                        ",
"                        ",
"                        ",
"                        ",
"                        ",
"                        ",
"                        ",
"                        ",
"                        "
};
