/* XPM */
static char *menu_prelight[] = {
/* columns rows colors chars-per-pixel */
"24 24 31 1",
". c #EEEEEE",
"  c #D9D9D9",
"@ c #DBDBDB",
"# c #DEDEDE",
"$ c #D8D8D8",
"% c #D3D3D3",
"& c #DFDFDF",
"* c #D5D5D5",
"= c #E4E4E4",
"- c #F3F3F3",
"; c #FBFBFB",
"> c #D6D6D6",
", c #F5F5F5",
"' c #FDFDFD",
") c #F4F4F4",
"! c #E3E3E3",
"~ c #D7D7D7",
"{ c #4C4C4C",
"] c #464646",
"^ c #A7A7A7",
"/ c #4D4D4D",
"( c #404040",
"_ c #B5B5B5",
": c #CBCBCB",
"< c #4F4F4F",
"[ c #4A4A4A",
"} c #C9C9C9",
"| c #FAFAFA",
"1 c #D4D4D4",
"2 c #EFEFEF",
"3 c #A6A6A6",
/* pixels */
"........................",
"                        ",
"                        ",
"                        ",
"                        ",
"        @#$%%$#@        ",
"       &*=-;;-=*&       ",
"      &>,'''''')>&      ",
"     @*,'''''''')*@     ",
"     #=''''''''''!#     ",
"     ~-'{]$''$]{'-$     ",
"     %;'^/(__(/^';%     ",
"     %;'':<[[{}''|1     ",
"     $-'''2332'''-$     ",
"     #=''''''''''!#     ",
"     @*)'''''''')*@     ",
"      &>)'''''')>#      ",
"       &*!-;;-!*#       ",
"        @#$%%$#@        ",
"                        ",
"                        ",
"                        ",
"                        ",
"                        "
};
