/* XPM */
static char *menu_pressed[] = {
/* columns rows colors chars-per-pixel */
"24 24 18 1 ",
"  c #909090",
". c gray58",
"X c gray62",
"o c gray64",
"O c gray65",
"+ c #B6B6B6",
"@ c #B9B9B9",
"# c gray75",
"$ c #C0C0C0",
"% c gray81",
"& c #D0D0D0",
"* c #D7D7D7",
"= c gray85",
"- c #E6E6E6",
"; c #EEEEEE",
": c #F4F4F4",
"> c #F9F9F9",
", c white",
/* pixels */
";;;;;;;;;;;;;;;;;;;;;;;;",
"========================",
"========================",
"========================",
"========================",
"========&O.   O&========",
"=======+        +=======",
"======+          @======",
"=====&            &=====",
"=====O            O=====",
"=====.  #:#  @:#  .=====",
"=====   $,,=*,,$   =====",
"=====    @>,,>@    =====",
"=====.    X-;o     =====",
"=====O     .      O=====",
"=====%            &=====",
"======+          +======",
"=======+        +=======",
"========&O.  .O&========",
"========================",
"========================",
"========================",
"========================",
"========================"
};
