/* XPM */
static char *menu_inactive[] = {
/* columns rows colors chars-per-pixel */
"24 24 10 1 ",
"  c #B6B6B6",
". c gray72",
"X c #BCBCBC",
"o c gray76",
"O c #CBCBCB",
"+ c #CDCDCD",
"@ c LightGray",
"# c #D5D5D5",
"$ c gray85",
"% c #EEEEEE",
/* pixels */
"%%%%%%%%%%%%%%%%%%%%%%%%",
"$$$$$$$$$$$$$$$$$$$$$$$$",
"$$$$$$$$$$$$$$$$$$$$$$$$",
"$$$$$$$$$$$$$$$$$$$$$$$$",
"$$$$$$$$$$$$$$$$$$$$$$$$",
"$$$$$$$$$$$$$$$$$$$$$$$$",
"$$$$$$$$$$$$$$$$$$$$$$$$",
"$$$$$$$$$$$$$$$$$$$$$$$$",
"$$$$$$$$$$$$$$$$$$$$$$$$",
"$$$$$$$$$$$$$$$$$$$$$$$$",
"$$$$$$$$O.O$$O.O$$$$$$$$",
"$$$$$$$$O  oo  O$$$$$$$$",
"$$$$$$$$$+..  +$$$$$$$$$",
"$$$$$$$$$$#XX@$$$$$$$$$$",
"$$$$$$$$$$$#$$$$$$$$$$$$",
"$$$$$$$$$$$$$$$$$$$$$$$$",
"$$$$$$$$$$$$$$$$$$$$$$$$",
"$$$$$$$$$$$$$$$$$$$$$$$$",
"$$$$$$$$$$$$$$$$$$$$$$$$",
"$$$$$$$$$$$$$$$$$$$$$$$$",
"$$$$$$$$$$$$$$$$$$$$$$$$",
"$$$$$$$$$$$$$$$$$$$$$$$$",
"$$$$$$$$$$$$$$$$$$$$$$$$",
"$$$$$$$$$$$$$$$$$$$$$$$$"
};
