/* XPM */
static char *shade_toggled_active[] = {
/* columns rows colors chars-per-pixel */
"24 24 14 1 ",
"  c #909090",
". c #989898",
"X c #A0A0A0",
"o c gray65",
"O c #A9A9A9",
"+ c #B2B2B2",
"@ c gray71",
"# c gray",
"$ c #C0C0C0",
"% c #C8C8C8",
"& c gray83",
"* c gray84",
"= c gray85",
"- c #EEEEEE",
/* pixels */
"------------------------",
"========================",
"========================",
"========================",
"========================",
"========================",
"========================",
"========================",
"===========XX===========",
"===========  ===========",
"===========  ===========",
"=========*=  =*=========",
"========@ +  @ @========",
"========#      #========",
"=========%.  .%=========",
"==========*Oo*==========",
"========================",
"========================",
"========================",
"========================",
"========================",
"========================",
"========================",
"========================"
};
