/* XPM */
static char *shade_prelight[] = {
/* columns rows colors chars-per-pixel */
"24 24 20 1 ",
"  c gray48",
". c #7C7C7C",
"X c #898989",
"o c gray60",
"O c gray62",
"+ c gray65",
"@ c #BBBBBB",
"# c gray74",
"$ c #CDCDCD",
"% c LightGray",
"& c gray84",
"* c gray85",
"= c #DFDFDF",
"- c gray89",
"; c #E4E4E4",
": c #EEEEEE",
"> c #F3F3F3",
", c gray96",
"< c #FBFBFB",
"1 c #FDFDFD",
/* pixels */
"::::::::::::::::::::::::",
"************************",
"************************",
"************************",
"************************",
"*********=&%%*=*********",
"*******=&;><<>;&=*******",
"******=&,111111>&=******",
"******&,11,+O><1,&******",
"*****=-11=X  X*11-=*****",
"*****&>1%.    .$1>******",
"*****&<1@ @  #.@1<%*****",
"*****%<1<<1  1,11<%*****",
"******>1111  1111>&*****",
"*****=;1111  1111-=*****",
"******&>111oo111>&******",
"******=&>111111>&=******",
"*******=&;><<>-&=*******",
"*********=&%%*=*********",
"************************",
"************************",
"************************",
"************************",
"************************"
};
