/* XPM */
static char *shade_toggled_prelight[] = {
/* columns rows colors chars-per-pixel */
"24 24 20 1 ",
"  c gray48",
". c #7C7C7C",
"X c #898989",
"o c gray60",
"O c #A2A2A2",
"+ c gray65",
"@ c gray73",
"# c gray74",
"$ c #CDCDCD",
"% c LightGray",
"& c gray84",
"* c gray85",
"= c #DFDFDF",
"- c gray89",
"; c #E4E4E4",
": c #EEEEEE",
"> c #F3F3F3",
", c gray96",
"< c #FBFBFB",
"1 c #FDFDFD",
/* pixels */
"::::::::::::::::::::::::",
"************************",
"************************",
"************************",
"************************",
"*********=*%%*=*********",
"*******=&-><<>;&=*******",
"******=&,111111>&=******",
"******&,111oo111,&******",
"*****=-1111  1111-=*****",
"*****&>1111  1111>&*****",
"*****&<11,1  <<11<%*****",
"*****%<1#.@  @.@1<%*****",
"******>1%     .$1>******",
"*****=-1<=X  X=<1-=*****",
"******&>11,+O>11,&******",
"******=&>111111,&=******",
"*******=&;><<>;&=*******",
"*********=&%%&=*&*******",
"************************",
"************************",
"************************",
"************************",
"************************"
};
