/* XPM */
static char *shade_active[] = {
/* columns rows colors chars-per-pixel */
"24 24 16 1 ",
"  c #909090",
". c gray57",
"X c #989898",
"o c gray63",
"O c #A4A4A4",
"+ c #A9A9A9",
"@ c #B2B2B2",
"# c gray71",
"$ c gray",
"% c #C0C0C0",
"& c gray78",
"* c #C8C8C8",
"= c #D2D2D2",
"- c gray83",
"; c gray85",
": c #EEEEEE",
/* pixels */
"::::::::::::::::::::::::",
";;;;;;;;;;;;;;;;;;;;;;;;",
";;;;;;;;;;;;;;;;;;;;;;;;",
";;;;;;;;;;;;;;;;;;;;;;;;",
";;;;;;;;;;;;;;;;;;;;;;;;",
";;;;;;;;;;;;;;;;;;;;;;;;",
";;;;;;;;;;;;;;;;;;;;;;;;",
";;;;;;;;;;;;;;;;;;;;;;;;",
";;;;;;;;;;=+O=;;;;;;;;;;",
";;;;;;;;;*X .X*;;;;;;;;;",
";;;;;;;;%.. ...$;;;;;;;;",
";;;;;;;;#.@. #.@;;;;;;;;",
";;;;;;;;;=;. ;=;;;;;;;;;",
";;;;;;;;;;;. ;;;;;;;;;;;",
";;;;;;;;;;;..;;;;;;;;;;;",
";;;;;;;;;;;oo;;;;;;;;;;;",
";;;;;;;;;;;;;;;;;;;;;;;;",
";;;;;;;;;;;;;;;;;;;;;;;;",
";;;;;;;;;;;;;;;;;;;;;;;;",
";;;;;;;;;;;;;;;;;;;;;;;;",
";;;;;;;;;;;;;;;;;;;;;;;;",
";;;;;;;;;;;;;;;;;;;;;;;;",
";;;;;;;;;;;;;;;;;;;;;;;;",
";;;;;;;;;;;;;;;;;;;;;;;;"
};
