/* XPM */
static char *shade_toggled_inactive[] = {
/* columns rows colors chars-per-pixel */
"24 24 10 1 ",
"  c #B6B6B6",
". c gray73",
"X c gray",
"o c #C0C0C0",
"O c gray78",
"+ c gray80",
"@ c gray82",
"# c #D7D7D7",
"$ c gray85",
"% c #EEEEEE",
/* pixels */
"%%%%%%%%%%%%%%%%%%%%%%%%",
"$$$$$$$$$$$$$$$$$$$$$$$$",
"$$$$$$$$$$$$$$$$$$$$$$$$",
"$$$$$$$$$$$$$$$$$$$$$$$$",
"$$$$$$$$$$$$$$$$$$$$$$$$",
"$$$$$$$$$$$$$$$$$$$$$$$$",
"$$$$$$$$$$$$$$$$$$$$$$$$",
"$$$$$$$$$$$$$$$$$$$$$$$$",
"$$$$$$$$$$$XX$$$$$$$$$$$",
"$$$$$$$$$$$  $$$$$$$$$$$",
"$$$$$$$$$$$  $$$$$$$$$$$",
"$$$$$$$$$$$  $#$$$$$$$$$",
"$$$$$$$$O O  O O$$$$$$$$",
"$$$$$$$$+      +$$$$$$$$",
"$$$$$$$$$@.  .@$$$$$$$$$",
"$$$$$$$$$$$oo#$$$$$$$$$$",
"$$$$$$$$$$$$$$$$$$$$$$$$",
"$$$$$$$$$$$$$$$$$$$$$$$$",
"$$$$$$$$$$$$$$$$$$$$$$$$",
"$$$$$$$$$$$$$$$$$$$$$$$$",
"$$$$$$$$$$$$$$$$$$$$$$$$",
"$$$$$$$$$$$$$$$$$$$$$$$$",
"$$$$$$$$$$$$$$$$$$$$$$$$",
"$$$$$$$$$$$$$$$$$$$$$$$$"
};
