/* XPM */
static char *stick_inactive[] = {
/* columns rows colors chars-per-pixel */
"24 24 9 1 ",
"  c #B7B7B7",
". c gray73",
"X c gray74",
"o c gray78",
"O c #CECECE",
"+ c gray82",
"@ c gray84",
"# c gray85",
"$ c #EEEEEE",
/* pixels */
"$$$$$$$$$$$$$$$$$$$$$$$$",
"########################",
"########################",
"########################",
"########################",
"########@oX  Xo@########",
"#######O.o+#@+o.O#######",
"######O.+@#####+.O######",
"#####@.+########+.@#####",
"#####oo##########oo#####",
"#####.+##########+X#####",
"#####.###########@ #####",
"##### ###########@.#####",
"#####X+##########+X#####",
"#####oo##########oo#####",
"#####@.+########+.@#####",
"######O.+#####@+.O######",
"#######O o+@#+o.O#######",
"########@oX  Xo@########",
"########################",
"########################",
"########################",
"########################",
"########################"
};
