/* XPM */
static char *stick_toggled_active[] = {
/* columns rows colors chars-per-pixel */
"24 24 18 1 ",
"  c #909090",
". c #939393",
"X c gray59",
"o c #989898",
"O c gray62",
"+ c #A7A7A7",
"@ c gray66",
"# c #AFAFAF",
"$ c gray70",
"% c #B4B4B4",
"& c #C1C1C1",
"* c #C8C8C8",
"= c #CBCBCB",
"- c gray80",
"; c #D2D2D2",
": c #D5D5D5",
"> c gray85",
", c #EEEEEE",
/* pixels */
",,,,,,,,,,,,,,,,,,,,,,,,",
">>>>>>>>>>>>>>>>>>>>>>>>",
">>>>>>>>>>>>>>>>>>>>>>>>",
">>>>>>>>>>>>>>>>>>>>>>>>",
">>>>>>>>>>>>>>>>>>>>>>>>",
">>>>>>>>;$O..O%;>>>>>>>>",
">>>>>>>&X#=::=#X&>>>>>>>",
">>>>>>&o->>>>>>=o&>>>>>>",
">>>>>;X->;+X.+=>=X;>>>>>",
">>>>>$$>-X    .;>#$>>>>>",
">>>>>O=:@     .+>=O>>>>>",
">>>>>.:>X.     .>:.>>>>>",
">>>>>X:>.      X>:X>>>>>",
">>>>>O=>+      +:=O>>>>>",
">>>>>%$>=X.  .X;>#%>>>>>",
">>>>:;X->-+..+;:=X:>>>>>",
">>>>>>&X=>>>>>:-o&>>>>>>",
">>>>>>>&X#=:;=$X&>>>>>>>",
">>>>>>>>:$O..O%;>>>>>>>>",
">>>>>>>>>>>>>>>>>>>>>>>>",
">>>>>>>>>>>>>>>>>>>>>>>>",
">>>>>>>>>>>>>>>>>>>>>>>>",
">>>>>>>>>>>>>>>>>>>>>>>>",
">>>>>>>>>>>>>>>>>>>>>>>>"
};
