/* XPM */
static char *stick_toggled_pressed[] = {
/* columns rows colors chars-per-pixel */
"24 24 36 1",
". c #EEEEEE",
"  c #D9D9D9",
"@ c #D2D2D2",
"# c #B4B4B4",
"$ c #9E9E9E",
"% c #939393",
"& c #C1C1C1",
"* c #949494",
"= c #909090",
"- c #A3A3A3",
"; c #E2E2E2",
"> c #999999",
", c #DADADA",
"' c #979797",
") c #E9E9E9",
"! c #EDEDED",
"~ c #B2B2B2",
"{ c #F5F5F5",
"] c #FFFFFF",
"^ c #D3D3D3",
"/ c #AAAAAA",
"( c #EBEBEB",
"_ c #ABABAB",
": c #F6F6F6",
"< c #B3B3B3",
"[ c #9D9D9D",
"} c #F8F8F8",
"| c #ACACAC",
"1 c #ECECEC",
"2 c #DDDDDD",
"3 c #C8C8C8",
"4 c #B1B1B1",
"5 c #9F9F9F",
"6 c #B5B5B5",
"7 c #D1D1D1",
"8 c #959595",
/* pixels */
"........................",
"                        ",
"                        ",
"                        ",
"                        ",
"        @#$%%$#@        ",
"       &*======*&       ",
"      &-;>==>,===&      ",
"     @*')!>~{]===*^     ",
"     #==/(!_:]====<     ",
"     [==}|(._:====$     ",
"     %==]:/(!_12345     ",
"     *==]]}|(.>===*     ",
"     $==]]]:_((>==$     ",
"     #==!3-6!_)(>=#     ",
"     @*=====>7>;-8^     ",
"      &==========&      ",
"       &*======8&       ",
"        ^<5%%5#^        ",
"                        ",
"                        ",
"                        ",
"                        ",
"                        "
};
