/* XPM */
static char *stick_active[] = {
/* columns rows colors chars-per-pixel */
"24 24 15 1 ",
"  c #939393",
". c gray59",
"X c #989898",
"o c gray62",
"O c #AFAFAF",
"+ c gray70",
"@ c #B4B4B4",
"# c #C1C1C1",
"$ c #C8C8C8",
"% c #CBCBCB",
"& c gray80",
"* c #D2D2D2",
"= c #D5D5D5",
"- c gray85",
"; c #EEEEEE",
/* pixels */
";;;;;;;;;;;;;;;;;;;;;;;;",
"------------------------",
"------------------------",
"------------------------",
"------------------------",
"--------*+o  o@*--------",
"-------#.O%==%O.#-------",
"------#X&------%X#------",
"-----*.&--------%.*-----",
"-----++----------O+-----",
"-----o%----------%o-----",
"----= =----------= -----",
"-----.=----------= -----",
"-----o%=---------%o-----",
"-----@O----------O@-----",
"-----*.%--------&.*-----",
"------#X%------%X#------",
"-------#.O%=*%O.#-------",
"--------*+o. o@=--------",
"------------------------",
"------------------------",
"------------------------",
"------------------------",
"------------------------"
};
