/* XPM */
static char *stick_active[] = {
/* columns rows colors chars-per-pixel */
"24 24 14 1",
". c #EEEEEE",
"  c #D9D9D9",
"@ c #D3D3D3",
"# c #A8A8A8",
"$ c #9C9C9C",
"% c #B4B4B4",
"& c #CDCDCD",
"* c #C1C1C1",
"= c #969696",
"- c #909090",
"; c #979797",
"> c #A6A6A6",
", c #C4C4C4",
"' c #D2D2D2",
/* pixels */
"........................",
"                        ",
"                        ",
"                        ",
"                        ",
"                        ",
"                        ",
"            @#          ",
"        $%&*=-          ",
"        ------          ",
"        ------          ",
"        ------;>%,'     ",
"        ------          ",
"        ------          ",
"        $%&*=-          ",
"            @#          ",
"                        ",
"                        ",
"                        ",
"                        ",
"                        ",
"                        ",
"                        ",
"                        "
};
