/* XPM */
static char *stick_toggled_prelight[] = {
/* columns rows colors chars-per-pixel */
"24 24 17 1 ",
"  c gray48",
". c #838383",
"X c gray64",
"o c #A4A4A4",
"O c gray70",
"+ c #B4B4B4",
"@ c #B9B9B9",
"# c #C3C3C3",
"$ c LightGray",
"% c gray85",
"& c gray87",
"* c gray88",
"= c #E9E9E9",
"- c #EEEEEE",
"; c #F3F3F3",
": c gray96",
"> c #FDFDFD",
/* pixels */
"------------------------",
"%%%%%%%%%%%%%%%%%%%%%%%%",
"%%%%%%%%%%%%%%%%%%%%%%%%",
"%%%%%%%%%%%%%%%%%%%%%%%%",
"%%%%%%%%%%%%%%%%%%%%%%%%",
"%%%%%%%%$@OO+O@$%%%%%%%%",
"%%%%%%%#+@&::%@O#%%%%%%%",
"%%%%%%#O*>>>>>>&+#%%%%%%",
"%%%%%$+&>-X. o=>&+$%%%%%",
"%%%%%@@>-.    .;>@@%%%%%",
"%%%%%O&>o      o>%O%%%%%",
"%%%%%O:>.      .>:+%%%%%",
"%%%%%+:>.      .>:+%%%%%",
"%%%%%+&>X      o>%O%%%%%",
"%%%%%@+>=.    .->@@%%%%%",
"%%%%%$+&>-X..o->&+$%%%%%",
"%%%%%%#O&>>>>>>&+#%%%%%%",
"%%%%%%%#O@%::%@+#%%%%%%%",
"%%%%%%%%$@O+++@$%%%%%%%%",
"%%%%%%%%%%%%%%%%%%%%%%%%",
"%%%%%%%%%%%%%%%%%%%%%%%%",
"%%%%%%%%%%%%%%%%%%%%%%%%",
"%%%%%%%%%%%%%%%%%%%%%%%%",
"%%%%%%%%%%%%%%%%%%%%%%%%"
};
