/* XPM */
static char *stick_toggled_inactive[] = {
/* columns rows colors chars-per-pixel */
"24 24 11 1 ",
"  c #B6B6B6",
". c #B7B7B7",
"X c gray73",
"o c gray74",
"O c #C1C1C1",
"+ c gray78",
"@ c #CECECE",
"# c gray82",
"$ c gray84",
"% c gray85",
"& c #EEEEEE",
/* pixels */
"&&&&&&&&&&&&&&&&&&&&&&&&",
"%%%%%%%%%%%%%%%%%%%%%%%%",
"%%%%%%%%%%%%%%%%%%%%%%%%",
"%%%%%%%%%%%%%%%%%%%%%%%%",
"%%%%%%%%%%%%%%%%%%%%%%%%",
"%%%%%%%%$+o..o+$%%%%%%%%",
"%%%%%%%@X+#%$#+X@%%%%%%%",
"%%%%%%@X#$%%%%%#X@%%%%%%",
"%%%%%$X#%$XX.o$%#X$%%%%%",
"%%%%%++%$X.....$%++%%%%%",
"%%%%%X#%O......O%#o%%%%%",
"%%%%%X%%........%$.%%%%%",
"%%%%%.%%. ...  .%$X%%%%%",
"%%%%%o#%X......o%#o%%%%%",
"%%%%%++%$......#%++%%%%%",
"%%%%%$.#%$OX.O$%#X$%%%%%",
"%%%%%%@X#%%%%%$#X@%%%%%%",
"%%%%%%%@.+#$%#+X@%%%%%%%",
"%%%%%%%%$+o..o+$%%%%%%%%",
"%%%%%%%%%%%%%%%%%%%%%%%%",
"%%%%%%%%%%%%%%%%%%%%%%%%",
"%%%%%%%%%%%%%%%%%%%%%%%%",
"%%%%%%%%%%%%%%%%%%%%%%%%",
"%%%%%%%%%%%%%%%%%%%%%%%%"
};
