/* XPM */
static char *stick_prelight[] = {
/* columns rows colors chars-per-pixel */
"24 24 11 1 ",
"  c gray70",
". c #B4B4B4",
"X c #B9B9B9",
"o c #C3C3C3",
"O c LightGray",
"+ c gray85",
"@ c gray87",
"# c gray88",
"$ c #EEEEEE",
"% c gray96",
"& c #FDFDFD",
/* pixels */
"$$$$$$$$$$$$$$$$$$$$$$$$",
"++++++++++++++++++++++++",
"++++++++++++++++++++++++",
"++++++++++++++++++++++++",
"++++++++++++++++++++++++",
"++++++++OX  . XO++++++++",
"+++++++o.X@%%+X o+++++++",
"++++++o #&&&&&&@.o++++++",
"+++++O.#&&&&&&&&@.O+++++",
"+++++XX&&&&&&&&&&XX+++++",
"+++++ +&&&&&&&&&&+ +++++",
"+++++.%&&&&&&&&&&%.+++++",
"+++++.%&&&&&&&&&&%.+++++",
"+++++ @&&&&&&&&&&+ +++++",
"+++++XX&&&&&&&&&&XX+++++",
"+++++O.@&&&&&&&&@.O+++++",
"++++++o.@&&&&&&@.o++++++",
"+++++++o X+%%+X.o+++++++",
"++++++++OX ...XO++++++++",
"++++++++++++++++++++++++",
"++++++++++++++++++++++++",
"++++++++++++++++++++++++",
"++++++++++++++++++++++++",
"++++++++++++++++++++++++"
};
