/* XPM */
static char * top_right_active_xpm[] = {
"5 24 5 1",
" 	c None",
".	c #EEEEEE",
"+	c #D9D9D9",
"@	c #DFDFE0",
"#	c #BFBFBF",
".... ",
"+++@.",
"++++#",
"++++#",
"++++#",
"++++#",
"++++#",
"++++#",
"++++#",
"++++#",
"++++#",
"++++#",
"++++#",
"++++#",
"++++#",
"++++#",
"++++#",
"++++#",
"++++#",
"++++#",
"++++#",
"++++#",
"++++#",
"++++#"};
