<?xml version="1.0" encoding="UTF-8" standalone="no"?>
<svg xmlns="http://www.w3.org/2000/svg" height="22" width="24" version="1.1">
 <defs>
  <linearGradient id="a" y2="231.24" gradientUnits="userSpaceOnUse" x2="206.75" y1="246.71" x1="205.84">
   <stop stop-color="#0b2e52" offset="0"/>
   <stop stop-color="#1862af" offset="1"/>
  </linearGradient>
  <linearGradient id="b" y2="-388.73" gradientUnits="userSpaceOnUse" x2="-93.031" gradientTransform="matrix(1.5918 0 0 .85714 -256.56 59.685)" y1="-396.35" x1="-93.031">
   <stop stop-color="#515151" offset="0"/>
   <stop stop-color="#292929" offset="1"/>
  </linearGradient>
 </defs>
 <g transform="translate(-342.5 -521.36)">
  <g transform="matrix(.80230 0 0 .80230 -87.624 -453.1)">
   <g transform="matrix(1.9969 0 0 1.9969 -397.05 877)">
    <g transform="translate(877.5 -102.84)">
     <rect ry="1.0053" stroke="#3465a4" stroke-width="1.2483" fill="url(#b)" style="color:#000000;enable-background:new" rx="1.0053" transform="scale(1,-1)" width="11.282" height="11.262" y="-284.4" x="-409.59"/>
    </g>
   </g>
  </g>
  <g transform="matrix(.84337 0 0 .84337 -110.17 -503.56)">
   <g style="enable-background:new" transform="translate(344 988)" fill="none">
	<g stroke-linejoin="round" stroke-linecap="round">
     <path d="m198.5 240 5.25 5.25 13.986-14.431" stroke="url(#a)" stroke-width="7.1143"/>
     <path d="m198.5 240 5.25 5.25 13.912-14.32" stroke="#4787c8" stroke-width="3.5572"/>
    </g>
    <path d="m197.46 240.47c-0.17828-0.29362-0.20087-0.67548-0.0603-0.98892 0.14055-0.31344 0.43739-0.54812 0.77144-0.62817 0.33405-0.08 0.69314-0.01 0.99635 0.15175 0.30321 0.16144 0.55146 0.40727 0.79165 0.65284l3.6643 3.7464 12.879-12.99c0.20796-0.20974 0.42306-0.41969 0.68548-0.55522s0.57293-0.19052 0.85827-0.11426c0.14267 0.0381 0.27708 0.10787 0.38874 0.20452 0.11167 0.0966 0.20021 0.22004 0.25479 0.35726 0.0546 0.13722 0.075 0.28793 0.0585 0.43468-0.0165 0.14674-0.07 0.28919-0.15422 0.41052" stroke="#7ea7d3" stroke-width="1.1857px"/>
   </g>
  </g>
 </g>
</svg>
