<?xml version="1.0" encoding="UTF-8" standalone="no"?>
<svg xmlns="http://www.w3.org/2000/svg" height="27" width="76" version="1.1">
 <defs>
  <radialGradient id="b" gradientUnits="userSpaceOnUse" cy="488" cx="49" gradientTransform="matrix(1 0 0 .34868 0 317.84)" r="38" stop-color="#fff" >
   <stop offset="0"/>
   <stop stop-opacity="0" offset="1"/>
  </radialGradient>
  <radialGradient id="a" gradientUnits="userSpaceOnUse" cy="487.5" cx="50.5" r="10.5" stop-color="#fff" >
   <stop offset="0"/>
   <stop stop-opacity="0" offset="1"/>
  </radialGradient>
 </defs>
 <g transform="translate(-11 -473.998)" style="color:#000000">
  <rect opacity=".49375" rx="0" ry="0" height="2" width="76" y="487" x="11" fill="url(#b)"/>
  <path opacity=".43125" d="m61 487.5c0 5.8-4.701 10.5-10.5 10.5s-10.5-4.7-10.5-10.5 4.701-10.5 10.5-10.5 10.5 4.701 10.5 10.5z" transform="matrix(1.2857 0 0 1.2857 -14.429 -139.29)" fill="url(#a)"/>
  <path d="m61 487.5c0 5.8-4.701 10.5-10.5 10.5s-10.5-4.7-10.5-10.5 4.701-10.5 10.5-10.5 10.5 4.701 10.5 10.5z" transform="matrix(.43590 0 0 .43590 28.487 275)" fill="#fff"/>
 </g>
</svg>
