/* XPM */
static char *menu_prelight[] = {
/* columns rows colors chars-per-pixel */
"24 24 19 1 ",
"  c #272727",
". c #2A2A2A",
"X c #2F2F2F",
"o c #323232",
"O c #373737",
"+ c #434343",
"@ c #444444",
"# c #4B4B4B",
"$ c #4C4C4C",
"% c #515151",
"& c #565656",
"* c #585858",
"= c #6C6C6C",
"- c gray48",
"; c #868686",
": c #A4A4A4",
"> c #B9B9B9",
", c #C3C3C3",
"< c gray77",
/* pixels */
"OOOOOOOOOOOOOOOOOOOOOOOO",
"XXXXXXXXXXXXXXXXXXXXXXXX",
"XXXXXXXXXXXXXXXXXXXXXXXX",
"XXXXXXXXXXXXXXXXXXXXXXXX",
"XXXXXXXXXXXXXXXXXXXXXXXX",
"XXXXXXXXXoX  XoXXXXXXXXX",
"XXXXXXXo.O@##@O.oXXXXXXX",
"XXXXXXo.@#$$$$#+.oXXXXXX",
"XXXXXo.@$$$$$$$$@.oXXXXX",
"XXXXXoO$$%$$$$%$#OoXXXXX",
"XXXXX.+$;,;$$;,;$+.XXXXX",
"XXXXX.#$-,,::,,-## XXXXX",
"XXXXX #$$=><<>=$$# XXXXX",
"XXXXo.+#$$&::*$$#+XXXXXX",
"XXXXXoO$$$$$$$$$#OoXXXXX",
"XXXXXo.@$$$$$$$$+.XXXXXX",
"XXXXXXo.@$$#$$#@.oXXXXXX",
"XXXXXXXo O+##+O.ooXXXXXX",
"XXXXXXXXXoX  XXXXXXXXXXX",
"XXXXXXXXXXXXXXXXXXXXXXXX",
"XXXXXXXXXXXXXXXXXXXXXXXX",
"XXXXXXXXXXXXXXXXXXXXXXXX",
"XXXXXXXXXXXXXXXXXXXXXXXX",
"XXXXXXXXXXXXXXXXXXXXXXXX"
};
