/* XPM */
static char *menu_active[] = {
/* columns rows colors chars-per-pixel */
"24 24 10 1 ",
"  c #2F2F2F",
". c gray20",
"X c #373737",
"o c #494949",
"O c gray33",
"+ c #5D5D5D",
"@ c #747474",
"# c #777777",
"$ c gray53",
"% c gray56",
/* pixels */
"XXXXXXXXXXXXXXXXXXXXXXXX",
"                        ",
"                        ",
"                        ",
"                        ",
"                        ",
"                        ",
"                        ",
"                        ",
"         .    .         ",
"        +%+. +%+        ",
"        O%%##%%O        ",
"         o$%%$o         ",
"          X##X          ",
"           .            ",
"                        ",
"                        ",
"                        ",
"                        ",
"                        ",
"                        ",
"                        ",
"                        ",
"                        "
};
