/* XPM */
static char *menu_inactive[] = {
/* columns rows colors chars-per-pixel */
"24 24 10 1 ",
"  c #2F2F2F",
". c #313131",
"X c #373737",
"o c #3E3E3E",
"O c #444444",
"+ c #494949",
"@ c #565656",
"# c #585858",
"$ c gray38",
"% c #656565",
/* pixels */
"XXXXXXXXXXXXXXXXXXXXXXXX",
"                        ",
"                        ",
"                        ",
"                        ",
"                        ",
"                        ",
"                        ",
"                        ",
"         .    .         ",
"        +%+..+%+        ",
"        O%%##%%O        ",
"         o$%%#O         ",
"          X@#X          ",
"                        ",
"                        ",
"                        ",
"                        ",
"                        ",
"                        ",
"                        ",
"                        ",
"                        ",
"                        "
};
