/* XPM */
static char *shade_inactive[] = {
/* columns rows colors chars-per-pixel */
"24 24 14 1 ",
"  c #2F2F2F",
". c #323232",
"X c #373737",
"o c #3C3C3C",
"O c #434343",
"+ c #4B4B4B",
"@ c #4C4C4C",
"# c #535353",
"$ c #555555",
"% c #5B5B5B",
"& c gray36",
"* c #606060",
"= c #656565",
"- c gray40",
/* pixels */
"XXXXXXXXXXXXXXXXXXXXXXXX",
"                        ",
"                        ",
"                        ",
"                        ",
"                        ",
"                        ",
"                        ",
"          X$$X          ",
"         o*==%o         ",
"        O======O        ",
"        +=@==+=+        ",
"        ...==...        ",
"           ==.          ",
"           ==           ",
"           %%           ",
"                        ",
"                        ",
"                        ",
"                        ",
"                        ",
"                        ",
"                        ",
"                        "
};
