/* XPM */
static char *shade_prelight[] = {
/* columns rows colors chars-per-pixel */
"24 24 21 1 ",
"  c #272727",
". c #2A2A2A",
"X c #2F2F2F",
"o c #323232",
"O c #373737",
"+ c #434343",
"@ c #444444",
"# c #4B4B4B",
"$ c #4C4C4C",
"% c gray33",
"& c #565656",
"* c #686868",
"= c gray46",
"- c #898989",
"; c gray55",
": c #9B9B9B",
"> c #9F9F9F",
", c gray68",
"< c #B6B6B6",
"1 c #C3C3C3",
"2 c gray77",
/* pixels */
"OOOOOOOOOOOOOOOOOOOOOOOO",
"XXXXXXXXXXXXXXXXXXXXXXXX",
"XXXXXXXXXXXXXXXXXXXXXXXX",
"XXXXXXXXXXXXXXXXXXXXXXXX",
"XXXXXXXXXXXXXXXXXXXXXXXX",
"XXXXXXXXXoX  XoXXXXXXXXX",
"XXXXXXXo.O@##@O.oXXXXXXX",
"XXXXXXo.@#$$$$#+.oXXXXXX",
"XXXXXo.@$$%:>%$$@.oXXXXX",
"XXXXXoO$$*<22<*$#OoXXXXX",
"XXXXX.+$=112221=$+.XXXXX",
"XXXXX.#$-1;22;1-## XXXXX",
"XXXXX ##$%$22$%$$# XXXXX",
"XXXXo.+#$$$22$$$#+XXXXXX",
"XXXXooO$$$$22$$$#OoXXXXX",
"XXXXoo.@$$$,,$$$+.XXXXXX",
"XXXXXXo.@$$$$$#@.oXXXXXX",
"XXXXXXXo O+##@O.ooXXXXXX",
"XXXXXXXXXoX  XXXXXXXXXXX",
"XXXXXXXXXXXXXXXXXXXXXXXX",
"XXXXXXXXXXXXXXXXXXXXXXXX",
"XXXXXXXXXXXXXXXXXXXXXXXX",
"XXXXXXXXXXXXXXXXXXXXXXXX",
"XXXXXXXXXXXXXXXXXXXXXXXX"
};
