/* XPM */
static char *shade_active[] = {
/* columns rows colors chars-per-pixel */
"24 24 12 1 ",
"  c #2F2F2F",
". c gray19",
"X c #373737",
"o c #464646",
"O c #515151",
"+ c #606060",
"@ c #6F6F6F",
"# c #727272",
"$ c gray49",
"% c gray52",
"& c gray56",
"* c #909090",
/* pixels */
"XXXXXXXXXXXXXXXXXXXXXXXX",
"                        ",
"                        ",
"                        ",
"                        ",
"                        ",
"                        ",
"                        ",
"          X@#X          ",
"         o%*&%o         ",
"        O&****&O        ",
"        +&+**@*O        ",
"        .X ** X.        ",
"           **           ",
"           **           ",
"          .$$           ",
"           ..           ",
"                        ",
"                        ",
"                        ",
"                        ",
"                        ",
"                        ",
"                        "
};
