/* XPM */
static char *shade_toggled_prelight[] = {
/* columns rows colors chars-per-pixel */
"24 24 20 1 ",
"  c #272727",
". c #2A2A2A",
"X c #2F2F2F",
"o c #323232",
"O c #373737",
"+ c #434343",
"@ c #444444",
"# c #4B4B4B",
"$ c #4C4C4C",
"% c #565656",
"& c #686868",
"* c gray46",
"= c #898989",
"- c gray55",
"; c #9B9B9B",
": c gray68",
"> c #AEAEAE",
", c #B6B6B6",
"< c gray76",
"1 c gray77",
/* pixels */
"OOOOOOOOOOOOOOOOOOOOOOOO",
"XXXXXXXXXXXXXXXXXXXXXXXX",
"XXXXXXXXXXXXXXXXXXXXXXXX",
"XXXXXXXXXXXXXXXXXXXXXXXX",
"XXXXXXXXXXXXXXXXXXXXXXXX",
"XXXXXXXXoo.. XoXXXXXXXXX",
"XXXXXXXo.O@$#@O.oXXXXXXX",
"XXXXXXo.@#$$$$#+.oXXXXXX",
"XXXXXo.@$$$>>$$$@.oXXXXX",
"XXXXXoO$$$$11$$$#OoXXXXX",
"XXXXX.+$$$$11$$$$+.XXXXX",
"XXXXX.#$$%$11$%$## XXXXX",
"XXXXX.##=1-<1-1=$# XXXXX",
"XXXXX.+#*<1<11<*#+XXXXXX",
"XXXXXoO$$&,<<,&$#OoXXXXX",
"XXXXXo.@$$#;>%$$+.XXXXXX",
"XXXXXXo.@$$#$$#@.oXXXXXX",
"XXXXXXXo O+##+O.ooXXXXXX",
"XXXXXXXXXoX  XXXXXXXXXXX",
"XXXXXXXXXXXXXXXXXXXXXXXX",
"XXXXXXXXXXXXXXXXXXXXXXXX",
"XXXXXXXXXXXXXXXXXXXXXXXX",
"XXXXXXXXXXXXXXXXXXXXXXXX",
"XXXXXXXXXXXXXXXXXXXXXXXX"
};
