/* XPM */
static char *shade_toggled_inactive[] = {
/* columns rows colors chars-per-pixel */
"24 24 10 1 ",
"  c #2F2F2F",
". c gray20",
"X c #373737",
"o c #3C3C3C",
"O c #434343",
"+ c #4B4B4B",
"@ c #4C4C4C",
"# c #555555",
"$ c gray36",
"% c gray40",
/* pixels */
"XXXXXXXXXXXXXXXXXXXXXXXX",
"                        ",
"                        ",
"                        ",
"                        ",
"                        ",
"                        ",
"                        ",
"           $$           ",
"           %%           ",
"           %%           ",
"         . %% .         ",
"        @%@%%@%+        ",
"        O%%%%%%O        ",
"         o$%%$o         ",
"          .##.          ",
"                        ",
"                        ",
"                        ",
"                        ",
"                        ",
"                        ",
"                        ",
"                        "
};
