/* XPM */
static char *stick_prelight[] = {
/* columns rows colors chars-per-pixel */
"24 24 15 1 ",
"  c #2F2F2F",
". c #373737",
"X c #3C3C3C",
"o c #3F3F3F",
"O c #4C4C4C",
"+ c #515151",
"@ c gray39",
"# c gray40",
"$ c #838383",
"% c #909090",
"& c gray67",
"* c #ACACAC",
"= c #B6B6B6",
"- c #BBBBBB",
"; c gray75",
/* pixels */
"........................",
"                        ",
"                        ",
"                        ",
"                        ",
"        o$*;;&$o        ",
"       #-%#++#%-#       ",
"      #=@OOOOOO@=#      ",
"     o-@OOOOOOOO#-o     ",
"     $%OOOOOOOOOO%$     ",
"     *#OOOOOOOOOO#&     ",
"     ;+OOOOOOOOOOO-     ",
"     ;+OOOOOOOOOOO;     ",
"     &#OOOOOOOOOO#*.    ",
"     $%OOOOOOOOOO%$     ",
"     o-@OOOOOOOO@-X     ",
"      #=@OOOOOO@=#      ",
"       #-%#++#%-@       ",
"        o$&;;&$o        ",
"                        ",
"                        ",
"                        ",
"                        ",
"                        "
};
