/* XPM */
static char *stick_toggled_inactive[] = {
/* columns rows colors chars-per-pixel */
"24 24 16 1 ",
"  c #2F2F2F",
". c #313131",
"X c #373737",
"o c #393939",
"O c gray23",
"+ c #414141",
"@ c gray26",
"# c #4B4B4B",
"$ c #4C4C4C",
"% c gray33",
"& c #555555",
"* c #5B5B5B",
"= c gray36",
"- c #606060",
"; c #646464",
": c gray40",
/* pixels */
"XXXXXXXXXXXXXXXXXXXXXXXX",
"                        ",
"                        ",
"                        ",
"           .            ",
"        X$*;;*#X..      ",
"       +-$o..o$-+.      ",
"      +-o.  . .o=+      ",
"     X-o X%;;*o.o-X     ",
"     $$.X-::;:=X.$#     ",
"     =o.%;;:::;% o*     ",
"   ..-. -;::::;; X-     ",
"     -X ;::::::; .-     ",
"     *o %::;::;% o=.    ",
"     ##.O-;;;;-o.%#     ",
"    .X-o.o%;;%o.o-.     ",
"      +-o. .   o=+      ",
"      .+;$o..o%-+.      ",
"        .$=-;*#.        ",
"          . .           ",
"                        ",
"                        ",
"                        ",
"                        "
};
