/* XPM */
static char *stick_toggled_active[] = {
/* columns rows colors chars-per-pixel */
"24 24 19 1 ",
"  c #2F2F2F",
". c gray20",
"X c #373737",
"o c #3A3A3A",
"O c #3E3E3E",
"+ c #414141",
"@ c #444444",
"# c gray31",
"$ c #606060",
"% c gray38",
"& c gray40",
"* c #676767",
"= c #6F6F6F",
"- c gray44",
"; c gray49",
": c gray52",
"> c #898989",
", c gray55",
"< c #909090",
/* pixels */
"XXXXXXXXXXXXXXXXXXXXXXXX",
"                        ",
"                        ",
"                        ",
"         .              ",
"        X%;,,;%X        ",
"       #>&@..@&>#       ",
"      #:+      +:#      ",
"     X>+ o-,>-+.O:o     ",
"     %& o><<<<:oX*%     ",
"     ;+ =<<<<<<- +;     ",
"     ,X ><<<<<<, .>     ",
"     >X ,<<<<<<> .>     ",
"     ;+ -<<<<<<-X+;.    ",
"     %& O><<<<>o &%     ",
"     X>+.o-,>=o +:X     ",
"      #:+     .O:#      ",
"       #>&+oX+&:#       ",
"        X%;>>;$X        ",
"          .             ",
"                        ",
"                        ",
"                        ",
"                        "
};
