/* XPM */
static char *stick_active[] = {
/* columns rows colors chars-per-pixel */
"24 24 14 1 ",
"  c #2F2F2F",
". c gray20",
"X c #373737",
"o c #414141",
"O c #444444",
"+ c gray31",
"@ c #606060",
"# c gray38",
"$ c gray40",
"% c #676767",
"& c gray49",
"* c gray52",
"= c #898989",
"- c gray55",
/* pixels */
"XXXXXXXXXXXXXXXXXXXXXXXX",
"                        ",
"                        ",
"                        ",
"         .              ",
"        X#&--&#X        ",
"       +=$O..O$=+       ",
"      +*o      o*+      ",
"     X=o        X=X     ",
"     #$         X$#.    ",
"     &o          o&     ",
"     -X          X=     ",
"     =X          .=     ",
"     &o         Xo&     ",
"     #$          $@     ",
"     X=o        o*X     ",
"      +*o  .  .X=+      ",
"       +=$oXXo$*+.      ",
"        X#&==&@X        ",
"          .             ",
"                        ",
"                        ",
"                        ",
"                        "
};
