/* XPM */
static char *stick_toggled_prelight[] = {
/* columns rows colors chars-per-pixel */
"24 24 19 1 ",
"  c #2F2F2F",
". c #373737",
"X c #3C3C3C",
"o c #3F3F3F",
"O c #4C4C4C",
"+ c #515151",
"@ c gray35",
"# c gray37",
"$ c gray39",
"% c gray40",
"& c #838383",
"* c #909090",
"= c gray61",
"- c gray67",
"; c #ACACAC",
": c #B6B6B6",
"> c #BBBBBB",
", c gray75",
"< c gray77",
/* pixels */
"........................",
"                        ",
"                        ",
"                        ",
"                        ",
"        o&;,,-&o        ",
"       %>*%++%*>%       ",
"      %:$OOOOOO$:%      ",
"     o>$O@=,,=#O%>o     ",
"     &*O@><<<<,@O*&     ",
"     -%O=<<<<<<=O%-     ",
"     ,+O,<<<<<<,OO,     ",
"     ,+O,<<<<<<>OO<     ",
"     -%O=<<<<<<=O%-     ",
"     &*O#,<<<<>@O*&     ",
"     o>$O@=>,=@O$>X     ",
"      %:$OOOOOO$:%      ",
"       %>*%++%*>$       ",
"        o&-,,-&o        ",
"                        ",
"                        ",
"                        ",
"                        ",
"                        "
};
