/* XPM */
static char * close_prelight_xpm[] = {
/* columns rows colors chars-per-pixel */
"24 24 36 1",
".	c #EEEEEE",
" 	c #D9D9D9",
"@	c #D2D6D9",
"#	c #AFCCDB",
"$	c #97C4DC",
"%	c #8AC0DC",
"&	c #97C4DD",
"*	c #AFCCDC",
"=	c #BED1DB",
"-	c #8BC0DD",
";	c #87BFDD",
">	c #8EC3DF",
",	c #8CC1DD",
"'	c #D3D7D9",
")	c #F6F7F7",
"!	c #CCE2EE",
"~	c #88C0DD",
"{	c #CAE1ED",
"]	c #F7F7F8",
"^	c #AFCBDB",
"/	c #96C4DC",
"(	c #C0DBEA",
"_	c #F8F8F8",
":	c #CEE3EE",
"<	c #CDE3EE",
"[	c #C3DDEB",
"}	c #C2DDEB",
"|	c #C5DEEC",
"1	c #D2E4EF",
"2	c #89C0DE",
"3	c #BFDBEA",
"4	c #CDE2EE",
"5	c #EFF3F6",
"6	c #BDDAEA",
"7	c #BED0DA",
"8	c #98C5DD",
/* pixels */
"........................",
"                        ",
"                        ",
"                        ",
"                        ",
"        @#$%%&*@        ",
"       =-;;;;;;-=       ",
"      =;;;;;;;;;;=      ",
"     @-;;>;;;;>;;,'     ",
"     #;;;)!~~{];;;^     ",
"     /;;;(_:<_[;;;&     ",
"     -;;;;}__|;;;;-     ",
"     -;;;~:__12;;;,     ",
"     $;;;!_33_4;;;&     ",
"     *;;;56;;65;;;#     ",
"     @-;;;;;;;;;;,'     ",
"      =;;;;;;;;;;7      ",
"       =,;;;;;;,7       ",
"        '^8--8#'        ",
"                        ",
"                        ",
"                        ",
"                        ",
"                        "
};
