/* XPM */
static char * close_pressed_xpm[] = {
/* columns rows colors chars-per-pixel */
"24 24 41 1",
".	c #EEEEEE",
" 	c #D9D9D9",
"@	c #CDD2D5",
"#	c #90B1C3",
"$	c #679BB6",
"%	c #528FAF",
"&	c #679BB7",
"*	c #91B2C3",
"=	c #ABC0CB",
"-	c #5390B0",
";	c #4C8CAE",
">	c #4D8CAE",
",	c #5793B3",
"'	c #5692B2",
")	c #5490B0",
"!	c #CED3D6",
"~	c #F4F6F6",
"{	c #B5CEDB",
"]	c #4D8DAF",
"^	c #B2CCDA",
"/	c #F7F7F7",
"(	c #91B1C3",
"_	c #669AB6",
":	c #A3C2D3",
"<	c #F8F8F8",
"[	c #B8D0DD",
"}	c #B7CFDC",
"|	c #A8C6D6",
"1	c #528FB0",
"2	c #A6C4D5",
"3	c #AAC7D6",
"4	c #4E8DAF",
"5	c #BED3DF",
"6	c #4F8EAF",
"7	c #B6CEDC",
"8	c #A2C2D3",
"9	c #B6CFDC",
"0	c #EAEFF2",
"a	c #9EC0D1",
"b	c #5591B1",
"c	c #689CB7",
/* pixels */
"........................",
"                        ",
"                        ",
"                        ",
"                        ",
"        @#$%%&*@        ",
"       =-;;;;;;-=       ",
"      =>;;;;;;;;>=      ",
"     @-;;,;;;;';;)!     ",
"     #;;;~{]]^/;;;(     ",
"     _;;;:<[}<|;;;&     ",
"     1;;;;2<<3;;;;-     ",
"     -;;;4[<<56;;;)     ",
"     $;;;7<88<9;;;&     ",
"     *;;;0a;;a0;;;*     ",
"     @-;;;;;;;;;;b!     ",
"      =>;;;;;;;;>=      ",
"       =);;;;;;b=       ",
"        !(c11c*!        ",
"                        ",
"                        ",
"                        ",
"                        ",
"                        "
};
