/* XPM */
static char *close_active[] = {
/* columns rows colors chars-per-pixel */
"24 24 41 1",
".	c #EEEEEE",
" 	c #D9D9D9",
"@	c #CFD5D8",
"#	c #A1C2D3",
"$	c #81B4CF",
"%	c #70ADCD",
"&	c #81B4D0",
"*	c #B5CAD5",
"=	c #71ADCE",
"-	c #6CABCD",
";	c #B6CAD6",
">	c #6DABCD",
",	c #75B0D0",
"'	c #74B0D0",
")	c #72AECE",
"!	c #D0D5D8",
"~	c #F5F6F7",
"{	c #C1DAE7",
"]	c #6DACCD",
"^	c #BFD9E7",
"/	c #F7F7F8",
"(	c #A1C1D3",
"_	c #80B3CF",
":	c #B2D1E2",
"<	c #F8F8F8",
"[	c #C4DBE8",
"}	c #C3DBE8",
"|	c #B7D4E4",
"1	c #71ADCD",
"2	c #B5D3E3",
"3	c #B9D5E4",
"4	c #6EACCE",
"5	c #C4DCE8",
"6	c #C8DEE9",
"7	c #C2DAE8",
"8	c #ECF2F5",
"9	c #AFD0E2",
"0	c #A2C2D3",
"a	c #73AECE",
"b	c #B6CAD5",
"c	c #82B4D0",
/* pixels */
"........................",
"                        ",
"                        ",
"                        ",
"                        ",
"        @#$%%&#@        ",
"       *=------=;       ",
"      *>-------->;      ",
"     @=--,----'--)!     ",
"     #---~{]]^/---(     ",
"     _---:<[}<|---&     ",
"     1----2<<3----=     ",
"     =---45<<64---)     ",
"     $---7<::<}---&     ",
"     #---89--98---0     ",
"     @=----------a!     ",
"      ;>-------->b      ",
"       ;)------ab       ",
"        !(c11c0!        ",
"                        ",
"                        ",
"                        ",
"                        ",
"                        "
};
