/* XPM */
static char *close_inactive[] = {
/* columns rows colors chars-per-pixel */
"24 24 10 1 ",
"  c gray71",
". c gray72",
"X c gray74",
"o c gray78",
"O c #CDCDCD",
"+ c gray82",
"@ c gray84",
"# c gray85",
"$ c #E9E9E9",
"% c #EEEEEE",
/* pixels */
"%%%%%%%%%%%%%%%%%%%%%%%%",
"########################",
"########################",
"########################",
"########################",
"########@oX  Xo@########",
"#######O.       O#######",
"######O          O######",
"#####@   .    .   @#####",
"#####o   %#  #%   o#####",
"#####X   +%##%+   X#####",
"#####     +%%@     #####",
"#####.    #%%#    .#####",
"#####X   #%++%#   X#####",
"#####o   $+  +$   o#####",
"#####@           .@#####",
"######O          O######",
"#######+        O#######",
"########@oX  Xo#########",
"########################",
"########################",
"########################",
"########################",
"########################"
};
