/* XPM */
static char *hide_prelight[] = {
/* columns rows colors chars-per-pixel */
"24 24 12 1 ",
"  c gray48",
". c LightGray",
"X c gray84",
"o c gray85",
"O c #DFDFDF",
"+ c gray89",
"@ c #E4E4E4",
"# c #EEEEEE",
"$ c #F3F3F3",
"% c gray96",
"& c #FBFBFB",
"* c #FDFDFD",
/* pixels */
"########################",
"oooooooooooooooooooooooo",
"oooooooooooooooooooooooo",
"oooooooooooooooooooooooo",
"oooooooooooooooooooooooo",
"oooooooooOo..oOooooooooo",
"oooooooOX+$&&$@XOooooooo",
"ooooooOX%******$XOoooooo",
"ooooooX%********%Xoooooo",
"oooooO+**********+Oooooo",
"oooooX$**********$oooooo",
"oooooX&**      **&.ooooo",
"ooooo.&**      **&.ooooo",
"oooooo$**********$Xooooo",
"oooooO+**********+Oooooo",
"ooooooX%********$Xoooooo",
"ooooooOX$******$XOoooooo",
"oooooooOX@$&&$+XOooooooo",
"oooooooooOX..oOooooooooo",
"oooooooooooooooooooooooo",
"oooooooooooooooooooooooo",
"oooooooooooooooooooooooo",
"oooooooooooooooooooooooo",
"oooooooooooooooooooooooo"
};
