/* XPM */
static char *maximize_prelight[] = {
/* columns rows colors chars-per-pixel */
"24 24 17 1 ",
"  c gray48",
". c #939393",
"X c gray58",
"o c #A0A0A0",
"O c #A4A4A4",
"+ c #A7A7A7",
"@ c LightGray",
"# c gray84",
"$ c gray85",
"% c gray87",
"& c #E2E2E2",
"* c #E4E4E4",
"= c #EEEEEE",
"- c #F3F3F3",
"; c gray96",
": c #FBFBFB",
"> c #FDFDFD",
/* pixels */
"========================",
"$$$$$$$$$$$$$$$$$$$$$$$$",
"$$$$$$$$$$$$$$$$$$$$$$$$",
"$$$$$$$$$$$$$$$$$$$$$$$$",
"$$$$$$$$$$$$$$$$$$$$$$$$",
"$$$$$$$$%&$@@$&%$$$$$$$$",
"$$$$$$$*#&-::-*#*$$$$$$$",
"$$$$$$*#;>>>>>>-#*$$$$$$",
"$$$$$%#;>>>>>>>>;#%$$$$$",
"$$$$$&&>>>:o  X>>&&$$$$$",
"$$$$$$->>:>:+  >>-$$$$$$",
"$$$$$@:>>o:::+ >>:@$$$$$",
"$$$$$@:>> o>>:o>>:@$$$$$",
"$$$$$$->>  +:>>>>-$$$$$$",
"$$$$$&*>>.  X>>>>&&$$$$$",
"$$$$$%#->>>>>>>>;#%$$$$$",
"$$$$$$&#->>>>>>;#&$$$$$$",
"$$$$$$$*#&-::-&#*$$$$$$$",
"$$$$$$$$%&$#@$&%$$$$$$$$",
"$$$$$$$$$$$$$$$$$$$$$$$$",
"$$$$$$$$$$$$$$$$$$$$$$$$",
"$$$$$$$$$$$$$$$$$$$$$$$$",
"$$$$$$$$$$$$$$$$$$$$$$$$",
"$$$$$$$$$$$$$$$$$$$$$$$$"
};
