/* XPM */
static char *shade_prelight[] = {
/* columns rows colors chars-per-pixel */
"24 24 25 1",
". c #EEEEEE",
"  c #D9D9D9",
"@ c #DBDBDB",
"# c #DEDEDE",
"$ c #D8D8D8",
"% c #D3D3D3",
"& c #DFDFDF",
"* c #D5D5D5",
"= c #E4E4E4",
"- c #F3F3F3",
"; c #FBFBFB",
"> c #D6D6D6",
", c #F5F5F5",
"' c #FDFDFD",
") c #F4F4F4",
"! c #B7B7B7",
"~ c #7D7D7D",
"{ c #7A7A7A",
"] c #B8B8B8",
"^ c #7E7E7E",
"/ c #E3E3E3",
"( c #D7D7D7",
"_ c #BBBBBB",
": c #FAFAFA",
"< c #D4D4D4",
/* pixels */
"........................",
"                        ",
"                        ",
"                        ",
"                        ",
"        @#$%%$#@        ",
"       &*=-;;-=*&       ",
"      &>,'''''')>&      ",
"     @*,!~{{{{~])*@     ",
"     #='~{{{{{'^'/#     ",
"     (-'{{{{{{{{'-$     ",
"     %;''''_!'''';%     ",
"     %;'''_{{!''':<     ",
"     $-''_{{{{!''-$     ",
"     #=''''{{''''/#     ",
"     @*)'''{{''')*@     ",
"      &>)'''''')>#      ",
"       &*/-;;-/*#       ",
"        @#$%%$#@        ",
"                        ",
"                        ",
"                        ",
"                        ",
"                        "
};
