/* XPM */
static char *stick_prelight[] = {
/* columns rows colors chars-per-pixel */
"24 24 29 1",
". c #EEEEEE",
"  c #D9D9D9",
"@ c #DBDBDB",
"# c #DEDEDE",
"$ c #D8D8D8",
"% c #D3D3D3",
"& c #DFDFDF",
"* c #D5D5D5",
"= c #E4E4E4",
"- c #F3F3F3",
"; c #FBFBFB",
"> c #D6D6D6",
", c #F5F5F5",
"' c #FDFDFD",
") c #A5A5A5",
"! c #F4F4F4",
"~ c #909090",
"{ c #BBBBBB",
"] c #E7E7E7",
"^ c #D2D2D2",
"/ c #858585",
"( c #7A7A7A",
"_ c #E3E3E3",
": c #D7D7D7",
"< c #868686",
"[ c #A2A2A2",
"} c #C9C9C9",
"| c #FAFAFA",
"1 c #D4D4D4",
/* pixels */
"........................",
"                        ",
"                        ",
"                        ",
"                        ",
"        @#$%%$#@        ",
"       &*=-;;-=*&       ",
"      &>,'''-)'!>&      ",
"     @*,~{]^/(''!*@     ",
"     #='(((((('''_#     ",
"     :-'(((((('''-$     ",
"     %;'((((((<[{*}     ",
"     %;'(((((('''|1     ",
"     $-'(((((('''-$     ",
"     #='~{]^/('''_#     ",
"     @*!''''-)''!*@     ",
"      &>!''''''!>#      ",
"       &*_-;;-_*#       ",
"        @#$%%$#@        ",
"                        ",
"                        ",
"                        ",
"                        ",
"                        "
};
