/* XPM */
static char *stick_toggled_prelight[] = {
/* columns rows colors chars-per-pixel */
"24 24 39 1",
". c #EEEEEE",
"  c #D9D9D9",
"@ c #DBDBDB",
"# c #DEDEDE",
"$ c #D8D8D8",
"% c #D3D3D3",
"& c #DFDFDF",
"* c #D5D5D5",
"= c #E4E4E4",
"- c #F3F3F3",
"; c #FBFBFB",
"> c #C6C6C6",
", c #999999",
"' c #FDFDFD",
") c #A5A5A5",
"! c #F4F4F4",
"~ c #D6D6D6",
"{ c #929292",
"] c #8F8F8F",
"^ c #858585",
"/ c #7A7A7A",
"( c #DDDDDD",
"_ c #848484",
": c #E3E3E3",
"< c #D7D7D7",
"[ c #838383",
"} c #DCDCDC",
"| c #919191",
"1 c #909090",
"2 c #A2A2A2",
"3 c #BBBBBB",
"4 c #C9C9C9",
"5 c #FAFAFA",
"6 c #D4D4D4",
"7 c #E7E7E7",
"8 c #D2D2D2",
"9 c #959595",
"0 c #B0B0B0",
"a c #9B9B9B",
/* pixels */
"........................",
"                        ",
"                        ",
"                        ",
"                        ",
"        @#$%%$#@        ",
"       &*=-;;-=*&       ",
"      &>,-''-)'!~&      ",
"     @*.{]-~^/''!*@     ",
"     #='#{](_/''':#     ",
"     <-'[}|](_'''-$     ",
"     %;'/_#{](123*4     ",
"     %;'//[}|]-''56     ",
"     $-'///_#{{-'-$     ",
"     #='1378]#9{-:#     ",
"     @*!''''-0-a&*@     ",
"      &~!''''''!~#      ",
"       &*:-;;-:*#       ",
"        @#$%%$#@        ",
"                        ",
"                        ",
"                        ",
"                        ",
"                        "
};
